<?xml version="1.0" standalone="no"?>
<!DOCTYPE svg PUBLIC "-//W3C//DTD SVG 20010904//EN"
 "http://www.w3.org/TR/2001/REC-SVG-20010904/DTD/svg10.dtd">
<svg version="1.0" xmlns="http://www.w3.org/2000/svg"
 width="85.000000pt" height="85.000000pt" viewBox="0 0 85.000000 85.000000"
 preserveAspectRatio="xMidYMid meet">
<metadata>
Created by potrace 1.11, written by Peter Selinger 2001-2013
</metadata>
<g transform="translate(0.000000,85.000000) scale(0.100000,-0.100000)"
fill="#000000" stroke="none">
<path d="M375 626 c-71 -102 -130 -195 -132 -206 -2 -12 8 -36 20 -53 13 -18
55 -77 92 -132 157 -230 145 -216 169 -203 40 21 251 171 269 190 15 18 17 45
17 233 0 180 -2 215 -15 225 -16 13 -231 111 -271 124 -19 6 -37 -17 -149
-178z"/>
<path d="M300 761 c-214 -63 -240 -72 -240 -83 0 -20 102 -168 115 -168 13 0
50 39 155 160 30 35 65 75 78 88 12 14 22 27 22 28 0 9 -41 1 -130 -25z"/>
<path d="M29 570 c-2 -103 0 -222 3 -225 10 -10 78 66 83 91 2 18 -54 137 -76
159 -5 5 -9 -4 -10 -25z"/>
<path d="M131 273 c-23 -31 -41 -62 -41 -68 0 -12 206 -112 214 -104 2 2 -4
20 -14 39 -11 19 -22 42 -26 50 -22 47 -79 140 -86 140 -4 0 -25 -25 -47 -57z"/>
</g>
</svg>
