<svg xmlns="http://www.w3.org/2000/svg" width="896.413" height="765.18" viewBox="0 0 896.413 765.18">
  <g id="_445821-PF5LWH-598" data-name="445821-PF5LWH-598" transform="translate(43.306 95.772)">
    <g id="BACKGROUND" transform="translate(-43.306 -95.772)">
      <g id="Group_54" data-name="Group 54">
        <path id="Path_166" data-name="Path 166" d="M201.032,140.521c29.5,1.983,41.855-18.151,55.7-44.027C294.677,25.666,379.2,32.485,407.548,76.1c20.077,30.9,63.387,24.535,98.4,12.447,34.47-11.9,93.21-23.326,140.013-9.1,40.873,12.428,57.626,57.229,94.891,54.472C822.129,127.9,863.1,208.12,848.364,243.118c-9.614,22.835-14.373,48.39-6.573,71.886,8.594,25.876,28.256,46.369,44.14,68.618S914.6,433.693,906.707,459.8c-6.762,22.344-26.915,37.794-39.418,57.531-38.852,61.328-.416,155.331-52.186,206.459-37.057,36.585-97.459,28.142-149.306,35.131-43.234,5.817-83.917,23.987-126.962,31.089-87.166,14.411-175.182-17.32-263.537-18.226-31.127-.321-62.839,3.154-92.983-4.514-40.23-10.237-74.455-41.194-88.412-79.932C74.637,633.882,92.882,572.006,71.143,519.5c-17.716-42.78-61.063-77.59-58.325-123.751,1.7-28.747,21.324-52.772,34.829-78.27C67.724,279.59,41.15,129.812,201.032,140.521Zm257.21-69.393c-7.763,0-14.033,4.816-14.033,10.747,0,5.95,6.308,10.237,14.033,10.747,25.215,1.662,25.215-8.518,25.215-14.468C483.457,68.673,466.005,71.128,458.242,71.128Zm256.077,45.859a41.509,41.509,0,0,0,24.1,9.349c2.342.113,4.892-.038,6.686-1.511a5.478,5.478,0,0,0,.491-7.687c-1.247-1.322-3.06-1.908-4.76-2.606-2.89-1.171-5.7-2.852-7.347-5.477a5.485,5.485,0,0,0-1.662-2.078C726.955,104.238,705.442,109.659,714.319,116.987Zm42.95,9.5c2.229.774,4.646.057,6.894-.661,1.435-.472,3.192-1.492,2.814-2.928a2.657,2.657,0,0,0-1.473-1.492c-2.946-1.568-6.762-2.739-9.708-.718C752.812,122.691,755.041,125.732,757.269,126.488ZM859.81,329.094c.378,3.343,2.455,6.233,4.439,8.953,3.853,5.251,7.763,10.577,12.843,14.676,2.153,1.738,4.646,3.286,7.423,3.381a11.528,11.528,0,0,0,6.988-2.531,22.278,22.278,0,0,0,9.047-15.356c.944-8.31-2.927-16.413-7.423-23.5-2.8-4.382-6.044-8.764-10.69-11.106-7.819-3.947-12.976-.51-15.167,6.422C865.268,316.42,859,321.992,859.81,329.094ZM28.042,522.691c-4.117,3.626-.4,14.241.812,21.248a12.963,12.963,0,0,0,2.172,5.95c1.813,2.285,4.835,3.23,7.649,4.061,5.005,1.454,11.087,2.682,14.921-.831,2.833-2.607,3.249-6.875,3.23-10.709a97.545,97.545,0,0,0-.567-10.5,10.949,10.949,0,0,0-1.322-4.835c-1.152-1.832-3.192-2.89-5.175-3.74C42.585,520.311,32.159,519.065,28.042,522.691ZM279.661,788.57c-2.436.491-5.345,1.549-5.7,3.985-.283,2.021,1.4,3.74,3.041,4.949,13.429,10.029,31.523,10.671,48.333,10.9a14.56,14.56,0,0,0,5.8-.718,7.466,7.466,0,0,0,3.645-9.746,11.7,11.7,0,0,0-2.588-3.343C318.683,781.431,296.471,785.19,279.661,788.57Zm335.555-6.781c-15.167,11.087.17,21,19.322,13.656,10.313-3.966,20.21-7.876,30.786-10.52,3.419-.85,24.063-5.326,24.063-9.954,0-12.3-23.251-9.387-37.888-7.347C639.695,769.267,627.72,772.629,615.216,781.79Z" transform="translate(-12.694 -43.228)" fill="rgba(252,194,0,0.32)"/>
      </g>
    </g>
    <g id="OBJECTS" transform="translate(46.223 76.854)">
      <g id="Group_102" data-name="Group 102">
        <ellipse id="Ellipse_5" data-name="Ellipse 5" cx="58.196" cy="5.436" rx="58.196" ry="5.436" transform="translate(171.409 494.731)" fill="#f8cba6"/>
        <ellipse id="Ellipse_6" data-name="Ellipse 6" cx="58.196" cy="5.436" rx="58.196" ry="5.436" transform="translate(470.367 494.731)" fill="#f8cba6"/>
        <g id="Group_57" data-name="Group 57" transform="translate(8.838 76.586)">
          <g id="Group_56" data-name="Group 56">
            <g id="Group_55" data-name="Group 55">
              <path id="Path_167" data-name="Path 167" d="M461.192,160.456c-.166-1.009-.346-2-.542-2.966" transform="translate(181.474 -119.657)" fill="none" stroke="#ff6c00" stroke-linecap="round" stroke-linejoin="round" stroke-width="1"/>
              <path id="Path_168" data-name="Path 168" stroke="#ff6c00" d="M674.884,164.354C664.51,129,631.4,132.418,601.481,132.479c-32.207.06-530.777,1.1-530.777,1.1-50.11.105-45.247,72.44-6.023,72.349,22.556-.045,31.138,42.31-7.86,42.386-23.4.045-24.152,29.708-8.417,35.655" fill="none" transform="translate(-34.19 -132.364)" stroke-linecap="round" stroke-linejoin="round" stroke-width="1" stroke-dasharray="3.993 3.993"/>
              <path id="Path_169" data-name="Path 169" d="M45.55,233.57a16.164,16.164,0,0,0,3.011.241" transform="translate(-28.446 -81.183)" fill="none" stroke="#ff6c00" stroke-linecap="round" stroke-linejoin="round" stroke-width="1"/>
            </g>
          </g>
          <path id="Path_170" data-name="Path 170" d="M56.443,234.837a7.217,7.217,0,1,1-8.327-5.9A7.226,7.226,0,0,1,56.443,234.837Z" transform="translate(-30.184 -83.579)" fill="#f48951"/>
          <path id="Path_171" data-name="Path 171" d="M470.534,164.467a7.209,7.209,0,1,1-5.8-8.387A7.2,7.2,0,0,1,470.534,164.467Z" transform="translate(179.239 -120.431)" fill="#e26804"/>
        </g>
        <g id="Group_75" data-name="Group 75" transform="translate(0 23.105)">
          <g id="Group_58" data-name="Group 58" transform="translate(55.281 82.494)">
            <path id="Path_172" data-name="Path 172" d="M118.36,221.208a125.629,125.629,0,0,1-4.412,17.225c-3.99,12.181-9.5,23.911-15.072,35.49-2.906,6.053-14.7,20.056-21.02,22.721.738-15.795.8-34.24-1.039-50.185-1.762-15.358,3.764-27-2.259-41.241-.768-1.822-1.566-3.644-2.364-5.466-3-6.776-5.963-13.582-6.9-20.884-1.2-9.26,1.671-19.815,9.682-24.633,5.767-3.463,13.28-3.282,19.439-.557s11.1,7.709,14.846,13.3C119.76,182.571,121.657,202.717,118.36,221.208Z" transform="translate(-65.035 -151.632)" fill="#ff9d00"/>
            <path id="Path_173" data-name="Path 173" d="M81.885,163.87c11.79,16.653,12.814,36.047,13.837,56.419A108.7,108.7,0,0,1,81.78,279.042" transform="translate(-56.567 -145.444)" fill="none" stroke="#ef832b" stroke-linecap="round" stroke-linejoin="round" stroke-miterlimit="10" stroke-width="1"/>
          </g>
          <g id="Group_59" data-name="Group 59" transform="translate(34.739 320.051)">
            <path id="Path_174" data-name="Path 174" d="M96.756,397.407c-8.266-7.3-16.623-14.711-22.736-23.9-5.315-8-8.748-17.075-13.386-25.492-3-5.436-6.55-10.69-8.281-16.653s-1.325-13.039,2.921-17.572c4.427-4.743,12.031-5.466,18.038-3.026s10.6,7.5,14.093,12.949A61.754,61.754,0,0,1,96.47,347.7c1.174,7.709.873,15.6,2.078,23.308a77.978,77.978,0,0,0,6.58,20.658c2.755,5.963,9.757,16.608,11.534,22.721C111.707,416.846,100.279,400.509,96.756,397.407Z" transform="translate(-51.393 -309.403)" fill="#bc6208"/>
            <path id="Path_175" data-name="Path 175" d="M62.33,317.55c7.86,3.433,10.977,12.814,12.618,21.23,1.867,9.576,1.445,19.951,5.842,28.669,8.281,16.427,19.047,35.113,27.058,40.7" transform="translate(-45.862 -305.283)" fill="none" stroke="#ad5600" stroke-linecap="round" stroke-linejoin="round" stroke-miterlimit="10" stroke-width="1"/>
          </g>
          <g id="Group_60" data-name="Group 60" transform="translate(16.966 383.39)">
            <path id="Path_176" data-name="Path 176" d="M62.056,353.669c-6.851-2.71-16.021-3.825-20.417,2.093-3.674,4.954-1.777,11.985.768,17.6,2.153,4.743,4.878,9.576,9.4,12.151,3.087,1.762,6.715,2.289,10.254,2.71a245.044,245.044,0,0,0,29.723,1.717c11.5-.03,25.446,4.668,34.978,11.85C114.545,379.085,85.138,362.778,62.056,353.669Z" transform="translate(-39.589 -351.469)" fill="#ff9d00"/>
            <path id="Path_177" data-name="Path 177" d="M46.52,362.73c8.733.376,17.542.979,25.913,3.463,8.567,2.53,41.527,17.662,46.677,24.091" transform="translate(-36.083 -345.775)" fill="none" stroke="#b1400e" stroke-linecap="round" stroke-linejoin="round" stroke-miterlimit="10" stroke-width="1"/>
          </g>
          <g id="Group_61" data-name="Group 61" transform="translate(0 229.708)">
            <path id="Path_178" data-name="Path 178" d="M142.558,358.668a58.144,58.144,0,0,0-40.624-25.943c-12.136-1.626-24.618.632-36.6-1.882a46.659,46.659,0,0,1-35.1-59.039c2.816-9.366,9.245-18.249,18.55-21.246a29.6,29.6,0,0,1,15.795-.166A43.768,43.768,0,0,1,77.9,256.144c9.366,5.932,16.939,15.057,22.631,24.754,5.165,8.808,17.9,22.525,26.576,31.454,5.089,5.21,8.778,8.778,8.778,8.778C141.82,328.524,139.034,349.86,142.558,358.668Z" transform="translate(-28.321 -249.402)" fill="#b1400e"/>
            <path id="Path_179" data-name="Path 179" d="M40.11,268.16c29.166,13.16,60.966,30.415,81.655,54.838" transform="translate(-22.359 -239.917)" fill="none" stroke="#ff6233" stroke-linecap="round" stroke-linejoin="round" stroke-miterlimit="10" stroke-width="1"/>
          </g>
          <g id="Group_62" data-name="Group 62" transform="translate(38.557 130.613)">
            <path id="Path_180" data-name="Path 180" d="M113.865,326.932S70.41,291.7,61.24,253.89c9.366,5.932,16.939,15.057,22.631,24.754,5.165,8.808,17.9,22.525,26.576,31.454C111.47,314.826,112.6,320.367,113.865,326.932Z" transform="translate(-50.23 -148.039)" fill="#5275a0" opacity="0.2"/>
            <path id="Path_181" data-name="Path 181" d="M111.543,222.272c-3.99,12.181-9.5,23.911-15.072,35.49-2.906,6.053-14.7,20.056-21.02,22.721.738-15.795.8-34.24-1.039-50.185-1.762-15.358,3.764-27-2.259-41.241-.768-1.822-1.566-3.644-2.364-5.466.557.181,1.1.376,1.626.6,9.908,4.246,14.485,14.726,15.328,24.9.708,8.4-.813,16.819-1.942,25.175-.527,3.855-.949,7.8-.12,11.579a.354.354,0,0,1,.03.12c1.039,4.5,7.619,4.246,8.462-.316l2.635-13.988c.783-4.186,1.641-8.567,5.074-11.489a7.249,7.249,0,0,1,4.878-1.822A6.682,6.682,0,0,1,111.543,222.272Z" transform="translate(-45.907 -183.59)" fill="#a06d52" opacity="0.2"/>
            <path id="Path_182" data-name="Path 182" d="M117.577,351.614c-6.866-35.851-10.48-41.377-7.453-50.366,3.855-11.458,1.686-22.962,5.315-34.5,3.629-11.519,6.1-23.911,3.177-35.64-.918-3.7-2.8-7.739-7.258-7.9a7.221,7.221,0,0,0-4.878,1.822c-3.433,2.921-4.291,7.3-5.074,11.489l-2.62,13.988c-.858,4.547-7.423,4.818-8.462.3-.015-.045-.015-.075-.03-.12-.843-3.779-.407-7.724.105-11.579,1.129-8.372,2.65-16.774,1.957-25.19-.843-10.179-5.421-20.658-15.343-24.889a17.513,17.513,0,0,0-11.187-.888c-10.344,2.65-13.024,12.768-11.5,21.4,1.069,6.083,3.915,11.669,6.49,17.27,6.294,13.687,1.671,26.245,2.545,41.286C65.751,309.635,117.577,351.614,117.577,351.614Z" transform="translate(-53.928 -181.559)" fill="#ff7600"/>
            <path id="Path_183" data-name="Path 183" d="M65.54,195.19c5.1,25.507,10.269,51.194,20.176,75.255,2.906,7.047,4.321,16.337,21.14,35.52" transform="translate(-48.056 -177.724)" fill="none" stroke="#ee572a" stroke-linecap="round" stroke-linejoin="round" stroke-miterlimit="10" stroke-width="1"/>
          </g>
          <g id="Group_63" data-name="Group 63" transform="translate(84.464 -28.998)">
            <path id="Path_184" data-name="Path 184" d="M298.747,304.755c-8.512-9.725-16.37-19.619-24.639-29.15-5.36-6.184-10.889-12.223-16.9-17.946-2.983-2.862-6.063-5.626-9.312-8.318a261.488,261.488,0,0,0-63.563-38.826c-13.823-5.917-28.422-10.792-40.16-20.226-11.738-9.409-20.177-24.882-16.273-39.408,2.837-10.477,11.738-18.625,21.947-22.36,10.186-3.71,21.487-3.419,32.084-1.14,29.587,6.378,54.3,27.646,71.1,52.795.291.436.606.9.9,1.358,12.32,18.795,20.929,39.7,28.423,60.992,2.4,6.839,4.68,13.726,6.936,20.589C292.685,273.374,303.113,294.594,298.747,304.755Z" transform="translate(-142.932 -125.694)" fill="#692800"/>
            <path id="Path_185" data-name="Path 185" d="M141.97,136.57c32.278,6.16,55.123,27.525,79.059,50.03a175.152,175.152,0,0,1,49.424,83.764" transform="translate(-121.501 -110.194)" fill="none" stroke="#ef832b" stroke-linecap="round" stroke-linejoin="round" stroke-miterlimit="10" stroke-width="1"/>
          </g>
          <g id="Group_64" data-name="Group 64" transform="translate(208.323 -31.64)">
            <path id="Path_186" data-name="Path 186" d="M201.323,242.791a38.185,38.185,0,0,0,.461,10.089c-8.076-1.843-13.678-14.381-17.364-28.035a210.729,210.729,0,0,1-5.966-34.243,148.15,148.15,0,0,1,2.692-41.882c12.32,18.795,20.929,39.7,28.423,60.992q-3.856,11.459-6.6,23.184A67.4,67.4,0,0,0,201.323,242.791Z" transform="translate(-178.005 -90.237)" fill="#5275a0" opacity="0.2"/>
            <path id="Path_187" data-name="Path 187" d="M253.315,160.631c-2.74,12.1-10.04,22.554-16.491,33.176-3.4,5.578-6.572,11.325-9.531,17.146a261.2,261.2,0,0,0-21.487,58.737c-1.576,6.669-2.449,13.217-1.188,19.983-15.909-3.638-22.263-48.866-23.33-62.3a146.428,146.428,0,0,1,12.174-71.177c4.341-9.725,9.967-19.28,18.625-25.512,8.633-6.233,20.856-8.415,30-2.983,5.505,3.274,9.046,8.706,10.768,14.89A36.656,36.656,0,0,1,253.315,160.631Z" transform="translate(-173.976 -124.605)" fill="#401e0c"/>
            <path id="Path_188" data-name="Path 188" d="M190.96,266.721c-9.895-24.858-3.88-77.459,11.98-110.513,4.778-9.967,11.592-19.3,21.123-24.858" transform="translate(-166.405 -114.992)" fill="none" stroke="#ff9d00" stroke-linecap="round" stroke-linejoin="round" stroke-miterlimit="10" stroke-width="1"/>
          </g>
          <g id="Group_65" data-name="Group 65" transform="translate(253.292 -14.401)">
            <path id="Path_189" data-name="Path 189" d="M230.917,150.063c-2.74,12.1-10.04,22.554-16.491,33.176-3.4,5.578-6.572,11.325-9.531,17.146a58.053,58.053,0,0,1-8.148-23.839c-1.334-14.09,4.05-29.174,15.5-37.468a41.519,41.519,0,0,1,18.213-7.057A36.657,36.657,0,0,1,230.917,150.063Z" transform="translate(-196.548 -131.276)" fill="#5275a0" opacity="0.2"/>
            <path id="Path_190" data-name="Path 190" d="M318.162,255.751a51.257,51.257,0,0,1-4.123,13.387c-7.057,15.278-21.875,28.374-44.065,39.045,0,0-1.237-24.154-1.5-30.629-1.091-27.695-31.139-43-50.152-63.2-9.676-10.307-17.024-23.305-18.382-37.4-1.334-14.09,4.05-29.174,15.5-37.468,9.6-6.936,22.166-8.439,34-7.542,19.061,1.528,38.293,9.507,50.152,24.4.509.558.946,1.164,1.382,1.746,7.251,9.919,10.986,22,13.726,34.025C319.447,212.947,321.581,234.628,318.162,255.751Z" transform="translate(-192.002 -131.713)" fill="#ff9d00"/>
            <path id="Path_191" data-name="Path 191" d="M209.58,141.05c20.808,10.768,41.639,23.766,53.741,43.8,16.9,27.962,13.217,64.339.194,94.289" transform="translate(-177.975 -118.407)" fill="none" stroke="#ee572a" stroke-linecap="round" stroke-linejoin="round" stroke-miterlimit="10" stroke-width="1"/>
          </g>
          <g id="Group_66" data-name="Group 66" transform="translate(543.303 113.572)">
            <path id="Path_192" data-name="Path 192" d="M393.532,299.11c8.236-13.551,4.02-30.987,6.9-46.572a51.463,51.463,0,0,1,18.415-30.686c5.993-4.758,14.41-8.161,21.17-4.592,1.461.768,3.207,1.867,4.623.994a3.736,3.736,0,0,0,1.385-2.53c1.717-8.417-2.334-17.617.979-25.552,1.777-4.276,5.466-7.468,9.365-9.953a51.044,51.044,0,0,1,25.251-7.92,14.351,14.351,0,0,1,6.956,1.054c3.825,1.912,5.571,6.685,5.059,10.931s-2.861,8.056-5.451,11.458c-8.643,11.308-21.306,21.065-22.977,35.188a9.231,9.231,0,0,0,.6,5.27c.8,1.551,2.274,2.65,3.1,4.171,2.665,4.894-2.484,10.45-7.5,12.844a43.449,43.449,0,0,1-14.635,4.05c-3.493.331-7.423.407-9.8,2.981-4.382,4.758.647,12.362-.271,18.761-.572,3.99-3.463,7.212-6.384,10.013a115.389,115.389,0,0,1-17.617,13.9c-5.119,3.282-10.525,6.173-15.057,10.209s-8.191,9.5-8.492,15.569" transform="translate(-389.15 -172.272)" fill="#ff9d00"/>
            <path id="Path_193" data-name="Path 193" d="M399.27,282.1c1.34-6.565,4.4-12.648,7.423-18.626,4.728-9.35,9.546-18.836,16.683-26.5,5.421-5.827,12.031-10.435,17.541-16.171a60.347,60.347,0,0,0,9.908-13.762c1.43-2.725,2.665-5.586,4.577-7.98,2.289-2.846,5.406-4.879,8.131-7.318a34.731,34.731,0,0,0,8.613-11.88" transform="translate(-384.032 -168.435)" fill="none" stroke="#ef832b" stroke-linecap="round" stroke-linejoin="round" stroke-miterlimit="10" stroke-width="1"/>
          </g>
          <g id="Group_67" data-name="Group 67" transform="translate(538.033 208.09)">
            <path id="Path_194" data-name="Path 194" d="M513.515,276.776c-1.852,7.137-4.607,14.2-9.335,19.86a42.366,42.366,0,0,1-11.775,9.5,66.2,66.2,0,0,1-7.122,3.478,85.5,85.5,0,0,1-29.768,6.6c-14.876.557-30.174-2.725-44.448,1.521a43.8,43.8,0,0,0-17.542,10.164,42.677,42.677,0,0,0-7.875,9.953l1.942-12.347c3.6-13.28,7.273-26.8,14.62-38.441,4.743-7.544,10.9-14.108,17.451-20.146a145.571,145.571,0,0,1,34.887-24.392c10.359-5.029,21.863-8.567,33.306-7.167,11.428,1.385,22.661,8.613,26.229,19.559C516.376,261.944,515.382,269.624,513.515,276.776Z" transform="translate(-385.65 -235.045)" fill="#ff7600"/>
            <path id="Path_195" data-name="Path 195" d="M393.4,309.912a90.233,90.233,0,0,1,45.819-34.782c11.534-3.855,23.745-5.315,35.429-8.688s23.354-9.094,30.2-19.153" transform="translate(-381.731 -228.853)" fill="none" stroke="#b1400e" stroke-linecap="round" stroke-linejoin="round" stroke-miterlimit="10" stroke-width="1"/>
          </g>
          <g id="Group_68" data-name="Group 68" transform="translate(553.091 335.317)">
            <path id="Path_196" data-name="Path 196" d="M399.459,391.979c.647-16.608,9.23-31.936,19.665-44.885,8.688-10.8,19.183-20.673,32.147-25.6,4.065-1.536,8.522-2.575,12.738-1.536s8.04,4.638,8.116,8.989c.06,3.659-2.394,6.866-4.984,9.456-8.522,8.537-19.529,14-29.858,20.252-17.737,10.721-34.6,25.025-41.633,44.524" transform="translate(-395.65 -319.542)" fill="#f49d5e"/>
            <path id="Path_197" data-name="Path 197" d="M402.54,374.289c10.841-24.182,38.907-45.8,57.413-48.5" transform="translate(-392.166 -316.382)" fill="none" stroke="#ad2800" stroke-linecap="round" stroke-linejoin="round" stroke-miterlimit="10" stroke-width="1"/>
          </g>
          <g id="Group_69" data-name="Group 69" transform="translate(550.122 384.439)">
            <path id="Path_198" data-name="Path 198" d="M393.681,388.686c-.151-2.786,8.929-10.058,10.977-11.91a104.928,104.928,0,0,1,39.028-22.3c5.752-1.807,11.88-3.117,17.632-1.732,5.767,1.385,11.037,6.113,11.609,12.317.542,6.023-3.493,11.925-8.658,14.831-5.165,2.921-11.187,3.358-16.939,3.026-8.884-.512-17.617-2.725-26.531-2.665S399.357,381.232,393.681,388.686Z" transform="translate(-393.679 -352.166)" fill="#d76304"/>
            <path id="Path_199" data-name="Path 199" d="M399.82,375.645c18.234-9.877,45.8-16.307,65.83-13.883" transform="translate(-390.573 -347.572)" fill="none" stroke="#ffcfa7" stroke-linecap="round" stroke-linejoin="round" stroke-miterlimit="10" stroke-width="1"/>
          </g>
          <g id="Group_71" data-name="Group 71" transform="translate(381.202 -89.179)">
            <path id="Path_200" data-name="Path 200" d="M265.435,247.939a54.689,54.689,0,0,1-4.4,14.284,248.674,248.674,0,0,1-23-91.112,50.517,50.517,0,0,1,7.582-29.241c.543.6,1.009,1.242,1.475,1.863,7.737,10.584,11.722,23.47,14.646,36.305C266.807,202.266,269.084,225.4,265.435,247.939Z" transform="translate(-237.947 -49.231)" fill="#a07952" opacity="0.2"/>
            <path id="Path_201" data-name="Path 201" d="M366.214,303.484c23.393-8.306,47.717-14.931,68.987-27.766,6.443-3.882,12.628-8.384,17.208-14.336,4.554-5.952,7.375-13.559,6.366-21.012-1.035-7.556-5.874-14.8-4.244-22.28,1.087-4.917,4.761-8.746,7.582-12.938a41.37,41.37,0,0,0,5.3-34.364c-3.675-12.317-12.913-22.2-18.166-33.924a56.68,56.68,0,0,1-4.373-30.793c-19.64.259-37.547,11-56.851,14.569-14.776,2.743-30.121,1.242-44.767,4.606-26.679,6.133-48.519,29.629-52.659,56.7a38.937,38.937,0,0,0-34.313,11.489,50.535,50.535,0,0,0-13.456,36.9c6.029,96.857,61.483,147.368,61.483,147.368S357.286,306.641,366.214,303.484Z" transform="translate(-230.328 -106.07)" fill="#b1140e"/>
            <g id="Group_70" data-name="Group 70" transform="translate(53.675 23.186)">
              <path id="Path_202" data-name="Path 202" d="M270.491,288.585c-2.432-23.884,5.926-47.51,15.5-69.531,9.341-21.452,20.106-42.49,34.545-60.914s32.786-34.209,54.445-43.111" transform="translate(-240.63 -115.03)" fill="none" stroke="#ff7600" stroke-linecap="round" stroke-linejoin="round" stroke-miterlimit="10" stroke-width="1"/>
              <path id="Path_203" data-name="Path 203" d="M278.949,120.69c-2.458,21.3-.725,46.966,4.813,67.668" transform="translate(-228.257 -106.044)" fill="none" stroke="#ff7600" stroke-linecap="round" stroke-linejoin="round" stroke-miterlimit="10" stroke-width="1"/>
              <path id="Path_204" data-name="Path 204" d="M281.68,158.383c24.324-15.6,61.742-25.075,90.595-23.418" transform="translate(-222.189 -83.677)" fill="none" stroke="#ff7600" stroke-linecap="round" stroke-linejoin="round" stroke-miterlimit="10" stroke-width="1"/>
              <path id="Path_205" data-name="Path 205" d="M258.69,145.44c29.293,12.343,30.483,55.4,31.285,67.642" transform="translate(-258.69 -66.749)" fill="none" stroke="#ff7600" stroke-linecap="round" stroke-linejoin="round" stroke-miterlimit="10" stroke-width="1"/>
              <path id="Path_206" data-name="Path 206" d="M273.86,171.67c22.409-16.069,54.781-20.908,78.614-14.905" transform="translate(-234.605 -52.714)" fill="none" stroke="#ff7600" stroke-linecap="round" stroke-linejoin="round" stroke-miterlimit="10" stroke-width="1"/>
              <path id="Path_207" data-name="Path 207" d="M302.311,116.42a35.4,35.4,0,0,0-7.737,25.049" transform="translate(-201.935 -112.823)" fill="none" stroke="#ff7600" stroke-linecap="round" stroke-linejoin="round" stroke-miterlimit="10" stroke-width="1"/>
              <path id="Path_208" data-name="Path 208" d="M296.96,126.776c10.325-5.279,24.143-6.5,38.919-2.795" transform="translate(-197.93 -104.211)" fill="none" stroke="#ff7600" stroke-linecap="round" stroke-linejoin="round" stroke-miterlimit="10" stroke-width="1"/>
            </g>
          </g>
          <g id="Group_72" data-name="Group 72" transform="translate(45.585)">
            <path id="Path_209" data-name="Path 209" d="M74.5,148.824c1.6-.09,12.527-8.176,16.728-10.9a11.382,11.382,0,0,0,3.207-2.71,4.057,4.057,0,0,0,.617-3.99,5.046,5.046,0,0,0-5.1-3.162c-5.436.015-7.333,1.807-9.983,4.532C71.207,141.657,74.5,148.824,74.5,148.824Z" transform="translate(-50.858 -81.059)" fill="#ff6c00"/>
            <path id="Path_210" data-name="Path 210" d="M109.44,165.885c4.758,2.138,9.832,4.261,15.012,3.6,2-.256,4.2-1.174,4.863-3.072a4.5,4.5,0,0,0-1.506-4.653,10.7,10.7,0,0,0-4.683-2.108c-6.324-1.551-15.223-.693-21.486,1.084A53.084,53.084,0,0,0,109.44,165.885Z" transform="translate(-36.828 -65.491)" fill="#ff6c00"/>
            <path id="Path_211" data-name="Path 211" d="M129.117,120.258c-2.123-1.34-4.472-3.132-4.457-5.646,0-2.515,2.62-4.427,5.134-4.442a10.506,10.506,0,0,1,6.746,3.026c8,7.032,7,15.042,7,15.042S131.481,121.749,129.117,120.258Z" transform="translate(-25.187 -90.106)" fill="#ff6c00"/>
            <path id="Path_212" data-name="Path 212" d="M133.664,105.571c-1.867-.8-3.779-1.762-4.879-3.478a3.376,3.376,0,0,1-.512-2.816c.542-1.551,1.521-2.951,5.451-2.244,12.422,2.259,15.132,10.766,15.132,10.766S136.961,106.986,133.664,105.571Z" transform="translate(-23.425 -96.845)" fill="#ff6c00"/>
            <path id="Path_213" data-name="Path 213" d="M155.99,121.179a19.606,19.606,0,0,0,13.265-6.806,12.08,12.08,0,0,0,2.665-4.939,5.412,5.412,0,0,0-1.461-5.195c-1.747-1.506-4.517-1.265-6.429,0a12.864,12.864,0,0,0-4.156,5.406C158.535,112.416,155.99,121.179,155.99,121.179Z" transform="translate(-9.343 -93.631)" fill="#ff6c00"/>
            <path id="Path_214" data-name="Path 214" d="M116.271,303.818l-36.2-31.906c-6.429-5.661-12.994-11.5-17.06-19.047-8.748-16.216-3.7-37.281,8.116-51.42s29.135-22.48,46.541-28.548c17.391-6.068,35.5-10.329,52.082-18.37,10.4-5.044,20.854-12.543,23.715-23.745A23.674,23.674,0,0,0,171.922,101.3" transform="translate(-58.596 -94.592)" fill="none" stroke="rgba(164,129,11,0.38)" stroke-linecap="round" stroke-linejoin="round" stroke-miterlimit="10" stroke-width="1"/>
            <path id="Path_215" data-name="Path 215" d="M168.968,107.45c-3.3,10.118-16.141,16.277-22,25.055" transform="translate(-13.904 -91.481)" fill="none" stroke="rgba(164,129,11,0.38)" stroke-linecap="round" stroke-linejoin="round" stroke-miterlimit="10" stroke-width="1"/>
            <path id="Path_216" data-name="Path 216" d="M130.96,115.19c2.53,2.665,5.556,4.878,7.769,7.815,4.668,6.219,5.044,16.322-1.852,22.586" transform="translate(-22.001 -87.567)" fill="none" stroke="rgba(164,129,11,0.38)" stroke-linecap="round" stroke-linejoin="round" stroke-miterlimit="10" stroke-width="1"/>
            <path id="Path_217" data-name="Path 217" d="M87.82,152.82c10.645,8.206,24.633,13.672,38.064,14.184" transform="translate(-43.817 -68.537)" fill="none" stroke="rgba(164,129,11,0.38)" stroke-linecap="round" stroke-linejoin="round" stroke-miterlimit="10" stroke-width="1"/>
            <path id="Path_218" data-name="Path 218" d="M72.239,176.5c-4.909-14.455.437-31.77,12.633-40.94" transform="translate(-52.613 -77.266)" fill="none" stroke="rgba(164,129,11,0.38)" stroke-linecap="round" stroke-linejoin="round" stroke-miterlimit="10" stroke-width="1"/>
          </g>
          <g id="Group_73" data-name="Group 73" transform="translate(452.86 29.483)">
            <path id="Path_219" data-name="Path 219" d="M330.169,124.382c-.572-1.792-.542-3.99.768-5.33a3.929,3.929,0,0,1,4.171-.934c10.585,4.653,9.441,21.17,9.441,21.17S334.505,137.843,330.169,124.382Z" transform="translate(-328.713 -115.702)" fill="#ee572a"/>
            <path id="Path_220" data-name="Path 220" d="M330.283,144.024c-6.851,12.377,17.481,11.428,26.26,4.141C356.543,148.165,336.17,133.379,330.283,144.024Z" transform="translate(-329.083 -104.417)" fill="#ee572a"/>
            <path id="Path_221" data-name="Path 221" d="M350.829,126.039c-1.656-2.259-2.243-5.631-.437-7.785a6.032,6.032,0,0,1,5.722-1.7,13.4,13.4,0,0,1,6.429,3.915c8.01,9.968,4.246,19.71,4.246,19.71S353.539,129.758,350.829,126.039Z" transform="translate(-318.867 -116.426)" fill="#ee572a"/>
            <path id="Path_222" data-name="Path 222" d="M414.609,145.416c-.587-1.927-.452-4.276,1.039-5.631a4.78,4.78,0,0,1,3.553-1.069,10.823,10.823,0,0,1,3.644,1.084,11.577,11.577,0,0,1,5.6,5.571c3.011,6.2.964,13.868.964,13.868S416.069,150.219,414.609,145.416Z" transform="translate(-285.996 -105.161)" fill="#ee572a"/>
            <path id="Path_223" data-name="Path 223" d="M401.274,159.511a15.624,15.624,0,0,0-16.141-2.59,8.216,8.216,0,0,0-3.448,2.59c-1.927,2.665-1.25,6.55.753,9.155,1.988,2.6,5.014,4.186,8.01,5.541,5.421,2.454,13.822,2.951,19.589,4.427C410.022,178.619,409.992,167.175,401.274,159.511Z" transform="translate(-303.061 -96.551)" fill="#ee572a"/>
            <path id="Path_224" data-name="Path 224" d="M335.08,123.95c3.584,11.714,13.717,20.568,24.995,25.341,11.278,4.788,23.7,6.053,35.941,6.836,12.226.8,24.6,1.189,36.423,4.4,11.519,3.132,23.007,9.637,27.946,20.508,6.023,13.235.693,29.045-7.769,40.88-8.447,11.82-19.83,21.351-28.006,33.366-3.749,5.511-6.9,11.985-6.128,18.611,1.009,8.839,8.462,15.343,15.373,20.944" transform="translate(-326.05 -112.62)" fill="none" stroke="#f49c51" stroke-linecap="round" stroke-linejoin="round" stroke-miterlimit="10" stroke-width="1"/>
            <path id="Path_225" data-name="Path 225" d="M353.8,121.1c8.1,8.959,14.575,22.977,16.156,34.963" transform="translate(-316.583 -114.062)" fill="none" stroke="#f49c51" stroke-linecap="round" stroke-linejoin="round" stroke-miterlimit="10" stroke-width="1"/>
            <path id="Path_226" data-name="Path 226" d="M335.71,145.273c4.638,1.235,9.335,2.469,14.124,2.484s10.344-2.65,13.792-5.978" transform="translate(-325.732 -103.604)" fill="none" stroke="#f49c51" stroke-linecap="round" stroke-linejoin="round" stroke-miterlimit="10" stroke-width="1"/>
            <path id="Path_227" data-name="Path 227" d="M419.76,143.65a23.948,23.948,0,0,1,7.212,16.126c.226,6.023-3.117,13.341-7.137,17.843" transform="translate(-283.227 -102.658)" fill="none" stroke="#f49c51" stroke-linecap="round" stroke-linejoin="round" stroke-miterlimit="10" stroke-width="1"/>
            <path id="Path_228" data-name="Path 228" d="M389.6,161.82a241.992,241.992,0,0,0,25.853,21.215c4.4,3.1,13.13,7.062,17.014,6.038" transform="translate(-298.479 -93.469)" fill="none" stroke="#f49c51" stroke-linecap="round" stroke-linejoin="round" stroke-miterlimit="10" stroke-width="1"/>
          </g>
          <g id="Group_74" data-name="Group 74" transform="translate(544.377 267.129)">
            <path id="Path_229" data-name="Path 229" d="M490.274,286.308a66.2,66.2,0,0,1-7.122,3.478,85.5,85.5,0,0,1-29.768,6.6c-14.876.557-30.174-2.725-44.448,1.521a43.8,43.8,0,0,0-17.542,10.164c-.5.241-.994.512-1.491.8-1.19-10.073,23.926-23.2,31.56-26.621a90.986,90.986,0,0,1,44.193-7.709c6.6.527,13.356,1.822,18.791,5.571A20.107,20.107,0,0,1,490.274,286.308Z" transform="translate(-389.863 -274.256)" fill="#5275a0" opacity="0.2"/>
            <path id="Path_230" data-name="Path 230" d="M465.656,278.533c6.6.527,13.356,1.822,18.791,5.571,5.451,3.749,9.275,10.45,8.01,16.939-1.476,7.559-9.29,12.482-16.939,13.4s-15.283-1.174-22.827-2.725a162.5,162.5,0,0,0-50.863-2.319,29.148,29.148,0,0,0-11.925,3.478c-1.19-10.073,23.941-23.2,31.575-26.621A90.732,90.732,0,0,1,465.656,278.533Z" transform="translate(-389.863 -272.233)" fill="#9d4200"/>
            <path id="Path_231" data-name="Path 231" d="M394.23,302.547c12.467-10.962,44.494-18.4,67.14-16.006,6.821.723,13.7,2.755,18.942,7.182" transform="translate(-387.654 -268.27)" fill="none" stroke="#bc6208" stroke-linecap="round" stroke-linejoin="round" stroke-miterlimit="10" stroke-width="1"/>
          </g>
        </g>
        <path id="Path_232" data-name="Path 232" stroke="#0b43a4" d="M378.75,215.306l121.8-.256a25.878,25.878,0,0,1,25.928,25.823h0A25.878,25.878,0,0,1,500.652,266.8l-83.311.166" fill="none" transform="translate(148.894 -13.963)" stroke-linecap="round" stroke-linejoin="round" stroke-miterlimit="10" stroke-width="1" stroke-dasharray="4"/>
        <path id="Path_233" data-name="Path 233" stroke="#0b43a4" d="M167.513,274.61l-85.178.181A14.6,14.6,0,0,0,67.76,289.426h0A14.6,14.6,0,0,0,82.4,304l24.829-.045" fill="none" transform="translate(-8.376 16.157)" stroke-linecap="round" stroke-linejoin="round" stroke-miterlimit="10" stroke-width="1" stroke-dasharray="4"/>
        <g id="Group_76" data-name="Group 76" transform="translate(1.928 330.582)">
          <path id="Path_234" data-name="Path 234" stroke="#ff7600" d="M50.86,325.252c-29.181.06-29.783,43.59,7.333,43.5,37.131-.075,524.182-1.084,547.144-1.129s25.386-35.881-3-35.821c-56.509.12-58.376-26.832-27.012-26.892" fill="none" transform="translate(-29.601 -299.101)" stroke-linecap="round" stroke-linejoin="round" stroke-miterlimit="10" stroke-width="1" stroke-dasharray="4"/>
          <path id="Path_235" data-name="Path 235" d="M53.073,319.626a7.217,7.217,0,1,1-8.327-5.9A7.226,7.226,0,0,1,53.073,319.626Z" transform="translate(-24.978 -294.695)" fill="#692800"/>
          <path id="Path_236" data-name="Path 236" d="M406.153,307.057a7.217,7.217,0,1,1-8.327-5.9A7.225,7.225,0,0,1,406.153,307.057Z" transform="translate(153.577 -301.052)" fill="#0b43a4"/>
        </g>
        <g id="Group_100" data-name="Group 100" transform="translate(96.018 79.25)">
          <path id="Path_237" data-name="Path 237" d="M562.612,496.761l-453.053.934A10.934,10.934,0,0,1,98.6,486.778L97.98,186.645A10.934,10.934,0,0,1,108.9,175.684l453.053-.934a10.934,10.934,0,0,1,10.962,10.916l.617,300.133A10.943,10.943,0,0,1,562.612,496.761Z" transform="translate(-89.111 -113.593)" fill="#5275a0" opacity="0.2"/>
          <g id="Group_79" data-name="Group 79" transform="translate(0 55.405)">
            <path id="Path_238" data-name="Path 238" d="M556.722,492.951l-453.053.934a10.934,10.934,0,0,1-10.962-10.916L92.09,182.835a10.934,10.934,0,0,1,10.916-10.962l453.053-.934a10.934,10.934,0,0,1,10.962,10.916l.617,300.133A10.934,10.934,0,0,1,556.722,492.951Z" transform="translate(-92.09 -170.925)" fill="#fff"/>
            <path id="Path_239" data-name="Path 239" d="M555.235,170.94l-451.11.934a11.93,11.93,0,0,0-11.9,11.94l.015,10.359,474.946-.979-.015-10.359A11.911,11.911,0,0,0,555.235,170.94Z" transform="translate(-92.019 -170.925)" fill="#e86b05"/>
            <path id="Path_240" data-name="Path 240" d="M104.7,486.142l68.163-.136-.617-299.756-80.074.166.587,287.861A11.9,11.9,0,0,0,104.7,486.142Z" transform="translate(-92.049 -163.183)" fill="rgba(239,131,43,0.42)"/>
            <g id="Group_77" data-name="Group 77" transform="translate(0.09)">
              <path id="Path_241" data-name="Path 241" d="M556.149,173.941a7.952,7.952,0,0,1,7.935,7.92l.617,300.133a7.936,7.936,0,0,1-7.92,7.95l-453.068.934a7.952,7.952,0,0,1-7.935-7.92l-.617-300.133a7.943,7.943,0,0,1,7.92-7.95l453.038-.934h.03m0-3.011h-.03l-453.053.934A10.944,10.944,0,0,0,92.15,182.825l.617,300.133a10.94,10.94,0,0,0,10.946,10.916h.03l453.053-.934a10.943,10.943,0,0,0,10.916-10.962L567.1,181.846a10.95,10.95,0,0,0-10.947-10.916Z" transform="translate(-92.15 -170.93)" fill="#0056ec"/>
            </g>
            <path id="Path_242" data-name="Path 242" d="M157.185,373.2l-52.534.105a4.19,4.19,0,0,1-4.2-4.186V368.6a4.19,4.19,0,0,1,4.186-4.2l52.534-.105a4.19,4.19,0,0,1,4.2,4.186V369A4.209,4.209,0,0,1,157.185,373.2Z" transform="translate(-87.862 -73.146)" fill="#fff"/>
            <path id="Path_243" data-name="Path 243" d="M151.569,255.338l-44.72.09a7.7,7.7,0,0,1-7.709-7.679l-.09-44.72a7.7,7.7,0,0,1,7.679-7.709l44.72-.09a7.7,7.7,0,0,1,7.709,7.679l.09,44.72A7.708,7.708,0,0,1,151.569,255.338Z" transform="translate(-88.57 -158.641)" fill="#fff"/>
            <path id="Path_244" data-name="Path 244" d="M315.257,328.029l-155.811.316a5.491,5.491,0,0,1-5.5-5.466V322.2a5.491,5.491,0,0,1,5.466-5.5l155.811-.316a5.491,5.491,0,0,1,5.5,5.466v.678A5.472,5.472,0,0,1,315.257,328.029Z" transform="translate(-60.807 -97.37)" fill="#f8cba6"/>
            <path id="Path_245" data-name="Path 245" d="M298.3,210.129l-123.122.256a5.491,5.491,0,0,1-5.5-5.466v-.678a5.491,5.491,0,0,1,5.466-5.5l123.122-.256a5.491,5.491,0,0,1,5.5,5.466v.678A5.472,5.472,0,0,1,298.3,210.129Z" transform="translate(-52.852 -156.993)" fill="#f8cba6"/>
            <path id="Path_246" data-name="Path 246" d="M441.353,292.829l-164.167.346a5.491,5.491,0,0,1-5.5-5.466v-.678a5.491,5.491,0,0,1,5.466-5.5l164.167-.346a5.491,5.491,0,0,1,5.5,5.466v.678A5.462,5.462,0,0,1,441.353,292.829Z" transform="translate(-1.265 -115.171)" fill="#f8cba6"/>
            <path id="Path_247" data-name="Path 247" d="M315.287,344.009l-155.811.316a5.491,5.491,0,0,1-5.5-5.466v-.678a5.491,5.491,0,0,1,5.466-5.5l155.811-.316a5.491,5.491,0,0,1,5.5,5.466v.678A5.462,5.462,0,0,1,315.287,344.009Z" transform="translate(-60.792 -89.288)" fill="#f8cba6"/>
            <path id="Path_248" data-name="Path 248" d="M315.327,360l-155.811.316a5.491,5.491,0,0,1-5.5-5.466v-.678a5.491,5.491,0,0,1,5.466-5.5L315.3,348.36a5.491,5.491,0,0,1,5.5,5.466v.678A5.491,5.491,0,0,1,315.327,360Z" transform="translate(-60.771 -81.202)" fill="#f8cba6"/>
            <path id="Path_249" data-name="Path 249" d="M437.99,395.239l-157.03.331a9.038,9.038,0,0,1-9.064-9.034L271.76,319.1a9.038,9.038,0,0,1,9.034-9.064l157.03-.331a9.038,9.038,0,0,1,9.064,9.034l.135,67.441A9.058,9.058,0,0,1,437.99,395.239Z" transform="translate(-1.229 -100.753)" fill="#f8cba6"/>
            <path id="Path_250" data-name="Path 250" d="M112.114,180.084a3.832,3.832,0,1,1-3.84-3.824A3.833,3.833,0,0,1,112.114,180.084Z" transform="translate(-85.839 -168.235)" fill="#c8dbfb"/>
            <circle id="Ellipse_7" data-name="Ellipse 7" cx="3.84" cy="3.84" r="3.84" transform="translate(34.842 7.98)" fill="#c8dbfb"/>
            <path id="Path_251" data-name="Path 251" d="M133.694,180.045a3.832,3.832,0,1,1-3.84-3.824A3.833,3.833,0,0,1,133.694,180.045Z" transform="translate(-74.926 -168.255)" fill="#c8dbfb"/>
            <circle id="Ellipse_8" data-name="Ellipse 8" cx="11.097" cy="11.097" r="11.097" transform="translate(87.624 57.566) rotate(-84.278)" fill="#f8cba6"/>
            <path id="Path_252" data-name="Path 252" d="M153.209,242.857l-49.161.105a2.079,2.079,0,0,1-2.078-2.063v-.256a2.079,2.079,0,0,1,2.063-2.078l49.161-.105a2.079,2.079,0,0,1,2.078,2.063v.256A2.069,2.069,0,0,1,153.209,242.857Z" transform="translate(-87.094 -136.779)" fill="#fff"/>
            <path id="Path_253" data-name="Path 253" d="M153.219,249.087l-49.161.105a2.079,2.079,0,0,1-2.078-2.063v-.256a2.079,2.079,0,0,1,2.063-2.078l49.161-.105a2.079,2.079,0,0,1,2.078,2.063v.256A2.06,2.06,0,0,1,153.219,249.087Z" transform="translate(-87.089 -133.629)" fill="#fff"/>
            <path id="Path_254" data-name="Path 254" d="M184.718,282.54l-13.9.136.105,58.241-12,.03a7.666,7.666,0,0,1-7.679-7.649l-.226-107.7a7.727,7.727,0,0,1,7.724-7.754l25.823-.06Z" transform="translate(-62.289 -147.238)" fill="#f8cba6"/>
            <g id="Group_78" data-name="Group 78" transform="translate(88.731 70.362)">
              <path id="Path_255" data-name="Path 255" d="M274.895,217.66v1.506a7.544,7.544,0,0,1,7.544,7.529l.211,105.008a7.547,7.547,0,0,1-7.529,7.559l-114.84.241a7.544,7.544,0,0,1-7.544-7.529l-.211-105.008a7.547,7.547,0,0,1,7.529-7.559l114.825-.241.015-1.506m0,0h-.015l-114.825.241a9.048,9.048,0,0,0-9.034,9.064l.211,105.008a9.054,9.054,0,0,0,9.049,9.034h.015l114.825-.241a9.048,9.048,0,0,0,9.034-9.064l-.211-105.008a9.064,9.064,0,0,0-9.049-9.034Z" transform="translate(-151.02 -217.66)" fill="#c8dbfb"/>
            </g>
          </g>
          <path id="Path_256" data-name="Path 256" d="M414.442,318.3,261.281,283.681a9.053,9.053,0,0,1-6.836-10.826l17.225-76.234a9.053,9.053,0,0,1,10.826-6.836L435.657,224.4a9.053,9.053,0,0,1,6.836,10.826l-17.225,76.234A9.06,9.06,0,0,1,414.442,318.3Z" transform="translate(-10.099 -106.103)" fill="#f8cba6"/>
          <g id="Group_81" data-name="Group 81" transform="translate(76.99 392.202)">
            <path id="Path_257" data-name="Path 257" d="M172.716,421.939l-21.426.045-5.24-27.3,31.8-.075Z" transform="translate(-141.792 -394.61)" fill="#e86b05"/>
            <path id="Path_258" data-name="Path 258" d="M150.008,394.655c0,2.228-.422,5.963,1.069,6.023s.873-3.553,2.56-3.448c1.084.06-.5,11.865,3.584,12.151,2.8.2,2.289-5.782,2.575-9.531.2-2.53,3.433-2.033,3.463-.361.03,1.882-.09,3.132,0,5.27.151,3.569,5.631,2.62,5.436-2.138s-.015-7.98-.015-7.98Z" transform="translate(-139.818 -394.595)" fill="#f8cba6"/>
            <g id="Group_80" data-name="Group 80" transform="translate(0 0.241)">
              <path id="Path_259" data-name="Path 259" d="M148.278,411.077a5.815,5.815,0,0,1-1.265-.135,4.477,4.477,0,0,1-3.3-2.469c-2.183-4.638,3.569-13.31,3.794-13.7l.3,1.566c-.045.09-5.059,7.544-3.087,11.714a3.38,3.38,0,0,0,2.545,1.882,5.047,5.047,0,0,0,1.069.105c7.724-.015,20.914-14.395,21.065-14.56.542-.647,1.551-.03,1.189.512C169.975,396.682,156.575,411.062,148.278,411.077Z" transform="translate(-143.222 -394.77)" fill="#0c2340"/>
            </g>
          </g>
          <g id="Group_82" data-name="Group 82" transform="translate(246.64 0.931)">
            <path id="Path_260" data-name="Path 260" d="M316.508,157.634c-30.461-1.159-72.394,21.366-57.518,76.445-.316,4.653,2.469,7.98,5.436,7.077s.346-9.742.346-9.742c5.074-40.955,14.56-48.032,30.656-47.882l37.778-.075c9.335,1.37,26.3,7.9,28.849,40.684l9.411,1.732C372.2,202.188,366.467,159.547,316.508,157.634Z" transform="translate(-255.893 -123.201)" fill="#5275a0" opacity="0.2"/>
            <path id="Path_261" data-name="Path 261" d="M316.508,154.454c-30.461-1.159-72.394,21.366-57.518,76.445l5.782-2.665c5.074-40.955,14.56-48.032,30.656-47.882l37.778-.075c9.335,1.37,26.756,9.667,29.3,42.446l8.959-.015C372.2,199.008,366.467,156.367,316.508,154.454Z" transform="translate(-255.893 -124.809)" fill="#ef832b"/>
            <path id="Path_262" data-name="Path 262" d="M293.527,155.03l-4.517,9.938s.542,5.6,6.038,5.481,6.234-2.65,6.234-2.65L302,156.385Z" transform="translate(-239.146 -124.496)" fill="#ffb9a3"/>
            <path id="Path_263" data-name="Path 263" d="M317.294,154.646c-5.15,9.11-7.438,11.955-14.184,13.326-8.733,1.777-18.52-4.111-13.973-18.626,3.7-11.835,9.335-10.013,14.831-9.561C309.479,140.222,322.865,144.784,317.294,154.646Z" transform="translate(-239.665 -132.394)" fill="#ffb9a3"/>
            <path id="Path_264" data-name="Path 264" d="M297.251,149.806a3.722,3.722,0,0,0-4.2,1.009,4.591,4.591,0,0,0-1.159,4.4,4,4,0,0,0-3.764,4.2c-1.445-3.358-.663-6.866-.949-10.314s.09-7.182,2.319-9.817a11.169,11.169,0,0,1,3.343-2.575,17.319,17.319,0,0,1,15.539-.226,9.413,9.413,0,0,0,6.987,1.22c6.655-1.611,10.54,2.891,6.55,7.107,1.28.467,2.7,1.039,3.267,2.274a1.018,1.018,0,0,1,.03.994,1.134,1.134,0,0,1-.617.376,7.284,7.284,0,0,1-3.508.271c.452.376,2.921.527,3.659,1.972,1.988,3.824-5.872,1.9-7.077,1.506,1.37.256,4.954,3.117,3.809,5.089-.226.391-5.074,3.207-10.164-2.71a9.38,9.38,0,0,0-4.412-3.117,6.958,6.958,0,0,0-4.156.647c-.979.361-3.463,1.882-4.171.979C297.823,152.11,298.832,150.589,297.251,149.806Z" transform="translate(-240.115 -134.751)" fill="#0c2340"/>
            <path id="Path_265" data-name="Path 265" d="M327.964,199.861c-1.355,4.653-2.71,5.1-1.084,5.842,1.641.738,2.966-1.867,2.966-1.867l7.559,1.506s-1.7-4.909-2.891-5.5C333.309,199.259,327.964,199.861,327.964,199.861Z" transform="translate(-220.371 -101.962)" fill="#ffb9a3"/>
            <path id="Path_266" data-name="Path 266" d="M263.732,203.43c.994,2.454,1.265,2.469,2.635,5.421,2.635,5.631-3.523,14.53-7.348,4.818-1.054-2.665-1.069-7.559-1.069-7.559Z" transform="translate(-254.854 -100.02)" fill="#ffb9a3"/>
          </g>
          <g id="Group_84" data-name="Group 84" transform="translate(292.206)">
            <g id="Group_83" data-name="Group 83">
              <path id="Path_267" data-name="Path 267" d="M301.116,137.174c5.165.286,11.519-3.358,15.569,1.31.376.437,1.129-.135.8-.617-3.87-5.556-11.052-1.415-16.352-1.566a.437.437,0,0,0-.015.873Z" transform="translate(-278.794 -133.716)" fill="#0c2340"/>
              <path id="Path_268" data-name="Path 268" d="M308.5,134.746c-3.538.617-6.926-1.054-10.465-.5a15.407,15.407,0,0,0-7.6,3.809c-.557.482.166,1.43.8,1.024,3.042-2,5.963-3.734,9.757-3.448,2.755.2,5.089,1.009,7.83.2a.565.565,0,0,0-.316-1.084Z" transform="translate(-284.096 -134.133)" fill="#0c2340"/>
              <path id="Path_269" data-name="Path 269" d="M290.469,137.761a8.312,8.312,0,0,0-4.216,6.58c-.211,2.138-.271,7.032,1.882,8.236a.528.528,0,0,0,.632-.828c-1.385-1.4-1.506-5.18-1.4-6.956a8.168,8.168,0,0,1,3.463-6.429c.346-.256.045-.858-.361-.6Z" transform="translate(-286.155 -132.33)" fill="#0c2340"/>
              <path id="Path_270" data-name="Path 270" d="M316.834,144.459c-1.28-2.213-4.547-4.171-7.062-2.77a.447.447,0,0,0,.226.828,10.7,10.7,0,0,1,3.177.211,5.512,5.512,0,0,1,2.966,2.123c.3.407.949.06.693-.392Z" transform="translate(-274.321 -130.551)" fill="#0c2340"/>
            </g>
          </g>
          <g id="Group_86" data-name="Group 86" transform="translate(93.203 187.531)">
            <path id="Path_271" data-name="Path 271" d="M203.12,295.92c15.976,5.872,29.843,24.182,26.651,37.507-3.6,15.042-13.973,21.532-13.973,21.532l-3.267-6.038s8.3-12.964,7.574-19.092c-1.159-9.8-13.536-16.367-13.536-16.367Z" transform="translate(-129.145 -239.847)" fill="#5d0ba4"/>
            <path id="Path_272" data-name="Path 272" d="M181.116,408.645s-9.8,3.96-12.256,6.2l19.424-.045-.015-6.173Z" transform="translate(-146.47 -182.849)" fill="#0c2340"/>
            <path id="Path_273" data-name="Path 273" d="M208.853,408.39s2.786,3.222,3.3,6.459l-13.25.03a15.469,15.469,0,0,1,2.469-6.474Z" transform="translate(-131.279 -182.97)" fill="#0c2340"/>
            <path id="Path_274" data-name="Path 274" d="M211.557,445.724l-9.049.015c.181-10.66-2.018-46.993-4.141-74.156-1.25-15.93-2.484-28.729-3.207-31.319l4.848-1.069L218.3,335.13C221.435,349.434,214.207,415.113,211.557,445.724Z" transform="translate(-133.17 -220.019)" fill="#047f76"/>
            <path id="Path_275" data-name="Path 275" d="M187.935,338.418c-7.062,11.112-8.884,91.457-11.835,106.348l8.583.482a779.955,779.955,0,0,1,30.852-107.6Z" transform="translate(-142.809 -218.744)" fill="#009790"/>
            <path id="Path_276" data-name="Path 276" d="M209.509,337.65c-4.141,11.248-7.86,22.254-11.142,32.659-1.25-15.93-2.484-28.729-3.207-31.319l4.848-1.069Z" transform="translate(-133.17 -218.744)" fill="#5275a0" opacity="0.2"/>
            <path id="Path_277" data-name="Path 277" d="M187.935,338.418c-7.062,11.112-8.884,91.457-11.835,106.348l8.583.482a779.955,779.955,0,0,1,30.852-107.6Z" transform="translate(-142.809 -218.744)" fill="#009790"/>
            <path id="Path_278" data-name="Path 278" d="M187.9,279.717s-5.5,20.929,8.236,20.914l-.813,5.345,10.419,1.144-2.259-7.453s2.063-13.16,2.2-15.539C205.958,279.687,193.521,271.857,187.9,279.717Z" transform="translate(-137.388 -249.738)" fill="#ffb9a3"/>
            <g id="Group_85" data-name="Group 85">
              <rect id="Rectangle_6" data-name="Rectangle 6" width="4.05" height="17.09" transform="translate(12.54 6.525) rotate(-0.113)" fill="#0c2340"/>
              <path id="Path_279" data-name="Path 279" d="M180.159,265.17l-23.218.045a2.943,2.943,0,0,1-2.951-2.936v-.6a2.943,2.943,0,0,1,2.936-2.951l23.218-.045a2.943,2.943,0,0,1,2.951,2.936v.6A2.943,2.943,0,0,1,180.159,265.17Z" transform="translate(-153.99 -258.68)" fill="#56379c"/>
            </g>
            <path id="Path_280" data-name="Path 280" d="M162.288,280.917c-.105-3.87-3.313-2.861-1.551-9.185,1.084-3.915,9.17.632,8.161,3.343s-2.168,7-2.168,7Z" transform="translate(-150.845 -252.85)" fill="#ffb9a3"/>
            <path id="Path_281" data-name="Path 281" d="M210.169,304.849c-20.523,1.355-21.878,8.281-31.063,7.2-13.6-1.6-11.218-26.847-9.531-35.9l-8.116.015s-14.635,57.5,31.59,46.873c-1.777,10.073,9.727,26.531-1.43,46.5,17.542,4.758,33.924,5.932,47.942-.09-2.454-3.313,5.029-36.724-9.621-60.77C227.078,303.96,211.674,304.758,210.169,304.849Z" transform="translate(-151.325 -249.845)" fill="#0056ec"/>
            <path id="Path_282" data-name="Path 282" d="M210.169,304.849c-20.523,1.355-21.878,8.281-31.063,7.2-13.6-1.6-11.218-26.847-9.531-35.9l-8.116.015s-14.635,57.5,31.59,46.873c-1.777,10.073,9.727,26.531-1.43,46.5,17.542,4.758,33.924,5.932,47.942-.09-2.454-3.313,5.029-36.724-9.621-60.77C227.078,303.96,211.674,304.758,210.169,304.849Z" transform="translate(-151.325 -249.845)" fill="rgba(236,0,18,0.36)"/>
            <path id="Path_283" data-name="Path 283" d="M193.48,285.4c1.34.346,2.891.6,3.614,1.732a4.214,4.214,0,0,1,.391,2.515,2.076,2.076,0,0,1,2.2-1.43,2.04,2.04,0,0,1,1.792,1.9,3.118,3.118,0,0,1-.3,1.265,16.174,16.174,0,0,1-1.521,2.906c1.671.617,3.087,5.526,3.915,7.047,2.816-.708,9.094-3.132,9.637-13.115.256-4.653-1.159-10.224-6.2-13.31-3.569-2.183-9.471-2.213-13.551-1.174-3.313.843-8.583,4.156-6.128,8.01C188.557,283.686,191.267,284.83,193.48,285.4Z" transform="translate(-137.453 -251.403)" fill="#ef832b"/>
            <path id="Path_284" data-name="Path 284" d="M204.736,277.131c1.912-.632,4.336-.3,5.481,1.295.888,1.25.813,2.876,1.1,4.367a3.348,3.348,0,0,0,.949,1.942,4.077,4.077,0,0,0,2.53.783c2.213.12,4.442-.166,6.625.211s4.412,1.6,5.029,3.629c.346,1.129.151,2.364.572,3.463.617,1.656,2.379,2.6,3.915,3.569a25.466,25.466,0,0,1,8.056,8.025,14.436,14.436,0,0,1,2.409,6.655c.151,2.364,1.867,5.5,1.4,7.815-.5,2.515-2.966,5.917-7.845,7.483-8.432,2.71-11.112,3.885-19.2-.918-.979-.587-2.876-2.545-3.764-3.252a4.3,4.3,0,0,1-1.37-2.183c-.678-2.319.105-4.818,1.31-6.926s2.846-3.975,4.08-6.068a7.726,7.726,0,0,0,1.28-4.111,2.231,2.231,0,0,0-.557-1.491,2.547,2.547,0,0,0-1.31-.587c-1.777-.346-3.734.015-5.33-.783a3.748,3.748,0,0,1-1.942-4.291c.316-1.084,1.144-2,1.37-3.1a4.245,4.245,0,0,0-2.048-4.156,11.771,11.771,0,0,0-4.758-1.566,5.4,5.4,0,0,1-2.349-.753,3.115,3.115,0,0,1-1.19-2.6C199.24,280.444,201.785,278.125,204.736,277.131Z" transform="translate(-131.137 -249.501)" fill="#ef832b"/>
          </g>
          <g id="Group_88" data-name="Group 88" transform="translate(165.099 223.061)">
            <g id="Group_87" data-name="Group 87">
              <path id="Path_285" data-name="Path 285" d="M201.936,282.794c10.148,2.2-2.665,11.82,2.71,16.427,1.536,1.31,3.313.9,5.1,1.144,6.9.949,3.117,5.631,2.65,9.305-.075.557.843.662.964.135.587-2.53,2.906-5.631,1.716-8.327-1.054-2.379-3.674-2.093-5.827-2.168-2.7-.075-5.661,0-4.653-5.345.226-1.19,1.174-2.394,1.641-3.523a6.758,6.758,0,0,0,.6-3.99,5.469,5.469,0,0,0-4.773-4.171c-.331-.06-.482.437-.135.512Z" transform="translate(-201.739 -282.277)" fill="#ef832b"/>
            </g>
          </g>
          <g id="Group_90" data-name="Group 90" transform="translate(144.064 207.421)">
            <g id="Group_89" data-name="Group 89">
              <path id="Path_286" data-name="Path 286" d="M188.072,275.624c7.83-3.975,15.629-3.177,22.239,2.65a.469.469,0,0,0,.663-.663,17.339,17.339,0,0,0-23.113-2.364.216.216,0,0,0,.211.376Z" transform="translate(-187.768 -271.889)" fill="#ef832b"/>
            </g>
          </g>
          <g id="Group_91" data-name="Group 91" transform="translate(339.66 195.105)">
            <path id="Path_287" data-name="Path 287" d="M363.768,290.68,360.38,297.5l8.3,3.388.888-7.845Z" transform="translate(-296.074 -250.071)" fill="#ffb9a3"/>
            <path id="Path_288" data-name="Path 288" d="M369.777,275.93c-18.806,8.191-11.1,28.036.346,25.7,5.571-1.129,8.387-19.077,8.387-19.077Z" transform="translate(-297.069 -257.531)" fill="#ffb9a3"/>
            <path id="Path_289" data-name="Path 289" d="M373.074,275.373a9.756,9.756,0,0,0-2.228-3.192,2.849,2.849,0,0,0-3.584-.2c-1.265,1.174-.527,3.373.753,4.532-1.1.136-2.409-.632-3.222.136-.617.572-.406,1.6-.045,2.364a10.421,10.421,0,0,0,3.855,4.412c-.949.542-2.063,1.6-1.491,2.53.166.256.422.437.587.693.361.6.015,1.385-.361,1.988-.587.979-1.235,1.927-1.912,2.846a1.675,1.675,0,0,1,2.7.467,2.889,2.889,0,0,1-.662,3.026,2.976,2.976,0,0,1-1.521.964c-.512.12-2.8,7.167-1.024,8.552,2.2,1.7,9.667.226,10.751-1.7a4.763,4.763,0,0,0,4.231,1.747c1.566-.316,2.755-2.243,1.912-3.6a4.4,4.4,0,0,0,5.315-6.369c.918-.271,1.114-1.521.873-2.454a5.719,5.719,0,0,0-3.885-4.005,1.929,1.929,0,0,0,1.747-1.9,3.964,3.964,0,0,0-1.054-2.59c-1.762-2.183-3.855-2.755-6.459-3.087C375.694,280.237,374.234,277.541,373.074,275.373Z" transform="translate(-294.117 -259.805)" fill="#4a49ca"/>
            <path id="Path_290" data-name="Path 290" d="M362.592,407.775s-11.007,5.285-12.482,6.926c0,0,21.652.979,23.354-.045s-3.463-6.9-3.463-6.9Z" transform="translate(-301.267 -190.863)" fill="#0c2340"/>
            <path id="Path_291" data-name="Path 291" d="M389.211,404.321s-9.667,7.453-10.781,9.365c0,0,22.827-3.388,22.827-4.878s-4.818-6.038-4.818-6.038Z" transform="translate(-286.946 -193.387)" fill="#0c2340"/>
            <path id="Path_292" data-name="Path 292" d="M366.436,342.124c-.406,2.244-15.479,61.719,27.645,97.389l12.482-2.861s-14.53-13.627-21.381-38.17c-6.475-23.2-1.34-25.477,2.545-38.245,4.306-14.139,1.1-24.408,1.1-24.408Z" transform="translate(-294.465 -227.239)" fill="#d8742a"/>
            <path id="Path_293" data-name="Path 293" d="M354.706,340.335c-6.836,16.337-18.565,72,7,103.337l12.768-.03s-10.058-11.022-11.187-36.6,5.375-36.815,9.968-45.247S382.1,339.01,382.1,339.01Z" transform="translate(-303.349 -225.631)" fill="#ef832b"/>
            <path id="Path_294" data-name="Path 294" d="M346.487,272.64c-3.388,11.955-4.5,34.059,12.482,42.958l11.368-2.771s-20.508-10.751-16.111-37.914Z" transform="translate(-304.134 -259.194)" fill="#d5d5b5"/>
            <path id="Path_295" data-name="Path 295" d="M325.042,268.934l8.823-1.084s-1.069,37.071,41.753,40.2c32.689,2.379,35.249,63.722,35.249,63.722-10.54,7.092-28.217,9.245-50.878,7.619,0,0,1.445-43.756-2.153-55.741C357.851,323.652,322.271,312.449,325.042,268.934Z" transform="translate(-314.022 -261.617)" fill="#f4f4e2"/>
            <path id="Path_296" data-name="Path 296" d="M317.9,264.3c-1.491,1.732,4.743,3.93,10.8,6.73l7.754-.949a31.529,31.529,0,0,0,0-3.162c-.09-1.611-.9-2.53-1.822-1.144s-4.833,1.852-6.685.587S319.386,262.566,317.9,264.3Z" transform="translate(-317.672 -263.71)" fill="#ffb9a3"/>
            <path id="Path_297" data-name="Path 297" d="M346.53,274.32c-2.846-2.786-2.078-2.62-2.078-2.62l8.658,1.957s1.9-4.231,3.523-4.336c1.611-.12-1.22,2.906-.572,4.035s-1.777,3.252-1.777,3.252Z" transform="translate(-304.176 -260.875)" fill="#ffb9a3"/>
          </g>
          <g id="Group_93" data-name="Group 93" transform="translate(423.182 213.925)">
            <g id="Group_92" data-name="Group 92">
              <path id="Path_298" data-name="Path 298" d="M373.44,277.054c1.777.452,3.584.632,5.059,1.852a3.825,3.825,0,0,1,1.069,4.939c-.5.783.678,1.4,1.2.708a4.723,4.723,0,0,0-.376-5.842,8.058,8.058,0,0,0-6.851-2.454c-.437.045-.587.678-.105.8Z" transform="translate(-373.142 -276.209)" fill="#4a49ca"/>
            </g>
          </g>
          <g id="Group_95" data-name="Group 95" transform="translate(429.812 229.946)">
            <g id="Group_94" data-name="Group 94">
              <path id="Path_299" data-name="Path 299" d="M379.043,287.739c1.174.693,2.153,1.807,1.656,3.267-.467,1.34-1.822,2.138-2.921,2.906a.506.506,0,0,0,.512.873c1.626-.858,3.343-2.063,3.6-4.05.226-1.732-.934-3.042-2.379-3.825a.476.476,0,0,0-.467.828Z" transform="translate(-377.545 -286.85)" fill="#4a49ca"/>
            </g>
          </g>
          <g id="Group_97" data-name="Group 97" transform="translate(411.366 237.432)">
            <g id="Group_96" data-name="Group 96">
              <path id="Path_300" data-name="Path 300" d="M365.453,294.2a10.506,10.506,0,0,0,12.934-1.415c.407-.437-.151-1.25-.662-.858-3.614,2.665-7.709,3.538-11.94,1.717a.324.324,0,0,0-.331.557Z" transform="translate(-365.294 -291.821)" fill="#4a49ca"/>
            </g>
          </g>
          <g id="Group_99" data-name="Group 99" transform="translate(430.24 217.098)">
            <g id="Group_98" data-name="Group 98">
              <path id="Path_301" data-name="Path 301" d="M379.411,278.608c2.289,2.183,0,5.165-1.476,7.032a.415.415,0,0,0,.587.587c1.31-1.22,2.62-2.575,2.8-4.442a3.448,3.448,0,0,0-1.7-3.448.175.175,0,0,0-.211.271Z" transform="translate(-377.829 -278.316)" fill="#4a49ca"/>
            </g>
          </g>
        </g>
        <g id="Group_101" data-name="Group 101" transform="translate(310.811 -66)">
          <path id="Path_302" data-name="Path 302" d="M210.918,103.062l-3.538-8.628L241.454,81.5Z" transform="translate(-199.58 -81.5)" fill="#a4570b"/>
          <path id="Path_303" data-name="Path 303" d="M210.87,97.747,239.689,81.5l-20.071,20.387Z" transform="translate(-197.815 -81.5)" fill="#f49c51"/>
          <path id="Path_304" data-name="Path 304" d="M202.2,90.926,244.074,81.5,210,94.434Z" transform="translate(-202.2 -81.5)" fill="#f49c51"/>
          <path id="Path_305" data-name="Path 305" d="M211.446,92.29l-1.716,5.315,5.195-3.674Z" transform="translate(-198.392 -76.043)" fill="#a4570b"/>
        </g>
        <path id="Path_306" data-name="Path 306" stroke="#ff6c00" d="M213.678,95.116c-8.9-1.506-20.974,7.5-15.78,16.864,1.762,3.192,10.886,1.807,10.209-1.717-.331-1.686-2.394-2.409-4.1-2.213-9.938,1.144-10.344,9.471-9.893,11.594,2.274,10.962,19.077,7.258,24.724,5.707" fill="none" transform="translate(104.466 -140.698)" stroke-linecap="round" stroke-linejoin="round" stroke-miterlimit="10" stroke-width="1" stroke-dasharray="4"/>
      </g>
    </g>
  </g>
</svg>
