<svg xmlns="http://www.w3.org/2000/svg" xmlns:xlink="http://www.w3.org/1999/xlink" width="246.953" height="217.469" viewBox="0 0 246.953 217.469">
  <defs>
    <linearGradient id="linear-gradient" x1="0.5" y1="1" x2="0.5" y2="0.001" gradientUnits="objectBoundingBox">
      <stop offset="0" stop-color="gray" stop-opacity="0.251"/>
      <stop offset="0.54" stop-color="gray" stop-opacity="0.122"/>
      <stop offset="1" stop-color="gray" stop-opacity="0.102"/>
    </linearGradient>
    <linearGradient id="linear-gradient-2" x1="0.5" y1="1" x2="0.5" y2="0" xlink:href="#linear-gradient"/>
  </defs>
  <g id="undraw_product_teardown_elol" transform="translate(0 -0.001)">
    <ellipse id="Ellipse_54" data-name="Ellipse 54" cx="31.579" cy="5.432" rx="31.579" ry="5.432" transform="translate(168.609 194.942)" fill="#f17f07" opacity="0.1"/>
    <ellipse id="Ellipse_55" data-name="Ellipse 55" cx="46.752" cy="3.307" rx="46.752" ry="3.307" transform="translate(57.823 191.754)" fill="#f17f07" opacity="0.1"/>
    <path id="Path_536" data-name="Path 536" d="M212.186,49.164c8.373-7.462,21.516-8.981,33.47-8.386,37.571,1.859,71.485,20,100.821,40.52,10.625,7.438,21.075,15.431,27.969,25.66,14.033,20.82,9.871,49.674-9.642,66.815-6.641,5.844-14.687,10.309-22.951,14.275-14.69,7.053-30.548,12.713-47.214,14.323-11.89,1.15-23.928.215-35.749-1.387-33.024-4.479-65.439-14.384-92.6-31.329-11.916-7.438-23.15-16.671-28.062-28.688s-1.766-27.259,10.4-34.376c5.047-2.943,11.05-4.271,16.942-5.52,8.67-1.838,17.481-3.65,25.307-7.385,8.086-3.862,17.649-11.324,16.055-19.861C205.2,64.658,203.824,56.615,212.186,49.164Z" transform="translate(-135.781 -40.66)" fill="#f17f07" opacity="0.1"/>
    <line id="Line_10" data-name="Line 10" x1="2" transform="translate(41.564 46.994)" fill="#f17f07"/>
    <g id="Group_126" data-name="Group 126" transform="translate(63.5 31.022)" opacity="0.1">
      <path id="Path_537" data-name="Path 537" d="M421.132,564a5.25,5.25,0,0,0,4.42,2.853c3.076,0,5.578-3.259,5.578-7.284s-2.51-7.257-5.578-7.257a4.917,4.917,0,0,0-3.759,1.91,7.2,7.2,0,0,0-.948,1.485l-.053.316a2.454,2.454,0,0,1-2.805.082V532.513H394.951a1.86,1.86,0,0,1-.279-1.737,2.221,2.221,0,0,1,1.039-1.267,5.254,5.254,0,0,0,2.856-4.42c0-3.076-3.262-5.578-7.284-5.578S384,522,384,525.088a4.925,4.925,0,0,0,1.913,3.761,7.243,7.243,0,0,0,1.482.946l.032.053a2.266,2.266,0,0,1,.444,2.656H377.48V576.2a10.36,10.36,0,0,0,10.36,10.36h30.155V563.372a1.836,1.836,0,0,1,1.878-.4A2.2,2.2,0,0,1,421.132,564Z" transform="translate(-376.611 -423.332)"/>
      <path id="Path_538" data-name="Path 538" d="M379.961,266.018h3.607a7.281,7.281,0,0,1-2.845-5.714,7.8,7.8,0,0,1,8.067-7.5c4.455,0,8.07,3.355,8.07,7.5a7.281,7.281,0,0,1-2.845,5.714h21.623V242.74a1.859,1.859,0,0,1,1.878-.4,2.213,2.213,0,0,1,1.27,1.039,5.244,5.244,0,0,0,4.42,2.853c3.076,0,5.578-3.259,5.578-7.281s-2.492-7.284-5.578-7.284a4.926,4.926,0,0,0-3.761,1.91,7.338,7.338,0,0,0-.948,1.485l-.05.032a2.269,2.269,0,0,1-2.808.375V211.881H393.46a1.859,1.859,0,0,1-.279-1.737,2.208,2.208,0,0,1,1.039-1.267,5.247,5.247,0,0,0,2.853-4.42c0-3.076-3.259-5.578-7.281-5.578s-7.284,2.494-7.284,5.578a4.926,4.926,0,0,0,1.91,3.761,7.34,7.34,0,0,0,1.485.948l.032.05a2.266,2.266,0,0,1,.444,2.656h-6.418v-1.2H384.7a7.278,7.278,0,0,1-2.842-5.7,8.09,8.09,0,0,1,16.137,0,7.279,7.279,0,0,1-2.856,5.711h20.48V187.124a1.844,1.844,0,0,1,1.881-.4,2.215,2.215,0,0,1,1.267,1.039,5.247,5.247,0,0,0,4.42,2.853c3.076,0,5.578-3.259,5.578-7.284s-2.492-7.281-5.578-7.281a4.918,4.918,0,0,0-3.761,1.91,7.2,7.2,0,0,0-.948,1.485l-.05.316a2.457,2.457,0,0,1-2.808.082V157.87H385.478a10.36,10.36,0,0,0-10.36,10.36v11.215h-.157a.608.608,0,0,0-.608.608v5.313a.611.611,0,0,0,.608.608h.157V191.4h-.2a.611.611,0,0,0-.611.608v10.145a.611.611,0,0,0,.611.608h.2v3.984h-.167a.608.608,0,0,0-.608.608v3.267h-.133V217.5a.606.606,0,0,0,.608.608H375v47.9Z" transform="translate(-374.21 -157.756)"/>
      <path id="Path_539" data-name="Path 539" d="M579.189,195.176a.611.611,0,0,0-.608-.611h-.367V193.9h-.2V167.4a9.959,9.959,0,0,0-9.961-9.961H538.17v20.188a7.371,7.371,0,0,1,5.844-2.935,8.09,8.09,0,0,1,0,16.145,7.366,7.366,0,0,1-5.844-2.935v22.4h24.173a7.3,7.3,0,0,1-2.84-5.719,7.794,7.794,0,0,1,8.054-7.507,8.354,8.354,0,0,1,5.411,1.95,7.1,7.1,0,0,1,0,11.09v.178h5.246v-.019h.975Z" transform="translate(-494.617 -157.44)"/>
      <path id="Path_540" data-name="Path 540" d="M570.371,530.555V527.9h0a5.07,5.07,0,0,0,.3-.5,4.425,4.425,0,0,0,.547-2.112,4.346,4.346,0,0,0-.25-1.445,4.783,4.783,0,0,0-.6-1.164h0a7.806,7.806,0,0,0-6.434-2.962c-4.024,0-7.284,2.494-7.284,5.578a4.926,4.926,0,0,0,1.91,3.761,7.337,7.337,0,0,0,1.485.948l.032.05a2.269,2.269,0,0,1,.444,2.656H537.09V554.5a7.281,7.281,0,0,1,5.783-2.922,7.8,7.8,0,0,1,7.5,8.067c0,4.455-3.355,8.07-7.5,8.07a7.281,7.281,0,0,1-5.783-2.922v17.582h26.89A6.391,6.391,0,0,0,570.371,576V532.723h0v43.245a6.391,6.391,0,0,1-6.391,6.391H537.09v4.25h27.892a10.36,10.36,0,0,0,10.36-10.36V532.723h0v-1.142h-4.97Z" transform="translate(-493.823 -423.486)"/>
    </g>
    <path id="Path_541" data-name="Path 541" d="M389.841,614.24a6.391,6.391,0,0,1-6.391-6.391V564.46h-4.97v43.683a10.36,10.36,0,0,0,10.36,10.36h30.155v-4.25Z" transform="translate(-313.846 -425.32)" fill="#3a3768"/>
    <path id="Path_542" data-name="Path 542" d="M434.594,558.973a2.2,2.2,0,0,1,1.267,1.039,5.25,5.25,0,0,0,4.42,2.853c3.076,0,5.578-3.259,5.578-7.284s-2.5-7.268-5.568-7.268a4.917,4.917,0,0,0-3.759,1.91,7.2,7.2,0,0,0-.948,1.485l-.053.316a2.454,2.454,0,0,1-2.805.082V528.513H409.691a1.859,1.859,0,0,1-.279-1.737,2.221,2.221,0,0,1,1.039-1.267,5.254,5.254,0,0,0,2.856-4.42c0-3.076-3.262-5.578-7.284-5.578s-7.284,2.494-7.284,5.578a4.925,4.925,0,0,0,1.913,3.761,7.244,7.244,0,0,0,1.482.946l.032.053a2.266,2.266,0,0,1,.444,2.656H397.19v43.4a6.391,6.391,0,0,0,6.391,6.391h29.153V559.372A1.836,1.836,0,0,1,434.594,558.973Z" transform="translate(-327.586 -389.373)" fill="#f17f07"/>
    <rect id="Rectangle_206" data-name="Rectangle 206" width="0.789" height="1.286" transform="translate(63.757 82.802)" fill="#3a3768"/>
    <rect id="Rectangle_207" data-name="Rectangle 207" width="4.311" height="1.286" transform="translate(65.205 82.802)" fill="#3a3768"/>
    <rect id="Rectangle_208" data-name="Rectangle 208" width="0.659" height="1.286" transform="translate(64.546 82.802)" fill="#3a3768"/>
    <path id="Path_543" data-name="Path 543" d="M537.09,566.33" transform="translate(-430.324 -426.693)" fill="#f17f07"/>
    <path id="Path_544" data-name="Path 544" d="M375.766,363.411h.181V357.2h-.8v5.6a.606.606,0,0,0,.616.608Z" transform="translate(-311.4 -273.115)" fill="#3a3768"/>
    <path id="Path_545" data-name="Path 545" d="M383.12,357.2h-4.311v5.6a.608.608,0,0,1-.611.608h-.048v47.926h4.97Z" transform="translate(-313.604 -273.115)" fill="#3a3768"/>
    <path id="Path_546" data-name="Path 546" d="M378.15,363.411h.048a.608.608,0,0,0,.611-.608v-5.6h-.659Z" transform="translate(-313.604 -273.115)" fill="#3a3768"/>
    <path id="Path_547" data-name="Path 547" d="M397.622,369.665a7.8,7.8,0,0,1,8.067-7.5c4.455,0,8.07,3.355,8.07,7.5a7.281,7.281,0,0,1-2.845,5.724h21.623V352.112a1.859,1.859,0,0,1,1.878-.4,2.213,2.213,0,0,1,1.27,1.039,5.244,5.244,0,0,0,4.42,2.853c3.076,0,5.578-3.259,5.578-7.281s-2.492-7.284-5.578-7.284a4.926,4.926,0,0,0-3.761,1.91,7.339,7.339,0,0,0-.948,1.485l-.05.032a2.269,2.269,0,0,1-2.808.375V321.253H410.36a1.859,1.859,0,0,1-.279-1.737,2.207,2.207,0,0,1,1.039-1.267,5.247,5.247,0,0,0,2.853-4.42c0-3.076-3.259-5.578-7.281-5.578s-7.284,2.494-7.284,5.578a4.927,4.927,0,0,0,1.91,3.761,7.339,7.339,0,0,0,1.485.948l.032.051a2.266,2.266,0,0,1,.444,2.656H396.86v54.144h3.607A7.281,7.281,0,0,1,397.622,369.665Z" transform="translate(-327.344 -237.168)" fill="#f17f07"/>
    <path id="Path_548" data-name="Path 548" d="M379.309,338.058a.608.608,0,0,0-.611-.608h-.048v3.963h.659Z" transform="translate(-313.971 -258.612)" fill="#3a3768"/>
    <path id="Path_549" data-name="Path 549" d="M376.511,235.07h-.133a.608.608,0,0,0-.608.608v5.313a.611.611,0,0,0,.608.608h.157v-6.527Z" transform="translate(-311.856 -183.427)" fill="#3a3768"/>
    <path id="Path_550" data-name="Path 550" d="M376.191,280.05a.611.611,0,0,0-.611.608V290.8a.611.611,0,0,0,.611.608h.2V280.05Z" transform="translate(-311.716 -216.459)" fill="#3a3768"/>
    <path id="Path_551" data-name="Path 551" d="M376.491,337.78h-.173a.608.608,0,0,0-.608.608v3.355h.8Z" transform="translate(-311.812 -258.854)" fill="#3a3768"/>
    <path id="Path_552" data-name="Path 552" d="M378.635,164.227v11.215a.606.606,0,0,1,.584.606v5.313a.608.608,0,0,1-.584.606v5.424h.093a.608.608,0,0,1,.608.608v10.145a.608.608,0,0,1-.608.608h-.1v3.985h.048a.611.611,0,0,1,.611.608v3.342H383.6V164.53a6.391,6.391,0,0,1,6.389-6.391h8.662v1.11a5.262,5.262,0,0,0,5.262,5.262h15.239v-3.474h-7.015a1.033,1.033,0,0,1-1.028-1.023v-.223a1.031,1.031,0,0,1,1.028-1.028h7V153.87H388.99a10.36,10.36,0,0,0-10.354,10.357Z" transform="translate(-313.956 -123.797)" fill="#3a3768"/>
    <path id="Path_553" data-name="Path 553" d="M379.234,240.988v-5.313a.606.606,0,0,0-.584-.606v6.521a.608.608,0,0,0,.584-.6Z" transform="translate(-313.971 -183.427)" fill="#3a3768"/>
    <path id="Path_554" data-name="Path 554" d="M379.357,290.8V280.658a.608.608,0,0,0-.608-.608h-.1v11.361h.093a.608.608,0,0,0,.614-.608Z" transform="translate(-313.971 -216.459)" fill="#3a3768"/>
    <path id="Path_555" data-name="Path 555" d="M399.124,212.754a8.09,8.09,0,0,1,16.137,0,7.278,7.278,0,0,1-2.856,5.711h20.48V194.9a1.843,1.843,0,0,1,1.881-.4,2.215,2.215,0,0,1,1.267,1.039,5.247,5.247,0,0,0,4.42,2.853c3.076,0,5.578-3.259,5.578-7.284s-2.492-7.281-5.578-7.281a4.918,4.918,0,0,0-3.761,1.91,7.2,7.2,0,0,0-.948,1.485l-.05.316a2.457,2.457,0,0,1-2.808.082V176.283H417.655a5.262,5.262,0,0,1-5.249-5.262v-1.11h-8.657a6.391,6.391,0,0,0-6.389,6.4v42.156h4.606a7.278,7.278,0,0,1-2.842-5.711Z" transform="translate(-327.711 -135.576)" fill="#f17f07"/>
    <path id="Path_556" data-name="Path 556" d="M501.928,172.26a1.031,1.031,0,0,0-1.028,1.028v.231a1.033,1.033,0,0,0,1.028,1.031h7v-2.282Z" transform="translate(-403.747 -137.302)" fill="#e6e8ec"/>
    <path id="Path_557" data-name="Path 557" d="M683.17,291.325v15.768h1.793v-16.4h-.969A.748.748,0,0,0,683.17,291.325Z" transform="translate(-537.6 -224.273)" fill="#3a3768"/>
    <rect id="Rectangle_209" data-name="Rectangle 209" width="2.125" height="4.781" transform="translate(107.319 29.959)" fill="#3a3768"/>
    <rect id="Rectangle_210" data-name="Rectangle 210" width="2.125" height="3.453" transform="translate(107.319 37.131)" fill="#3a3768"/>
    <rect id="Rectangle_211" data-name="Rectangle 211" width="2.125" height="2.391" transform="translate(107.319 34.741)" fill="#e6e8ec"/>
    <path id="Path_558" data-name="Path 558" d="M689.919,293.2h-.5v15.718h1.108V293.811A.611.611,0,0,0,689.919,293.2Z" transform="translate(-542.19 -226.116)" fill="#3a3768"/>
    <path id="Path_559" data-name="Path 559" d="M546.433,158.221c.566.128,1.063,1.158,1.063,1.158v.223s-.5,1.028-1.063,1.009h0v3.453h12A5.265,5.265,0,0,0,563.7,158.8v-1.11h9.032a6.389,6.389,0,0,1,6.375,6.389v30.949a7.1,7.1,0,0,1,0,11.09v.178h3.719v-15.59a.077.077,0,0,1,.08-.077h1.248V163.4a9.959,9.959,0,0,0-9.961-9.961H546.17v4.781Zm4.022-.024a1.294,1.294,0,1,1-1.294,1.294A1.294,1.294,0,0,1,550.455,158.2Z" transform="translate(-436.992 -123.481)" fill="#3a3768"/>
    <path id="Path_560" data-name="Path 560" d="M544.964,182.44a8.09,8.09,0,0,1,0,16.145,7.366,7.366,0,0,1-5.844-2.935v22.4h24.173a7.3,7.3,0,0,1-2.84-5.719,7.794,7.794,0,0,1,8.054-7.507,8.355,8.355,0,0,1,5.424,1.952V175.829a6.389,6.389,0,0,0-6.375-6.389h-9.031v1.11a5.265,5.265,0,0,1-5.262,5.265H539.133v9.563a7.371,7.371,0,0,1,5.831-2.938Z" transform="translate(-431.814 -135.231)" fill="#f17f07"/>
    <path id="Path_561" data-name="Path 561" d="M546.426,173.831a1.063,1.063,0,0,0,1.063-1.009V172.6a1.328,1.328,0,0,0-1.063-1.158h-.266v2.391Z" transform="translate(-436.984 -136.699)" fill="#e6e8ec"/>
    <circle id="Ellipse_56" data-name="Ellipse 56" cx="1.294" cy="1.294" r="1.294" transform="translate(111.979 34.934) rotate(-9.22)" fill="#e6e8ec"/>
    <path id="Path_562" data-name="Path 562" d="M663.38,534.743v-2.656a4.439,4.439,0,0,0,0-5.217Z" transform="translate(-523.067 -397.715)" fill="#3a3768"/>
    <rect id="Rectangle_212" data-name="Rectangle 212" width="4.97" height="1.142" transform="translate(140.313 138.054)" fill="#3a3768"/>
    <path id="Path_563" data-name="Path 563" d="M652.674,548.327a2.215,2.215,0,0,0-1.039,1.267,1.86,1.86,0,0,0,.279,1.74h2.765v-1.142h-1.062a7.966,7.966,0,0,0,1.063-1.025V546.51A6.293,6.293,0,0,1,652.674,548.327Z" transform="translate(-514.366 -412.138)" fill="#f17f07"/>
    <path id="Path_564" data-name="Path 564" d="M659.36,557.535h1.063V556.51A7.956,7.956,0,0,1,659.36,557.535Z" transform="translate(-520.115 -419.482)" fill="#f17f07"/>
    <path id="Path_565" data-name="Path 565" d="M664.227,529.5a4.534,4.534,0,0,0-.847-2.609V532.1a4.546,4.546,0,0,0,.847-2.606Z" transform="translate(-523.067 -397.73)" fill="#3a3768"/>
    <path id="Path_566" data-name="Path 566" d="M576.341,564.67v43.54a10.36,10.36,0,0,1-10.36,10.36H538.09v-4.25h26.89a6.391,6.391,0,0,0,6.391-6.391V564.67Z" transform="translate(-431.058 -425.474)" fill="#3a3768"/>
    <path id="Path_567" data-name="Path 567" d="M568.327,527a2.216,2.216,0,0,1,1.039-1.267,6.291,6.291,0,0,0,2.006-1.814V518.7a7.806,7.806,0,0,0-6.434-2.962c-4.024,0-7.284,2.494-7.284,5.578a4.926,4.926,0,0,0,1.91,3.761,7.341,7.341,0,0,0,1.485.948l.032.051a2.268,2.268,0,0,1,.444,2.656H538.09v21.782a7.281,7.281,0,0,1,5.783-2.922,7.8,7.8,0,0,1,7.5,8.067c0,4.455-3.355,8.07-7.5,8.07a7.281,7.281,0,0,1-5.783-2.922v17.582h26.89a6.391,6.391,0,0,0,6.391-6.375v-43.28h-2.757A1.86,1.86,0,0,1,568.327,527Z" transform="translate(-431.058 -389.542)" fill="#f17f07"/>
    <path id="Path_568" data-name="Path 568" d="M842.18,286.337a5.016,5.016,0,0,0,2.954-3.23,4.079,4.079,0,0,0,.1-.531,4.751,4.751,0,0,0,.17-.507,4.886,4.886,0,0,0-1.015-4.218l-1.942,7.438h0Z" transform="translate(-654.371 -214.843)" fill="url(#linear-gradient)"/>
    <path id="Path_569" data-name="Path 569" d="M754.538,205.793c-.3-1.777-5.913-5.626-5.913-5.626a15.747,15.747,0,0,1-3.791-2.864c-.839-.977-1.1-.967-1.182-.834a.4.4,0,0,0-.181-.061c-.053-.037-.1-.072-.151-.112h0a.359.359,0,0,0-.21-.364c-.064-.037-.127-.085-.191-.13a6.023,6.023,0,0,1-.627-2.609c-.064-1.113-1.328-.834-1.761-.709-.3-.558-.587-1.137-.861-1.716a3.153,3.153,0,0,0,.3-.6c.781-1.7.611-3.644.951-5.44a15.784,15.784,0,0,0,.654-3.921v-.074a3.363,3.363,0,0,0-.215-.924c-.226-.568-.619-1.063-.8-1.65-.284-.858-.1-1.8-.34-2.672a3.993,3.993,0,0,0-2.277-2.436,11.313,11.313,0,0,0-3.376-.8c-2.882-.361-5.945-.576-8.575.635a1.54,1.54,0,0,1-.8.215,2.447,2.447,0,0,1-.728-.337,2.214,2.214,0,0,0-2.226.34,6.4,6.4,0,0,0-1.48,1.8,5.589,5.589,0,0,1-1.527,1.756c-.768.513-1.782.685-2.391,1.376a2.223,2.223,0,0,0-.494,1.148v-.019a1.424,1.424,0,0,0,0,.151v.558a7.253,7.253,0,0,0,.513,1.886,2.624,2.624,0,0,0,.7,1.185c.924.752,2.391.042,3.506.462.1.035.191.08.284.122a.533.533,0,0,1-.042.13,8.815,8.815,0,0,0-.359,2.5,9.142,9.142,0,0,0,9.249,9.032,5.063,5.063,0,0,0,.568-.021c.027.1.056.2.08.295a9.792,9.792,0,0,1,.266,3.379l-.056-.494a2.448,2.448,0,0,0-.385-.146,3.437,3.437,0,0,0-1.148-.175c-1.256-.016-3.148.489-5.167,2.938,0,0-2.577,1.432-3.334,1.777a.356.356,0,0,0-.141.159h0s-3.445,5.2-3.8,7.183-.8,4.25-.8,4.25-.861,2.566-1.416,3.7a12.211,12.211,0,0,0-1.11,2.715,2.343,2.343,0,0,1-.861,2.269,4.219,4.219,0,0,0-1.328,2.566s-.531.5-1.283,1.132h-.027l2.776-10.644.5.125a.638.638,0,0,0,.654-.223.594.594,0,0,0,.109-.22l.56-2.157.226-.858.045-.175.327-1.251-1.105-.266-1.294-.321-3.655-.922.319-1.222h0l.266-1.036h0l1.671-6.412h0l.266-1.033a8.755,8.755,0,0,0-4.835-3.012c-4.011-1-7.895.624-8.676,3.618a4.075,4.075,0,0,0-.1.531,3.881,3.881,0,0,0-.167.5,4.27,4.27,0,0,0-.106,1.594q.016.13.04.266a5.467,5.467,0,0,0,1.017,2.276,7.256,7.256,0,0,0,1.241,1.288l.019.058a2.424,2.424,0,0,1,.348,1.063c0,.053,0,.109,0,.165a2.442,2.442,0,0,1-.319.446l-24.507-6.091-.266,1.033h0l-5.52,21.211h0a8,8,0,0,1,2.391-1.262,7.793,7.793,0,0,1,1.036-.266l.125-.021a7.4,7.4,0,0,1,2.97.122,7.6,7.6,0,0,1,5.637,6.511,7.915,7.915,0,0,1,.066,1.182,8.331,8.331,0,0,1-.159,1.5,8,8,0,0,1-9.372,5.483,7.438,7.438,0,0,1-5.021-4.29l-.266,1.036h0l-5.7,21.769,21.7,5.4h0l.234-1.044h.035a7.212,7.212,0,0,1-1.5-5.743.3.3,0,0,1,.035-.1c.026-.077.056-.151.085-.226a7.314,7.314,0,0,1,.531-1.049c.106-.173.218-.34.337-.5q.112-.151.231-.295a7.545,7.545,0,0,1,1.3-1.238l.154-.112c.175-.125.356-.244.531-.356.109-.064.221-.128.332-.186a8.614,8.614,0,0,1,4.176-1,9.165,9.165,0,0,1,2.072.266,8.591,8.591,0,0,1,5.124,3.562,7.783,7.783,0,0,1,.436.744,7.274,7.274,0,0,1,.752,2.428,6.878,6.878,0,0,1-.053,2.032,7.231,7.231,0,0,1-2.81,3.637l-.266,1h.029l-.04.029-.266,1,4.957,1.233,7.021-26.842a4.281,4.281,0,0,0,2.864-1.185,13.891,13.891,0,0,1,3.538-1.729c.627-.17,1.352-.292,1.929-.414-.68,3.376-1.328,6.641-1.27,6.832.019.074.141-.042.327-.3a1.435,1.435,0,0,0-.024.3c0,.05.072.013.165-.09l-.013.064s-3.942,7.626-4.25,8.5.074,3.111,1.288,3.852a2.6,2.6,0,0,1,.622.55l-.143.284a5.749,5.749,0,0,0-.781,2.571,3.482,3.482,0,0,1-.531,2.3s-3.413,10.548-3.336,13.585a66.576,66.576,0,0,1-1.214,9.7s-1.4,4.293-.568,5.515,1.782,6.553,1.782,6.553a5.407,5.407,0,0,1,.606,2.258,11.167,11.167,0,0,0,.608,2.922l2.125,7.661a6.8,6.8,0,0,0,.568,3.48c.8,1.442.72,1,.34,3.517s.457,4.848,1.82,5.578a.833.833,0,0,1,.393,1.153h0c-.348-.135-.638.584-.81,1.166l-.175.167.117.029c-.074.266-.117.489-.117.489s-3.562,2.962-3.791,4.035-2.731,1.628-2.731,1.628a44.025,44.025,0,0,0-4.781,1.554,1.806,1.806,0,0,0-1.047,1.437,3.943,3.943,0,0,0,.138,1.45c.377,1.517,5.685,1.666,8.235,1.259s7.807-1.889,7.807-1.889,5.536-.531,7.172-1.185.34-2.369.34-2.369v-.159c.04-.619.154-2.864-.239-3.453a5.019,5.019,0,0,1-.244-2.316c1.108-1.992-1.27-7.969-1.27-7.969s.454-5.844.151-6.7-1.594-8.107-1.594-8.107-.8-3.294-.491-3.849-.191-2.149-.191-2.149-1.3-1.772-1.182-2.33a3.318,3.318,0,0,0-.38-1.554s3.868-5.775,3.525-6.848a6.17,6.17,0,0,1,.154-2.813s.486-.818,1.063-1.8c.717-1.2,1.594-2.638,1.881-3.087a38.771,38.771,0,0,0,1.766-4.4c.213-.6.356-1,.356-1s.606,10.891,1.137,11.993,1.328,9.884,1.328,9.884a6.009,6.009,0,0,1,.38,2.444,60.874,60.874,0,0,0,1.214,7.329s.568,4.218.189,5.329-.074,9.3-.074,9.3A10.573,10.573,0,0,0,729,321.225c-.531,1.219.074,4.553.074,4.553l.244.114a7.019,7.019,0,0,0-.433,1.44c-.074.7-1.214,3.889-1.1,4.332a16.968,16.968,0,0,1-.568,2.516c-.077.7-1.023,1.74-1.1,2.112a9.059,9.059,0,0,1-.417.975,9.288,9.288,0,0,0-.491,1.5c-.38,1.557,4.131,1.814,4.131,1.814,6.673,1.222,7.887-3.775,7.887-3.775a37.2,37.2,0,0,1,1.137-4.781.531.531,0,0,0,.051-.422h0a5.631,5.631,0,0,0-.962-2.091,2.489,2.489,0,0,1-.191-1.45,3.358,3.358,0,0,0,.571-.106c2.691-.776,1.594-5.257,1.594-5.257s1.82-2.959,1.82-4.107a45.483,45.483,0,0,1,.645-4.665c2.314-4.147,1.4-14.214,1.782-15.03s-.8-3.849-1.745-5.22-.568-5.071,0-6.144-.568-4.781-.568-4.781,1.1-7.172,1.063-8.293a24.081,24.081,0,0,1,.948-4.4s.986-1.7.757-2.221.757-1.859.494-2.444.226-2.407.72-3.48a19.736,19.736,0,0,0,.8-3.411c.026-.149.053-.3.077-.444,1.105.7,2.125,1.219,2.486,1.078.677-.266-.4-3.719-1.14-5.87.128-.1.181-.167.128-.2-.454-.3.05-1.631.05-1.631,2.68-1.578,1.769-2.763.911-3.453s-.3-2.656-.558-3.453.305-4.391.76-7.007a5.018,5.018,0,0,0-.013-1.716c.486-.741.988-1.517,1.429-2.234,1.514-2.468,4.75-14.214,4.75-14.214L755,219.3c.316-.624.553-1.132.68-1.469C756.661,215.279,754.841,207.576,754.538,205.793Zm-23.556-6.763.069-.032v.056Zm-48.3,61.893Zm33.595,64.111a1.214,1.214,0,0,1-.481-.1Z" transform="translate(-521.906 -137.092)" fill="url(#linear-gradient-2)"/>
    <path id="Path_570" data-name="Path 570" d="M754.787,410.314c2.186.829,7.268.919,9.526.919h1.11l1.448-2.949-1.448-2.457s-1.328-.367-3.092-.685c-2.6-.468-6.165-.834-7.863.218C751.62,407.121,751.939,409.233,754.787,410.314Z" transform="translate(-588.503 -307.983)" fill="#fec2be"/>
    <path id="Path_571" data-name="Path 571" d="M791.529,412.511h1.11l1.448-2.949-1.445-2.457s-1.328-.367-3.092-.685C790.982,407.472,794.424,409.762,791.529,412.511Z" transform="translate(-615.722 -309.261)" opacity="0.1"/>
    <path id="Path_572" data-name="Path 572" d="M814.726,291.079l-.638-.738s-3.291,5.206-3.637,7.172-.8,4.224-.8,4.224-.834,2.555-1.376,3.684a12.219,12.219,0,0,0-1.078,2.7,2.371,2.371,0,0,1-.837,2.261,4.186,4.186,0,0,0-1.275,2.555s-3.735,3.634-5.7,3.719-7.613,1.081-7.416,2.064-2.356,1.57-3.39,1.817,6.641,3.188,2.162,6.976c0,0,2.848.59,3.142,1.275s3.291-.391,3.291-.391a3.114,3.114,0,0,1,2.85-1.623c2.21-.1,3.339-1.081,3.339-1.227a12.488,12.488,0,0,1,3.453-1.719c1.243-.343,2.848-.491,2.9-.837s7.369-31.927,7.369-31.927Z" transform="translate(-614.94 -224.016)" fill="#4c4981"/>
    <path id="Path_573" data-name="Path 573" d="M814.726,291.079l-.638-.738s-3.291,5.206-3.637,7.172-.8,4.224-.8,4.224-.834,2.555-1.376,3.684a12.219,12.219,0,0,0-1.078,2.7,2.371,2.371,0,0,1-.837,2.261,4.186,4.186,0,0,0-1.275,2.555s-3.735,3.634-5.7,3.719-7.613,1.081-7.416,2.064-2.356,1.57-3.39,1.817,6.641,3.188,2.162,6.976c0,0,2.848.59,3.142,1.275s3.291-.391,3.291-.391a3.114,3.114,0,0,1,2.85-1.623c2.21-.1,3.339-1.081,3.339-1.227a12.488,12.488,0,0,1,3.453-1.719c1.243-.343,2.848-.491,2.9-.837s7.369-31.927,7.369-31.927Z" transform="translate(-614.94 -224.016)" opacity="0.05"/>
    <path id="Path_574" data-name="Path 574" d="M904.939,763.706c6.484,1.217,7.663-3.759,7.663-3.759a37.338,37.338,0,0,1,1.105-4.752.531.531,0,0,0,.05-.42h0a5.784,5.784,0,0,0-.935-2.083c-.4-.478-.074-2.468-.074-2.468l-7.515-1.915a11.242,11.242,0,0,0-.736,2.21c-.072.7-1.179,3.868-1.062,4.311a16.609,16.609,0,0,1-.553,2.5c-.074.7-.993,1.732-1.063,2.1a8.7,8.7,0,0,1-.406.972,9.745,9.745,0,0,0-.478,1.5C900.556,763.448,904.939,763.706,904.939,763.706Z" transform="translate(-697.502 -560.333)" fill="#ca8496"/>
    <path id="Path_575" data-name="Path 575" d="M904.906,781.581c6.484,1.217,7.664-3.759,7.664-3.759a37.334,37.334,0,0,1,1.105-4.752.532.532,0,0,0,.05-.42l-1.562,4.473s-1.288,2.688-6.078,2.284a11.242,11.242,0,0,1-4.718-1.129,9.729,9.729,0,0,0-.478,1.5C900.523,781.323,904.906,781.581,904.906,781.581Z" transform="translate(-697.47 -578.208)" opacity="0.1"/>
    <path id="Path_576" data-name="Path 576" d="M930.282,776.358s-1.62.037-1.732-1.288Z" transform="translate(-717.799 -579.985)" opacity="0.1"/>
    <path id="Path_577" data-name="Path 577" d="M609.732,467.07l1.028.263-.226,1.044-.954-.242Z" transform="translate(-447.655 -342.999)" fill="#f17f07"/>
    <path id="Path_578" data-name="Path 578" d="M609.732,467.07l1.028.263-.226,1.044-.954-.242Z" transform="translate(-447.655 -342.999)" opacity="0.1"/>
    <rect id="Rectangle_213" data-name="Rectangle 213" width="1.286" height="1.108" transform="translate(192.269 76.711) rotate(-75.72)" fill="#3a3768"/>
    <rect id="Rectangle_214" data-name="Rectangle 214" width="1.286" height="3.674" transform="translate(187.449 75.483) rotate(-75.72)" fill="#3a3768"/>
    <rect id="Rectangle_215" data-name="Rectangle 215" width="1.286" height="1.299" transform="translate(191.008 76.392) rotate(-75.72)" fill="#3a3768"/>
    <path id="Path_579" data-name="Path 579" d="M836.471,313.785c-.085.04-.167.082-.25.117l.207.053-.319,1.246-1.575-.4a1.859,1.859,0,0,1,.162-1.751,2.2,2.2,0,0,1,1.328-.972,6.9,6.9,0,0,0,.985-.367Z" transform="translate(-648.649 -239.709)" fill="#f17f07"/>
    <path id="Path_580" data-name="Path 580" d="M856.38,332.228l.481.125a.608.608,0,0,0,.741-.441l.536-2.146-1.062-.266Z" transform="translate(-664.799 -252.773)" fill="#3a3768"/>
    <path id="Path_581" data-name="Path 581" d="M847.062,288.007a4.952,4.952,0,0,1-2.872,3.214l1.886-7.411A4.9,4.9,0,0,1,847.062,288.007Z" transform="translate(-655.848 -219.22)" fill="#3a3768"/>
    <path id="Path_582" data-name="Path 582" d="M807.213,328.643a.608.608,0,0,1-.438-.738l.547-2.149-3.56-.906-10.856,42.645a7.082,7.082,0,0,1-2.314,9.09l-.252.993,4.816,1.235,12.727-49.99Z" transform="translate(-616.302 -249.359)" fill="#3a3768"/>
    <path id="Path_583" data-name="Path 583" d="M852.158,330.409a.608.608,0,0,0,.438.738l.669.17.7-2.736-1.256-.321Z" transform="translate(-661.685 -251.863)" fill="#3a3768"/>
    <path id="Path_584" data-name="Path 584" d="M713.173,283.466a2.219,2.219,0,0,1,1.328-.972,7.083,7.083,0,0,0,.983-.367l1.889-7.411a8.444,8.444,0,0,0-4.7-3c-3.9-.994-7.674.619-8.431,3.6a4.92,4.92,0,0,0,.924,4.117,7.167,7.167,0,0,0,1.2,1.283l.019.058a2.269,2.269,0,0,1-.228,2.694l-23.817-6.064-5.374,21.113a7.289,7.289,0,0,1,6.309-1.418,8.1,8.1,0,0,1-3.971,15.651,7.286,7.286,0,0,1-4.88-4.269l-5.517,21.665,21.1,5.368a7.273,7.273,0,0,1-1.349-6.237A7.8,7.8,0,0,1,698.326,324a8.306,8.306,0,0,1,5.406,4.258l10.856-42.645-1.559-.4a1.86,1.86,0,0,1,.143-1.751Z" transform="translate(-527.128 -210.126)" fill="#f17f07"/>
    <path id="Path_585" data-name="Path 585" d="M841.495,319.69l.045-.17c-.082.04-.165.082-.25.12Z" transform="translate(-653.718 -245.444)" fill="#f17f07"/>
    <g id="Group_127" data-name="Group 127" transform="translate(141.782 61.3)" opacity="0.1">
      <path id="Path_586" data-name="Path 586" d="M719.72,285.6l-1.256-.321-3.557-.906h0l.045-.17h0l.531-2.075a6.908,6.908,0,0,1-.985.367,2.2,2.2,0,0,0-1.328.972,2.566,2.566,0,0,0-.2.42,2.552,2.552,0,0,1,.194-.42,2.218,2.218,0,0,1,1.328-.972,7.076,7.076,0,0,0,.983-.367l1.889-7.411a8.444,8.444,0,0,0-4.7-3c-3.9-.994-7.674.619-8.431,3.6a4.921,4.921,0,0,0,.924,4.117,7.171,7.171,0,0,0,1.2,1.283l.019.058a2.268,2.268,0,0,1-.228,2.694l-23.817-6.064-5.374,21.113a7.289,7.289,0,0,1,6.314-1.418,8.1,8.1,0,0,1-3.971,15.651,7.286,7.286,0,0,1-4.88-4.269l-5.517,21.665,21.1,5.368a7.273,7.273,0,0,1-1.349-6.237A7.8,7.8,0,0,1,698.326,324a8.306,8.306,0,0,1,5.406,4.258,7.082,7.082,0,0,1-2.314,9.09l-.252.993,4.816,1.235,12.727-49.99.481.125a.608.608,0,0,0,.741-.441l.537-2.157.316-1.246Zm-4.9-1.328c-.04.019-.08.04-.119.056h0Zm-1.806.954h0l1.575.4h0Z" transform="translate(-668.91 -271.426)"/>
      <path id="Path_587" data-name="Path 587" d="M847.062,288.007a4.959,4.959,0,0,0-.986-4.2l-1.886,7.411A4.918,4.918,0,0,0,847.062,288.007Z" transform="translate(-797.63 -280.52)"/>
    </g>
    <rect id="Rectangle_216" data-name="Rectangle 216" width="1.286" height="1.108" transform="translate(192.529 75.684) rotate(-75.72)" fill="#3a3768"/>
    <rect id="Rectangle_217" data-name="Rectangle 217" width="1.286" height="3.674" transform="translate(187.71 74.456) rotate(-75.72)" fill="#3a3768"/>
    <rect id="Rectangle_218" data-name="Rectangle 218" width="1.286" height="1.299" transform="translate(191.269 75.36) rotate(-75.72)" fill="#3a3768"/>
    <path id="Path_588" data-name="Path 588" d="M837.452,309.927l-.25.12.2.051-.316,1.254-1.575-.4a1.844,1.844,0,0,1,.159-1.751,2.21,2.21,0,0,1,1.328-.972,6.873,6.873,0,0,0,.983-.367Z" transform="translate(-649.367 -236.882)" fill="#f17f07"/>
    <path id="Path_589" data-name="Path 589" d="M857.36,328.351l.483.122a.608.608,0,0,0,.749-.441l.547-2.146-1.062-.266Z" transform="translate(-665.519 -249.924)" fill="#3a3768"/>
    <path id="Path_590" data-name="Path 590" d="M848.062,284.13a4.94,4.94,0,0,1-2.872,3.212l1.889-7.411A4.933,4.933,0,0,1,848.062,284.13Z" transform="translate(-656.582 -216.371)" fill="#3a3768"/>
    <path id="Path_591" data-name="Path 591" d="M808.21,324.788a.608.608,0,0,1-.438-.741l.531-2.146-3.544-.9-10.854,42.64a7.071,7.071,0,0,1-2.314,9.087l-.252.993,4.819,1.227,12.724-49.99Z" transform="translate(-617.036 -246.531)" fill="#3a3768"/>
    <path id="Path_592" data-name="Path 592" d="M853.147,326.536a.608.608,0,0,0,.438.741l.667.17.7-2.739-1.259-.319Z" transform="translate(-662.411 -249.021)" fill="#3a3768"/>
    <path id="Path_593" data-name="Path 593" d="M714.163,279.588a2.21,2.21,0,0,1,1.328-.972,6.879,6.879,0,0,0,.983-.367l1.886-7.411a8.442,8.442,0,0,0-4.7-3c-3.9-.991-7.674.619-8.434,3.6a4.918,4.918,0,0,0,.927,4.115,7.186,7.186,0,0,0,1.2,1.286l.018.056a2.274,2.274,0,0,1-.228,2.694l-23.819-6.062-5.382,21.11a7.284,7.284,0,0,1,6.322-1.416,8.09,8.09,0,0,1-3.984,15.638,7.294,7.294,0,0,1-4.872-4.271L669.9,326.258l21.094,5.371a7.273,7.273,0,0,1-1.347-6.237c1.02-4.014,5.35-6.375,9.669-5.275a8.287,8.287,0,0,1,5.408,4.271l10.854-42.64-1.575-.4A1.86,1.86,0,0,1,714.163,279.588Z" transform="translate(-527.855 -207.279)" fill="#f17f07"/>
    <path id="Path_594" data-name="Path 594" d="M842.485,315.813l.042-.173c-.082.04-.165.082-.247.12Z" transform="translate(-654.445 -242.595)" fill="#f17f07"/>
    <path id="Path_595" data-name="Path 595" d="M828.277,493.684c.8,1.214,1.732,6.521,1.732,6.521a5.485,5.485,0,0,1,.59,2.247,11.561,11.561,0,0,0,.59,2.922L833.252,513a6.855,6.855,0,0,0,.553,3.453c.776,1.427.7.993.332,3.5s.441,4.826,1.766,5.578-.59,2.468-.59,2.468,8.474,2.285,10.243.885-.922-8.328-.922-8.328.444-5.82.149-6.667-1.549-8.067-1.549-8.067-.773-3.281-.478-3.833-.183-2.125-.183-2.125-1.254-1.769-1.142-2.322a3.4,3.4,0,0,0-.369-1.546s3.751-5.764,3.419-6.845a6.294,6.294,0,0,1,.146-2.8l1.047-1.79c.7-1.2,1.543-2.627,1.828-3.073a39.136,39.136,0,0,0,1.719-4.38l.345-1s.59,10.833,1.105,11.938,1.288,9.829,1.288,9.829a6.111,6.111,0,0,1,.369,2.43,61.464,61.464,0,0,0,1.179,7.294s.553,4.2.183,5.313-.074,9.249-.074,9.249a10.528,10.528,0,0,0-2.542,2.8c-.515,1.206.074,4.516.074,4.516s5.894,2.949,8.5,2.175,1.546-5.233,1.546-5.233,1.769-2.946,1.769-4.088a44.87,44.87,0,0,1,.643-4.63c2.247-4.125,1.363-14.145,1.732-14.955s-.776-3.833-1.695-5.2-.553-5.047,0-6.11-.568-4.758-.568-4.758,1.063-7.148,1.031-8.253a25.067,25.067,0,0,1,.922-4.383s.956-1.695.736-2.213.736-1.841.478-2.431.223-2.391.7-3.453a22.182,22.182,0,0,0,.8-3.392c.226-1.272.393-2.391.393-2.391l-6.08-4.9-15.178-3.984-5.708-1.841-5.565,8.766a22.316,22.316,0,0,0-1.081,1.974,5.832,5.832,0,0,0-.76,2.558,3.536,3.536,0,0,1-.515,2.284s-3.318,10.5-3.243,13.521a67.791,67.791,0,0,1-1.179,9.65S827.459,492.465,828.277,493.684Z" transform="translate(-643.969 -340.853)" fill="#ceddf9"/>
    <path id="Path_596" data-name="Path 596" d="M912.016,243.948c.234-.1,16.26-6.715,14.052-8.03-1.31-.781-2.922-4.091-4.027-6.681-.77-1.809-1.294-3.267-1.294-3.267s-12.862-2.284-8.259,5.6a14.608,14.608,0,0,1,1.623,3.884A8.724,8.724,0,0,1,912.016,243.948Z" transform="translate(-705.273 -176.519)" fill="#fec2be"/>
    <path id="Path_597" data-name="Path 597" d="M912.489,231.569a14.608,14.608,0,0,1,1.623,3.884,8.981,8.981,0,0,0,7.594-5.337,8.564,8.564,0,0,0,.335-.879c-.77-1.809-1.294-3.267-1.294-3.267S907.886,223.685,912.489,231.569Z" transform="translate(-705.273 -176.519)" opacity="0.1"/>
    <path id="Path_598" data-name="Path 598" d="M885.14,202.794a8.986,8.986,0,1,0,.351-2.489A8.986,8.986,0,0,0,885.14,202.794Z" transform="translate(-685.92 -153.122)" fill="#fec2be"/>
    <path id="Path_599" data-name="Path 599" d="M852.5,460.184a5.5,5.5,0,0,1,1.3,2.484s4.423,3.02,4.128,1.105,2.284-9.653,2.284-9.653l-.295,10.538s14.145-.664,15.178-1.695,7.074-3.007,7.074-3.007,1.859,1.485,3.549,2.611c.226-1.272.393-2.391.393-2.391l-6.08-4.9-15.178-3.984-5.708-1.841-5.565,8.766A22.3,22.3,0,0,0,852.5,460.184Z" transform="translate(-661.95 -340.861)" opacity="0.1"/>
    <path id="Path_600" data-name="Path 600" d="M846.989,313.534a4.947,4.947,0,0,1,1.62,2.725s4.42,3.02,4.125,1.105,2.284-9.653,2.284-9.653l-.295,10.538s14.148-.659,15.176-1.695,7.074-3.02,7.074-3.02,5.233,4.2,6.189,3.83-1.695-7.515-1.695-7.515L878.745,268s.736-12.453-.369-12.9a1.594,1.594,0,0,1-.465-.29,4.7,4.7,0,0,1-1.009-3.1c-.072-1.328-1.841-.664-1.841-.664l1.031,1.328-9.13,5.552-.08.048a10.077,10.077,0,0,0-1.1-.5,3.973,3.973,0,0,0-2.587-.313,2.5,2.5,0,0,0-.967.871,10.944,10.944,0,0,0-1.243,2.518l-3.307,5.6s-1.695,7.438-1.695,7.738-.515,7.074-1.1,7.81-1.179,4.42-.959,5.525a30.13,30.13,0,0,1-.369,5.233c-2.43,1.99-3.682,8.766-3.682,8.766s-3.841,7.6-4.144,8.474S845.809,312.808,846.989,313.534Z" transform="translate(-656.903 -195.041)" fill="#fff"/>
    <path id="Path_601" data-name="Path 601" d="M925.94,259.02a18.663,18.663,0,0,0,3.482,3.188l7.467-6.309a4.7,4.7,0,0,1-1.009-3.1c-.072-1.328-1.841-.661-1.841-.661l.215.266a1.19,1.19,0,0,1-.321,1.745Z" transform="translate(-715.882 -195.838)" opacity="0.1"/>
    <path id="Path_602" data-name="Path 602" d="M925.94,257.914a18.664,18.664,0,0,0,3.482,3.188l7.467-6.309a4.7,4.7,0,0,1-1.009-3.1c-.072-1.328-1.841-.664-1.841-.664l.215.266a1.187,1.187,0,0,1-.321,1.743Z" transform="translate(-715.882 -195.027)" fill="#fff"/>
    <path id="Path_603" data-name="Path 603" d="M912.94,278c.964,1.153,2.332,2.462,2.268,1.806a5.7,5.7,0,0,1,1.376-2.752,4.077,4.077,0,0,0-2.678.074A2.481,2.481,0,0,0,912.94,278Z" transform="translate(-706.335 -214.118)" opacity="0.1"/>
    <path id="Path_604" data-name="Path 604" d="M912.39,276.735c.964,1.155,2.33,2.462,2.266,1.809s.725-1.719,1.286-2.367a3.952,3.952,0,0,0-2.587-.311,2.47,2.47,0,0,0-.964.869Z" transform="translate(-705.931 -213.298)" fill="#fff"/>
    <circle id="Ellipse_57" data-name="Ellipse 57" cx="0.59" cy="0.59" r="0.59" transform="translate(208.284 68.388)" fill="#ff718d"/>
    <circle id="Ellipse_58" data-name="Ellipse 58" cx="0.59" cy="0.59" r="0.59" transform="translate(203.813 84.302)" fill="#ff718d"/>
    <circle id="Ellipse_59" data-name="Ellipse 59" cx="0.59" cy="0.59" r="0.59" transform="translate(198.755 100.416)" fill="#ff718d"/>
    <circle id="Ellipse_60" data-name="Ellipse 60" cx="0.59" cy="0.59" r="0.59" transform="translate(198.607 117.95)" fill="#ff718d"/>
    <circle id="Ellipse_61" data-name="Ellipse 61" cx="0.59" cy="0.59" r="0.59" transform="translate(205.68 75.903)" fill="#ff718d"/>
    <circle id="Ellipse_62" data-name="Ellipse 62" cx="0.59" cy="0.59" r="0.59" transform="translate(201.701 92.261)" fill="#ff718d"/>
    <circle id="Ellipse_63" data-name="Ellipse 63" cx="0.59" cy="0.59" r="0.59" transform="translate(197.82 108.324)" fill="#ff718d"/>
    <circle id="Ellipse_64" data-name="Ellipse 64" cx="0.59" cy="0.59" r="0.59" transform="translate(198.705 119.916)" fill="#ff718d"/>
    <path id="Path_605" data-name="Path 605" d="M930.8,266.295s-.1-.885,1.177.64a15.38,15.38,0,0,0,3.684,2.848s5.453,3.833,5.748,5.6,2.061,9.433,1.129,11.985-8.062,14.788-8.062,14.788a6.646,6.646,0,0,1,1.427,4.816c-.433,2.6-.983,6.189-.738,6.976s-.295,2.749.531,3.437,1.719,1.859-.885,3.437c0,0-.491,1.328-.051,1.623s-6.532,3.339-9.3,1.719-7.7-14.589-7.81-17.487a68.867,68.867,0,0,1,2.407-14.737c.885-2.253,3.538-11.053,4.667-13.016S930.8,266.295,930.8,266.295Z" transform="translate(-709.795 -206.17)" opacity="0.1"/>
    <path id="Path_606" data-name="Path 606" d="M931.925,266.295s-.1-.885,1.179.64a15.435,15.435,0,0,0,3.684,2.848s5.453,3.833,5.748,5.6,2.061,9.433,1.129,11.985-8.057,14.788-8.057,14.788a6.646,6.646,0,0,1,1.426,4.816c-.433,2.6-.983,6.189-.738,6.976s-.295,2.749.531,3.437,1.719,1.859-.885,3.437c0,0-.492,1.328-.05,1.623s-6.532,3.339-9.3,1.719-7.7-14.589-7.81-17.487a68.867,68.867,0,0,1,2.407-14.737c.885-2.253,3.538-11.053,4.667-13.016S931.925,266.295,931.925,266.295Z" transform="translate(-710.625 -206.17)" fill="#4c4981"/>
    <path id="Path_607" data-name="Path 607" d="M964.377,298.48s-4.224,4.667-4.078,7.762C960.3,306.242,960.252,301.229,964.377,298.48Z" transform="translate(-741.112 -229.993)" opacity="0.1"/>
    <path id="Path_608" data-name="Path 608" d="M940.206,327.33c0,.146-2.85,10.756-2.7,12.084a25.718,25.718,0,0,1-.837,5.254l-1.328-.343s1.031-5.453,1.227-7.467S940.206,327.33,940.206,327.33Z" transform="translate(-722.785 -251.18)" opacity="0.1"/>
    <path id="Path_609" data-name="Path 609" d="M949.4,441.24c.1.146,6.731,7.661,4.864,8.2S949.4,441.24,949.4,441.24Z" transform="translate(-733.11 -334.831)" opacity="0.1"/>
    <path id="Path_610" data-name="Path 610" d="M969.93,434c.146.1,2.656,5.4,2.946,3.985s-2.16,3.881-2.553-.048Z" transform="translate(-748.187 -329.515)" opacity="0.1"/>
    <path id="Path_611" data-name="Path 611" d="M877.2,272.441s-2.739-1.671-6.179,2.6c0,0-2.5,1.424-3.241,1.769s-1.573,9.481-1.573,9.481-1.62,3.929-1.179,6.189-1.275,10.02-1.275,10.02-2.853,13.946-2.757,14.344,2.9-4.372,2.85-6.731,2.356-9.725,2.7-10.168,2.7-13.064,2.7-13.064,1.915-5.355,3.142-7.124,2.752-5.108,3.389-5.7a6.492,6.492,0,0,1,1.522-.983Z" transform="translate(-668.186 -210.635)" opacity="0.1"/>
    <path id="Path_612" data-name="Path 612" d="M876.424,272.441s-3.071-1.671-6.508,2.6c0,0-2.508,1.424-3.244,1.769s-1.573,9.481-1.573,9.481-1.62,3.929-1.179,6.189-1.275,10.02-1.275,10.02-2.85,13.951-2.752,14.344,2.9-4.372,2.85-6.731,2.356-9.725,2.7-10.168,2.709-13.064,2.709-13.064,1.915-5.355,3.142-7.124,2.752-5.108,3.389-5.7a6.038,6.038,0,0,1,1.817-.983Z" transform="translate(-667.378 -210.635)" fill="#4c4981"/>
    <path id="Path_613" data-name="Path 613" d="M834.107,382.089s-5.844-3.83-8.67-1.939-7.438,4.569-2.9,6.508,10.83,1.567,10.83,1.567Z" transform="translate(-638.545 -289.583)" fill="#fec2be"/>
    <path id="Path_614" data-name="Path 614" d="M885.778,517.654c.871,1.859,1.594,11.258,2.077,14.235.7-1.2,1.543-2.627,1.828-3.073a39.168,39.168,0,0,0,1.719-4.38c-.555-1.349-2.088-5.217-2.088-6.641,0-1.732-2.8-3.9-2.8-3.9A3.262,3.262,0,0,0,885.778,517.654Z" transform="translate(-686.151 -388.183)" opacity="0.1"/>
    <path id="Path_615" data-name="Path 615" d="M933.524,632.5s-6.484-2.763-8.4-.8S933.524,632.5,933.524,632.5Z" transform="translate(-715.109 -474.179)" opacity="0.1"/>
    <path id="Path_616" data-name="Path 616" d="M943.67,640.81s6.558,3.684,4.311,4.3S943.67,640.81,943.67,640.81Z" transform="translate(-728.902 -481.389)" opacity="0.1"/>
    <path id="Path_617" data-name="Path 617" d="M869.89,628.75s2.8.183,1.732.736S869.89,628.75,869.89,628.75Z" transform="translate(-674.721 -472.532)" opacity="0.1"/>
    <path id="Path_618" data-name="Path 618" d="M856.71,631.94c.037.183,8.142,2.8,6.559,3.984S856.71,631.94,856.71,631.94Z" transform="translate(-665.042 -474.875)" opacity="0.1"/>
    <path id="Path_619" data-name="Path 619" d="M937.336,711.635c-1.214-.186-7.993-3.318-5.342-1.062A5.255,5.255,0,0,0,937.336,711.635Z" transform="translate(-719.88 -532.023)" opacity="0.1"/>
    <path id="Path_620" data-name="Path 620" d="M931.742,726.11a2.634,2.634,0,0,1-2.837,1.99C926.658,727.8,931.742,726.11,931.742,726.11Z" transform="translate(-717.638 -544.03)" opacity="0.1"/>
    <path id="Path_621" data-name="Path 621" d="M933.477,739.263c-.406-.109-5.233-2.319-5.342-1.288s4.6,2.837,4.973,2.284a1.977,1.977,0,0,0,.369-1Z" transform="translate(-717.493 -552.543)" opacity="0.1"/>
    <path id="Path_622" data-name="Path 622" d="M869.48,731.166c-.59-.037-6.11-1.806-7.22-.223Z" transform="translate(-669.118 -547.096)" opacity="0.1"/>
    <path id="Path_623" data-name="Path 623" d="M864.746,736a1.961,1.961,0,0,0-1.915-.406C861.875,736.039,864.746,736,864.746,736Z" transform="translate(-669.394 -550.905)" opacity="0.1"/>
    <path id="Path_624" data-name="Path 624" d="M913.164,771.88a1.65,1.65,0,0,1-1.254,1.288Z" transform="translate(-705.579 -577.642)" opacity="0.1"/>
    <path id="Path_625" data-name="Path 625" d="M810.359,751.965c.369,1.511,5.528,1.658,8,1.254s7.589-1.881,7.589-1.881,5.379-.515,6.962-1.177.332-2.359.332-2.359v-.159c.037-.616.149-2.85-.231-3.453-.441-.7-.183-2.986-.183-2.986s-7.626,1.474-7.775.776a3.976,3.976,0,0,0-1.878-1.915c-.55-.22-.959,1.841-.959,1.841s-3.453,2.949-3.684,4.016-2.656,1.62-2.656,1.62a41.782,41.782,0,0,0-4.643,1.546,1.782,1.782,0,0,0-1.015,1.432,3.984,3.984,0,0,0,.146,1.445Z" transform="translate(-630.886 -554.266)" fill="#ca8496"/>
    <path id="Path_626" data-name="Path 626" d="M810.382,772.962c.369,1.511,5.528,1.658,8,1.254s7.589-1.881,7.589-1.881,5.379-.515,6.962-1.177.332-2.359.332-2.359v-.159l-7.7,1.708s-3.8,1.62-6.226,1.62c-2.125,0-6.88.869-9.085-.449A3.984,3.984,0,0,0,810.382,772.962Z" transform="translate(-630.909 -575.263)" opacity="0.1"/>
    <path id="Path_627" data-name="Path 627" d="M850.05,763s.369,2.431,1.843,3.241Z" transform="translate(-660.151 -571.121)" opacity="0.1"/>
    <path id="Path_628" data-name="Path 628" d="M886.46,200.3a2.634,2.634,0,0,0,.438.183,2.715,2.715,0,0,0,1.979-.653c.614-.372,1.461-.648,1.992-.165.693.63.191,1.974.906,2.582.452.385,1.169.252,1.671.568a2.4,2.4,0,0,1,.781,1.607c.128.6.383,1.28.967,1.456s1.129-.21,1.705-.189c.119,0,.266.019.34-.066a.359.359,0,0,0,.056-.266,5.678,5.678,0,0,1,.189-2.125,2.048,2.048,0,0,1,1.5-1.4c1.033-.159,1.9.746,2.51,1.594a26.081,26.081,0,0,1,1.742,2.805,1.79,1.79,0,0,1,.088.194,8.989,8.989,0,1,0-16.862-6.11Z" transform="translate(-686.889 -153.113)" opacity="0.1"/>
    <path id="Path_629" data-name="Path 629" d="M888.12,189.1c-.608-.855-1.477-1.758-2.513-1.594a2.037,2.037,0,0,0-1.5,1.4,5.625,5.625,0,0,0-.186,2.125.371.371,0,0,1-.058.266c-.082.088-.22.074-.34.069-.576-.021-1.15.353-1.705.189s-.839-.858-.967-1.456a2.363,2.363,0,0,0-.781-1.607c-.515-.327-1.219-.183-1.671-.571-.715-.606-.21-1.952-.906-2.582-.531-.481-1.379-.2-1.992.167a2.714,2.714,0,0,1-1.982.651c-.234-.064-.444-.2-.672-.284-1.092-.417-2.508.29-3.405-.46a2.632,2.632,0,0,1-.68-1.177,7.489,7.489,0,0,1-.5-1.878,2.51,2.51,0,0,1,.5-1.83c.584-.688,1.573-.861,2.319-1.368a5.829,5.829,0,0,0,1.482-1.748,6.53,6.53,0,0,1,1.44-1.788,2.12,2.12,0,0,1,2.159-.34,2.392,2.392,0,0,0,.709.337,1.467,1.467,0,0,0,.784-.215c2.555-1.2,5.531-.991,8.333-.632a10.732,10.732,0,0,1,3.281.8,3.942,3.942,0,0,1,2.213,2.423c.229.866.053,1.809.329,2.656.186.579.568,1.063.8,1.644.6,1.554-.117,3.259-.42,4.9-.329,1.788-.165,3.719-.924,5.414-.149.332-.316.914-.691.7-.266-.162-.547-1.105-.707-1.4A25.8,25.8,0,0,0,888.12,189.1Z" transform="translate(-673.517 -138.942)" fill="#9a5e7f"/>
    <path id="Path_630" data-name="Path 630" d="M900.3,314.416l1.328,3.783s-3.145,11.688-4.619,14.145-3.634,5.6-3.634,5.6a13.466,13.466,0,0,1-7.86.983c-4.226-.837-16.56-3.044-16.56-3.044a1.639,1.639,0,0,1-1.572-.59c-.539-.786-3.347-1.185-3.347-1.185s-3.241-4.715.739-6.681c0,0,.491,1.081,2.6.345s2.749.587,2.749.587a22.471,22.471,0,0,0,5.355.444c1.9-.244,6.681-.345,7.172-.738a.632.632,0,0,1,.885.05,5.329,5.329,0,0,0,1.57-.885c.393-.444.935.491.935.491s.688-.393.491-.885.638-2.356.638-2.356a4.8,4.8,0,0,0,.149-2.213c-.244-.983,1.227-4.516,1.227-4.516a6.25,6.25,0,0,0-.2-1.769c-.247-.882,1.859-2.656,1.859-2.656s2.061-10.022,6.434-6.731A8.642,8.642,0,0,1,900.3,314.416Z" transform="translate(-669.511 -235.466)" opacity="0.1"/>
    <path id="Path_631" data-name="Path 631" d="M901.4,314.416l1.328,3.783s-3.145,11.688-4.619,14.145-3.631,5.6-3.631,5.6a13.466,13.466,0,0,1-7.86.983c-4.226-.837-16.554-3.044-16.554-3.044a1.635,1.635,0,0,1-1.57-.59c-.539-.786-3.344-1.185-3.344-1.185s-3.241-4.715.738-6.681c0,0,.491,1.081,2.6.345s2.749.587,2.749.587a22.471,22.471,0,0,0,5.355.444c1.9-.244,6.681-.345,7.172-.738a.632.632,0,0,1,.885.05,5.329,5.329,0,0,0,1.57-.885c.393-.444.935.491.935.491s.688-.393.491-.885.638-2.356.638-2.356a4.778,4.778,0,0,0,.146-2.213c-.247-.983,1.23-4.516,1.23-4.516a6.25,6.25,0,0,0-.2-1.769c-.247-.882,1.859-2.656,1.859-2.656s2.061-10.022,6.434-6.731A8.613,8.613,0,0,1,901.4,314.416Z" transform="translate(-670.327 -235.466)" fill="#4c4981"/>
    <path id="Path_632" data-name="Path 632" d="M883.24,397.41c.048.345,1.129,1.719.736,1.966s-1.031.1-.441.885.531,1.963.146,1.817a4.748,4.748,0,0,1-1.031-2.6A7.732,7.732,0,0,1,883.24,397.41Z" transform="translate(-684.091 -302.644)" opacity="0.1"/>
    <path id="Path_633" data-name="Path 633" d="M939.79,394.45s.295,3.44,2.712,4.423S939.79,394.45,939.79,394.45Z" transform="translate(-726.053 -300.47)" opacity="0.1"/>
    <path id="Path_634" data-name="Path 634" d="M958.65,390c.146.05,3.437,1.82,1.966,2.85S958.65,390,958.65,390Z" transform="translate(-739.903 -297.203)" opacity="0.1"/>
    <path id="Path_635" data-name="Path 635" d="M959.39,380.77s4.813.983,3.188,1.817S959.39,380.77,959.39,380.77Z" transform="translate(-740.446 -290.424)" opacity="0.1"/>
    <g id="Group_128" data-name="Group 128" transform="translate(194.741 42.702)" opacity="0.1">
      <path id="Path_636" data-name="Path 636" d="M927.408,212.112a2.054,2.054,0,0,1,1.5-1.4c1.036-.159,1.9.746,2.513,1.594a26.064,26.064,0,0,1,1.743,2.805c.159.295.43,1.235.707,1.4.375.22.531-.361.691-.693.76-1.689.6-3.626.924-5.414a31.372,31.372,0,0,0,.632-3.161,15.345,15.345,0,0,1-.632,3.945c-.329,1.788-.165,3.719-.924,5.416-.149.332-.316.914-.691.693-.266-.162-.547-1.1-.707-1.4a26.086,26.086,0,0,0-1.742-2.805c-.608-.853-1.477-1.759-2.513-1.594a2.037,2.037,0,0,0-1.5,1.4,3.891,3.891,0,0,0-.2,1.105,5.142,5.142,0,0,1,.2-1.891Z" transform="translate(-911.544 -205.691)"/>
      <path id="Path_637" data-name="Path 637" d="M868.787,203.161a2.628,2.628,0,0,0,.68,1.179c.9.749,2.314.042,3.406.46.228.085.438.22.672.284a2.725,2.725,0,0,0,1.982-.653c.611-.372,1.464-.645,1.992-.165.7.63.191,1.974.906,2.582.452.385,1.169.266,1.671.571a2.365,2.365,0,0,1,.781,1.594c.128.587.38,1.28.967,1.456s1.129-.207,1.705-.186c.12,0,.266.019.34-.069a.247.247,0,0,0,.04-.074c0,.2,0,.4.019.592a.374.374,0,0,1-.058.266c-.082.085-.22.072-.34.066-.576-.019-1.15.353-1.705.189s-.839-.855-.967-1.456a2.3,2.3,0,0,0-.781-1.594c-.515-.313-1.219-.186-1.671-.571-.715-.608-.21-1.955-.906-2.582-.531-.483-1.379-.207-1.992.165a2.729,2.729,0,0,1-1.982.653c-.234-.064-.444-.2-.672-.284-1.092-.417-2.508.29-3.405-.46a2.641,2.641,0,0,1-.68-1.179,7.5,7.5,0,0,1-.5-1.875,3.029,3.029,0,0,1,.016-.659A7.907,7.907,0,0,0,868.787,203.161Z" transform="translate(-868.279 -201.41)"/>
    </g>
    <path id="Path_638" data-name="Path 638" d="M207.249,767.2s-11.231-.677-9.908,7.191a1.917,1.917,0,0,0,1,2.024s.019-.585,1.153-.388a5.276,5.276,0,0,0,1.219.061,2.539,2.539,0,0,0,1.49-.616h0s3.158-1.3,4.386-6.466c0,0,.908-1.124.871-1.413l-1.894.8a3.4,3.4,0,0,1,.138,2.505s-.061-2.454-.425-2.391c-.074,0-.986.473-.986.473s1.116,2.391.266,4.115c0,0,.319-2.935-.622-3.942l-1.328.778s1.3,2.46.42,4.468c0,0,.226-3.079-.7-4.277l-1.209.943s1.225,2.422.478,4.088c0,0-.1-3.583-.738-3.854a6.953,6.953,0,0,0-1.219,1.328s.837,1.761.316,2.691c0,0-.319-2.391-.579-2.391a7.756,7.756,0,0,0-1.163,2.656,5.752,5.752,0,0,1,.908-2.818,3.165,3.165,0,0,0-1.612.837s.162-1.118,1.873-1.217a7.358,7.358,0,0,1,1.1-1.272,6.917,6.917,0,0,0-2.731.313s.908-1.062,3.044-.574l1.193-.975a9.884,9.884,0,0,0-3.188.032s1.092-.932,3.509-.252l1.3-.778a11.825,11.825,0,0,0-3.044-.266,4.673,4.673,0,0,1,3.427.056l.927-.417s-1.4-.266-1.806-.319-.433-.157-.433-.157a4.851,4.851,0,0,1,2.627.292A12.117,12.117,0,0,0,207.249,767.2Z" transform="translate(-180.744 -574.194)" fill="#f17f07"/>
    <ellipse id="Ellipse_65" data-name="Ellipse 65" cx="7.948" cy="1.344" rx="7.948" ry="1.344" transform="translate(10.822 201.561)" fill="#f17f07" opacity="0.1"/>
    <path id="Path_639" data-name="Path 639" d="M300.406,689.147s-6.333-.383-5.578,4.056a1.084,1.084,0,0,0,.563,1.14s0-.329.651-.218a3.113,3.113,0,0,0,.688.034,1.453,1.453,0,0,0,.839-.348h0s1.774-.725,2.476-3.647c0,0,.513-.635.491-.8l-1.063.454a1.926,1.926,0,0,1,.077,1.413s-.035-1.384-.239-1.352c-.043,0-.555.266-.555.266a3.151,3.151,0,0,1,.154,2.319s.178-1.655-.351-2.223l-.757.452a3.325,3.325,0,0,1,.236,2.518,4.716,4.716,0,0,0-.4-2.412l-.68.531a3.246,3.246,0,0,1,.266,2.306s-.056-2.022-.417-2.173a4.252,4.252,0,0,0-.688.741s.473.994.181,1.517c0,0-.181-1.347-.327-1.352a4.436,4.436,0,0,0-.656,1.5,3.241,3.241,0,0,1,.51-1.594,1.8,1.8,0,0,0-.908.473s.093-.632,1.063-.685a4.023,4.023,0,0,1,.622-.717,3.891,3.891,0,0,0-1.541.175,1.73,1.73,0,0,1,1.716-.324l.672-.55a5.536,5.536,0,0,0-1.8.019,2.168,2.168,0,0,1,1.979-.143l.731-.436a6.564,6.564,0,0,0-1.716-.149,2.625,2.625,0,0,1,1.931.029l.531-.234s-.8-.157-1.017-.181-.244-.088-.244-.088a2.741,2.741,0,0,1,1.482.165A6.169,6.169,0,0,0,300.406,689.147Z" transform="translate(-252.369 -516.88)" fill="#f17f07"/>
    <ellipse id="Ellipse_66" data-name="Ellipse 66" cx="4.481" cy="0.757" rx="4.481" ry="0.757" transform="translate(39.205 177.091)" fill="#f17f07" opacity="0.1"/>
    <path id="Path_640" data-name="Path 640" d="M156.525,703.642s-7.645-.462-6.734,4.9a1.307,1.307,0,0,0,.68,1.376s0-.4.784-.266a3.49,3.49,0,0,0,.831.04,1.717,1.717,0,0,0,1.015-.42h0s2.149-.887,2.986-4.4c0,0,.616-.765.592-.962l-1.31.553a2.32,2.32,0,0,1,.093,1.7s-.042-1.668-.29-1.628c-.05,0-.669.321-.669.321a3.82,3.82,0,0,1,.186,2.8s.215-2-.425-2.683l-.906.531a4.01,4.01,0,0,1,.284,3.039s.154-2.1-.475-2.922l-.823.643a3.925,3.925,0,0,1,.324,2.784s-.066-2.441-.5-2.624a5.1,5.1,0,0,0-.831.9s.571,1.2.218,1.83c0,0-.218-1.626-.4-1.634a5.5,5.5,0,0,0-.8,1.817,3.918,3.918,0,0,1,.619-1.918,2.148,2.148,0,0,0-1.1.568s.112-.762,1.278-.829a5.084,5.084,0,0,1,.749-.866,4.711,4.711,0,0,0-1.859.213,2.091,2.091,0,0,1,2.072-.39l.813-.664a6.7,6.7,0,0,0-2.17.024,2.634,2.634,0,0,1,2.391-.173l.885-.531a7.989,7.989,0,0,0-2.072-.181,3.173,3.173,0,0,1,2.332.037l.632-.284s-.951-.186-1.23-.215-.295-.106-.295-.106a3.283,3.283,0,0,1,1.788.2A7.808,7.808,0,0,0,156.525,703.642Z" transform="translate(-145.85 -527.523)" fill="#f17f07"/>
    <ellipse id="Ellipse_67" data-name="Ellipse 67" cx="5.411" cy="0.914" rx="5.411" ry="0.914" transform="translate(0 181.944)" fill="#f17f07" opacity="0.1"/>
    <ellipse id="Ellipse_68" data-name="Ellipse 68" cx="7.948" cy="1.344" rx="7.948" ry="1.344" transform="translate(153.483 214.782)" fill="#f17f07" opacity="0.1"/>
    <path id="Path_641" data-name="Path 641" d="M722.79,824.019s4.534-.141,5.9-1.113,6.973-2.125,7.313-.574,6.813,7.759,1.695,7.8-11.892-.8-13.258-1.628S722.79,824.019,722.79,824.019Z" transform="translate(-566.695 -614.135)" fill="#a8a8a8"/>
    <path id="Path_642" data-name="Path 642" d="M737.78,836.336c-5.119.043-11.892-.8-13.255-1.626-1.039-.635-1.453-2.9-1.594-3.95h-.151s.287,3.655,1.65,4.487,8.139,1.668,13.258,1.628c1.477,0,1.987-.531,1.96-1.328C739.446,836.033,738.88,836.328,737.78,836.336Z" transform="translate(-566.688 -620.882)" opacity="0.2"/>
  </g>
</svg>
