<svg xmlns="http://www.w3.org/2000/svg" xmlns:xlink="http://www.w3.org/1999/xlink" width="301.23" height="204.493" viewBox="0 0 301.23 204.493">
  <defs>
    <linearGradient id="linear-gradient" x1="16.614" y1="1" x2="16.614" gradientUnits="objectBoundingBox">
      <stop offset="0" stop-color="gray" stop-opacity="0.251"/>
      <stop offset="0.54" stop-color="gray" stop-opacity="0.122"/>
      <stop offset="1" stop-color="gray" stop-opacity="0.102"/>
    </linearGradient>
  </defs>
  <g id="undraw_server_status_5pbv" transform="translate(7.212)">
    <path id="Path_310" data-name="Path 310" d="M191.85,543c10.22-4.02,26.264-4.839,40.867-4.517,45.87,1,87.276,10.774,123.09,21.826,12.966,4,25.731,8.315,34.148,13.824,17.133,11.216,12.05,26.753-11.772,35.992-8.107,3.144-17.932,5.563-28.02,7.688a350.843,350.843,0,0,1-57.645,7.726,428.6,428.6,0,0,1-43.642-.75c-40.322-2.421-79.9-7.741-113.071-16.884-14.55-4-28.263-8.979-34.253-15.458s-2.161-14.682,12.7-18.517c6.148-1.584,13.491-2.3,20.684-2.972,10.586-.99,21.342-1.967,30.9-3.979,9.869-2.079,21.553-6.1,19.6-10.7C183.322,551.351,181.642,547.018,191.85,543Z" transform="translate(-106.055 -424.263)" fill="#f17f07" opacity="0.1"/>
    <path id="Path_311" data-name="Path 311" d="M572.925,92.352l-1.115,64.7s40.378,0,74.731,11.154l.67-65.38S592.11,89.676,572.925,92.352Z" transform="translate(-425.554 -83.531)" opacity="0.1"/>
    <path id="Path_312" data-name="Path 312" d="M570.925,89.352l-1.115,64.7s40.378,0,74.731,11.154l.67-65.38S590.11,86.676,570.925,89.352Z" transform="translate(-424.14 -81.41)" fill="#f5f5fb"/>
    <path id="Path_313" data-name="Path 313" d="M337.426,92.183l1.115,64.7s-40.378,0-74.731,11.154l-.67-65.362S318.241,89.507,337.426,92.183Z" transform="translate(-207.251 -83.412)" opacity="0.1"/>
    <path id="Path_314" data-name="Path 314" d="M339.426,89.183l1.115,64.7s-40.378,0-74.731,11.154l-.67-65.362S320.241,86.507,339.426,89.183Z" transform="translate(-208.666 -81.29)" fill="#f5f5fb"/>
    <path id="Path_315" data-name="Path 315" d="M862.65,160.51v64.025s13.174-1.56,40.823,32.57l2.456-64.024S877.151,162.073,862.65,160.51Z" transform="translate(-631.247 -131.989)" opacity="0.1"/>
    <path id="Path_316" data-name="Path 316" d="M860.65,158.51v64.025s13.174-1.56,40.823,32.57l2.456-64.024S875.151,160.073,860.65,158.51Z" transform="translate(-629.832 -130.574)" fill="#f5f5fb"/>
    <path id="Path_317" data-name="Path 317" d="M127.756,167v64.027s-13.174-1.56-40.823,32.57L84.48,199.573S113.256,168.566,127.756,167Z" transform="translate(-80.897 -136.579)" opacity="0.1"/>
    <path id="Path_318" data-name="Path 318" d="M129.756,164v64.027s-13.174-1.56-40.823,32.57L86.48,196.573S115.256,165.566,129.756,164Z" transform="translate(-82.311 -134.457)" fill="#f5f5fb"/>
    <path id="Path_319" data-name="Path 319" d="M513.277,531.589c0,2.181-13.851,14.785-45.378,14.785s-48.6-12.164-48.6-14.345,17.657,3.22,49.184,3.22S513.277,529.405,513.277,531.589Z" transform="translate(-317.693 -394.084)" fill="#f7f7fd"/>
    <ellipse id="Ellipse_9" data-name="Ellipse 9" cx="3.355" cy="0.46" rx="3.355" ry="0.46" transform="translate(89.19 106.546)" fill="#f17f07" opacity="0.1"/>
    <ellipse id="Ellipse_10" data-name="Ellipse 10" cx="3.355" cy="0.46" rx="3.355" ry="0.46" transform="translate(76.341 107.848)" fill="#f17f07" opacity="0.1"/>
    <ellipse id="Ellipse_11" data-name="Ellipse 11" cx="3.355" cy="0.46" rx="3.355" ry="0.46" transform="translate(61.211 106.086)" fill="#f17f07" opacity="0.1"/>
    <ellipse id="Ellipse_12" data-name="Ellipse 12" cx="2.383" cy="0.328" rx="2.383" ry="0.328" transform="translate(82.457 111.689)" fill="#f17f07" opacity="0.1"/>
    <ellipse id="Ellipse_13" data-name="Ellipse 13" cx="2.383" cy="0.328" rx="2.383" ry="0.328" transform="translate(69.122 111.361)" fill="#f17f07" opacity="0.1"/>
    <path id="Path_320" data-name="Path 320" d="M309.753,371.166s4.7-15.42-.738-21.594c-4.069-4.62-8.7-4.078-10.744-3.493a3.823,3.823,0,0,0-2.468,2.049c-.723,1.56-.586,4.1,4.514,7.05,8.546,4.948,9.076,11.737,9.076,11.737Z" transform="translate(-230.128 -262.96)" fill="#f17f07"/>
    <path id="Path_321" data-name="Path 321" d="M307.48,354.46s13.865,4.336,10.756,22.9" transform="translate(-238.61 -269.157)" fill="none" stroke="#565987" stroke-miterlimit="10" stroke-width="1"/>
    <path id="Path_322" data-name="Path 322" d="M331.706,359.77s-1.909,1.285-1.3,3.22" transform="translate(-254.738 -272.913)" fill="none" stroke="#565987" stroke-miterlimit="10" stroke-width="1"/>
    <path id="Path_323" data-name="Path 323" d="M312.23,361.916a2.406,2.406,0,0,1,2.585-.533" transform="translate(-241.97 -273.914)" fill="none" stroke="#565987" stroke-miterlimit="10" stroke-width="1"/>
    <path id="Path_324" data-name="Path 324" d="M331,383.121s2.049-1.039,2.579.263" transform="translate(-255.244 -289.15)" fill="none" stroke="#565987" stroke-miterlimit="10" stroke-width="1"/>
    <path id="Path_325" data-name="Path 325" d="M344.486,391.461s-1.54-.123-1.566.612" transform="translate(-263.675 -295.321)" fill="none" stroke="#565987" stroke-miterlimit="10" stroke-width="1"/>
    <path id="Path_326" data-name="Path 326" d="M324.774,406.621s-5.51-11.207-7.026-10.961c-.717.117-1.048.823-1.2,1.534a4.508,4.508,0,0,0,.293,2.729A12.136,12.136,0,0,0,324.774,406.621Z" transform="translate(-244.958 -298.293)" fill="#f17f07"/>
    <path id="Path_327" data-name="Path 327" d="M321,402.93s5.782,8.385,6.9,8.754" transform="translate(-248.172 -303.437)" fill="none" stroke="#565987" stroke-miterlimit="10" stroke-width="1"/>
    <line id="Line_1" data-name="Line 1" x2="1.35" transform="translate(72.304 100.801)" fill="none" stroke="#565987" stroke-miterlimit="10" stroke-width="1"/>
    <line id="Line_2" data-name="Line 2" x2="2.114" y2="0.091" transform="translate(73.92 103.87)" fill="none" stroke="#565987" stroke-miterlimit="10" stroke-width="1"/>
    <line id="Line_3" data-name="Line 3" x1="0.231" y2="1.101" transform="translate(74.977 101.416)" fill="none" stroke="#565987" stroke-miterlimit="10" stroke-width="1"/>
    <line id="Line_4" data-name="Line 4" x1="0.041" y2="1.001" transform="translate(77.416 104.768)" fill="none" stroke="#565987" stroke-miterlimit="10" stroke-width="1"/>
    <path id="Path_328" data-name="Path 328" d="M344.31,406.621s5.507-11.207,7.026-10.961c.72.117,1.051.823,1.2,1.534a4.529,4.529,0,0,1-.293,2.729A12.136,12.136,0,0,1,344.31,406.621Z" transform="translate(-264.658 -298.293)" fill="#f17f07"/>
    <path id="Path_329" data-name="Path 329" d="M351.487,402.93s-5.782,8.385-6.9,8.754" transform="translate(-264.856 -303.437)" fill="none" stroke="#565987" stroke-miterlimit="10" stroke-width="1"/>
    <line id="Line_5" data-name="Line 5" x1="1.35" transform="translate(85.815 100.801)" fill="none" stroke="#565987" stroke-miterlimit="10" stroke-width="1"/>
    <line id="Line_6" data-name="Line 6" x1="2.117" y2="0.091" transform="translate(83.432 103.87)" fill="none" stroke="#565987" stroke-miterlimit="10" stroke-width="1"/>
    <line id="Line_7" data-name="Line 7" x2="0.231" y2="1.101" transform="translate(84.26 101.416)" fill="none" stroke="#565987" stroke-miterlimit="10" stroke-width="1"/>
    <line id="Line_8" data-name="Line 8" x2="0.041" y2="1.001" transform="translate(82.012 104.768)" fill="none" stroke="#565987" stroke-miterlimit="10" stroke-width="1"/>
    <path id="Path_330" data-name="Path 330" d="M311.21,438.388a.955.955,0,0,1-.313-.474.416.416,0,0,1,.22-.48c.2-.079.416.061.586.2a.773.773,0,0,0,.562.272.861.861,0,0,1-.266-.8.369.369,0,0,1,.076-.164c.111-.12.313-.067.448.026a1.666,1.666,0,0,1,.545,1.4,2.505,2.505,0,0,0,0-.586.585.585,0,0,1,.217-.509.662.662,0,0,1,.328-.079.685.685,0,0,1,.536.152.539.539,0,0,1-.021.659,2.093,2.093,0,0,1-.553.442,1.192,1.192,0,0,0-.4.378.274.274,0,0,0-.029.067h-1.2a3.484,3.484,0,0,1-.738-.5Z" transform="translate(-241.017 -327.442)" fill="#f17f07"/>
    <path id="Path_331" data-name="Path 331" d="M382.909,422.973a.948.948,0,0,1-.313-.471.418.418,0,0,1,.22-.483.615.615,0,0,1,.586.2.759.759,0,0,0,.562.269.858.858,0,0,1-.266-.8.328.328,0,0,1,.076-.161c.111-.12.313-.07.448.023a1.668,1.668,0,0,1,.544,1.4,2.527,2.527,0,0,0,0-.586.586.586,0,0,1,.217-.509.629.629,0,0,1,.328-.076.673.673,0,0,1,.536.152.533.533,0,0,1-.02.656,2.093,2.093,0,0,1-.553.442,1.221,1.221,0,0,0-.4.378.276.276,0,0,0-.029.067h-1.2A3.379,3.379,0,0,1,382.909,422.973Z" transform="translate(-291.725 -316.541)" fill="#f17f07"/>
    <path id="Path_332" data-name="Path 332" d="M359.011,438.388a.954.954,0,0,1-.313-.474.419.419,0,0,1,.22-.48c.2-.079.416.061.586.2a.776.776,0,0,0,.562.272.858.858,0,0,1-.263-.8.334.334,0,0,1,.073-.164c.111-.12.313-.067.448.026a1.667,1.667,0,0,1,.547,1.4,2.691,2.691,0,0,0,0-.586.586.586,0,0,1,.217-.509.878.878,0,0,1,.864.073.533.533,0,0,1-.021.659,2.05,2.05,0,0,1-.553.442,1.246,1.246,0,0,0-.4.378.463.463,0,0,0-.029.067h-1.2A3.431,3.431,0,0,1,359.011,438.388Z" transform="translate(-274.824 -327.442)" fill="#f17f07"/>
    <path id="Path_333" data-name="Path 333" d="M289.574,410.89s-.448.586.208,1.464,1.2,1.637.981,2.19c0,0-.992-1.648-1.8-1.672S288.7,411.88,289.574,410.89Z" transform="translate(-225.236 -309.067)" fill="#f17f07"/>
    <path id="Path_334" data-name="Path 334" d="M289.579,410.89a.691.691,0,0,0-.091.184c-.788.922-1.206,1.786-.451,1.806.706.021,1.552,1.282,1.757,1.6a.533.533,0,0,1-.023.073s-.992-1.648-1.8-1.672S288.7,411.88,289.579,410.89Z" transform="translate(-225.241 -309.067)" opacity="0.1"/>
    <path id="Path_335" data-name="Path 335" d="M289.18,413.121c0,.208.023.375.053.375s.05-.167.05-.375-.026-.108-.056-.108S289.18,412.916,289.18,413.121Z" transform="translate(-225.668 -310.551)" fill="#ffd037"/>
    <path id="Path_336" data-name="Path 336" d="M287.948,413.949c.182.1.34.158.354.132s-.123-.126-.293-.223-.111-.029-.123,0S287.767,413.865,287.948,413.949Z" transform="translate(-224.723 -311.131)" fill="#ffd037"/>
    <path id="Path_337" data-name="Path 337" d="M297.155,410.89s.451.586-.208,1.464-1.2,1.637-.978,2.19c0,0,.99-1.648,1.8-1.672S298.042,411.88,297.155,410.89Z" transform="translate(-230.434 -309.067)" fill="#f17f07"/>
    <path id="Path_338" data-name="Path 338" d="M297.205,410.89a.691.691,0,0,1,.091.184c.788.922,1.206,1.786.451,1.806-.706.021-1.549,1.282-1.757,1.6a.533.533,0,0,0,.023.073s.99-1.648,1.8-1.672S298.092,411.88,297.205,410.89Z" transform="translate(-230.484 -309.067)" opacity="0.1"/>
    <path id="Path_339" data-name="Path 339" d="M302.752,413.121c0,.208-.021.375-.05.375s-.053-.167-.053-.375.029-.108.059-.108S302.752,412.916,302.752,413.121Z" transform="translate(-235.194 -310.551)" fill="#ffd037"/>
    <path id="Path_340" data-name="Path 340" d="M303.15,413.949c-.182.1-.34.158-.351.132s.12-.126.293-.223.111-.029.126,0S303.322,413.865,303.15,413.949Z" transform="translate(-235.299 -311.131)" fill="#ffd037"/>
    <path id="Path_341" data-name="Path 341" d="M291.213,421.508a4.609,4.609,0,0,1-1.637-.307c-.378-.269-1.932-.586-2.026-.161s-1.888,2.152-.471,2.164a12.078,12.078,0,0,0,3.674-.451C291.131,422.524,291.213,421.508,291.213,421.508Z" transform="translate(-223.798 -316.098)" fill="#a8a8a8"/>
    <path id="Path_342" data-name="Path 342" d="M287.057,424.676a12.367,12.367,0,0,0,3.674-.451c.293-.176.4-.805.439-1.095h.044s-.082,1.013-.46,1.244a11.968,11.968,0,0,1-3.674.451c-.407,0-.55-.149-.542-.366C286.595,424.594,286.753,424.673,287.057,424.676Z" transform="translate(-223.8 -317.723)" opacity="0.2"/>
    <ellipse id="Ellipse_14" data-name="Ellipse 14" cx="10.165" cy="1.502" rx="10.165" ry="1.502" transform="translate(46.974 143.823)" fill="#f17f07" opacity="0.1"/>
    <ellipse id="Ellipse_15" data-name="Ellipse 15" cx="10.165" cy="1.502" rx="10.165" ry="1.502" transform="translate(75.366 156.26)" fill="#f17f07" opacity="0.1"/>
    <ellipse id="Ellipse_16" data-name="Ellipse 16" cx="10.165" cy="1.502" rx="10.165" ry="1.502" transform="translate(33.6 170.409)" fill="#f17f07" opacity="0.1"/>
    <ellipse id="Ellipse_17" data-name="Ellipse 17" cx="10.165" cy="1.502" rx="10.165" ry="1.502" transform="translate(248.972 201.489)" fill="#f17f07" opacity="0.1"/>
    <ellipse id="Ellipse_18" data-name="Ellipse 18" cx="6.731" cy="0.752" rx="6.731" ry="0.752" transform="translate(137.043 167.68)" fill="#f17f07" opacity="0.1"/>
    <ellipse id="Ellipse_19" data-name="Ellipse 19" cx="6.731" cy="0.752" rx="6.731" ry="0.752" transform="translate(233.362 129.036)" fill="#f17f07" opacity="0.1"/>
    <ellipse id="Ellipse_20" data-name="Ellipse 20" cx="6.731" cy="0.752" rx="6.731" ry="0.752" transform="translate(180.954 186.125)" fill="#f17f07" opacity="0.1"/>
    <ellipse id="Ellipse_21" data-name="Ellipse 21" cx="6.731" cy="0.752" rx="6.731" ry="0.752" transform="translate(122.858 181.159)" fill="#f17f07" opacity="0.1"/>
    <ellipse id="Ellipse_22" data-name="Ellipse 22" cx="6.731" cy="0.752" rx="6.731" ry="0.752" transform="translate(68.413 179.207)" fill="#f17f07" opacity="0.1"/>
    <ellipse id="Ellipse_23" data-name="Ellipse 23" cx="6.731" cy="0.752" rx="6.731" ry="0.752" transform="translate(54.226 192.685)" fill="#f17f07" opacity="0.1"/>
    <g id="Group_121" data-name="Group 121" transform="translate(103.706 50.241)" opacity="0.1">
      <ellipse id="Ellipse_24" data-name="Ellipse 24" cx="44.535" cy="19.876" rx="44.535" ry="19.876" transform="translate(0.717)"/>
      <path id="Path_343" data-name="Path 343" d="M517.031,326.209c-1.97,10.364-21.439,18.5-45.171,18.5-23.939,0-43.543-8.279-45.223-18.769h-.167v16.89c7.828,8.18,25.16,13.868,45.279,13.868s37.45-5.688,45.282-13.868Z" transform="translate(-426.47 -299.228)"/>
      <path id="Path_344" data-name="Path 344" d="M517.031,396.4c-1.97,10.361-21.439,18.5-45.171,18.5-23.939,0-43.543-8.279-45.223-18.772h-.167v16.892c7.828,8.18,25.16,13.865,45.279,13.865s37.45-5.685,45.282-13.865Z" transform="translate(-426.47 -348.869)"/>
      <path id="Path_345" data-name="Path 345" d="M517.031,473.619c-1.97,10.364-21.439,18.5-45.171,18.5-23.939,0-43.543-8.276-45.223-18.769h-.167v18.216a2.808,2.808,0,0,0,.9,2.067c8.2,7.527,25,10.475,44.377,10.475s36.171-2.948,44.38-10.475a2.808,2.808,0,0,0,.9-2.067Z" transform="translate(-426.47 -403.482)"/>
    </g>
    <ellipse id="Ellipse_25" data-name="Ellipse 25" cx="44.535" cy="19.876" rx="44.535" ry="19.876" transform="translate(104.423 49.07)" fill="#f17f07"/>
    <path id="Path_346" data-name="Path 346" d="M517.031,322.209c-1.97,10.364-21.439,18.5-45.171,18.5-23.939,0-43.543-8.279-45.223-18.769h-.167v16.89c7.828,8.18,25.16,13.868,45.279,13.868s37.45-5.688,45.282-13.868Z" transform="translate(-322.764 -246.158)" fill="#f17f07"/>
    <path id="Path_347" data-name="Path 347" d="M517.031,392.4c-1.97,10.361-21.439,18.5-45.171,18.5-23.939,0-43.543-8.279-45.223-18.772h-.167v16.892c7.828,8.18,25.16,13.865,45.279,13.865s37.45-5.685,45.282-13.865Z" transform="translate(-322.764 -295.799)" fill="#f17f07"/>
    <path id="Path_348" data-name="Path 348" d="M517.031,469.619c-1.97,10.364-21.439,18.5-45.171,18.5-23.939,0-43.543-8.276-45.223-18.769h-.167v18.216a2.808,2.808,0,0,0,.9,2.067c8.2,7.527,25,10.475,44.377,10.475s36.171-2.948,44.38-10.475a2.808,2.808,0,0,0,.9-2.067Z" transform="translate(-322.764 -350.412)" fill="#f17f07"/>
    <ellipse id="Ellipse_26" data-name="Ellipse 26" cx="16.688" cy="3.004" rx="16.688" ry="3.004" transform="translate(197.917 164.238)" fill="#f17f07" opacity="0.1"/>
    <path id="Path_349" data-name="Path 349" d="M772.571,438.666c1.615.953,4.15,1.576,7.341-.477l-.028,4.548c.224,3.118,4.083,14.486,4.083,14.486l2.72,9.349a72.951,72.951,0,0,1,2.989,20.347,19.48,19.48,0,0,0,.869,6.4c1.453,3.926-.561,8.973-1.441,10.835a44.931,44.931,0,0,1-4.486,1.262,3.29,3.29,0,0,0-.4.123v-.028s-4.083,1.621-5.9,1.4a1.586,1.586,0,0,0-1.122,2.765,8.349,8.349,0,0,1-2.714.359c-1.817-.224-2.726,2.894.679,3.786s22.691,0,22.691,0a2.731,2.731,0,0,0,1.447-3.017l2.412-.1s3.4-1.559,0-5.793l-.185.135L800.8,502.9v-2.888s4.313-20.75,2.95-23.179-2.086-14.957-2.086-14.957l.477-13.572c1.228-2.535,1.856-6.517,2.176-9.629a20.2,20.2,0,0,0,.869-4.565c.056-.735.1-1.5.129-2.294a15.3,15.3,0,0,0-.83-5.137,51.619,51.619,0,0,1,5.143-6.449,6.629,6.629,0,0,0,2.047-5.793l-1.122-7.577-2.726-12.9c.342-3.584-.4-5.647-1.234-6.814.2-1.161.381-2.316.522-3.483a44.64,44.64,0,0,0-.8-15.142,10.231,10.231,0,0,0-2.148-4.817c-1.374-1.492-3.606-2.395-4.122-4.341a11.6,11.6,0,0,0-.314-1.469c-.5-1.273-2.069-1.739-3.449-1.907-2.456-.3-6.006-.522-8.367.443a10.145,10.145,0,0,0-4.846,4.5,3.864,3.864,0,0,0-.561,2.776,3.7,3.7,0,0,0,.387.953,8.631,8.631,0,0,0,5.014,11.048c.056.174.107.342.146.5a8.684,8.684,0,0,1,.224,1.217c-.045.785-.1,1.576-.129,2.367l-.084.32a58.971,58.971,0,0,0-5.7,2.905c1.357,2.008-.23,10.476-.23,10.476-3.4,2-6.8,7.128-3.174,12.478a13.351,13.351,0,0,1,1.587,11.138l-.561,8.715h0l-.112,1.744h.039l-.039.662h.1v.712a10.578,10.578,0,0,0-5.311,3.954,13.984,13.984,0,0,1-2.372,2.911,1.75,1.75,0,0,0,.28,2.855Zm27.4-23.151a8.284,8.284,0,0,1,.808-4.386h1.6a10.433,10.433,0,0,0,.2,1.054C803.035,414.175,801.2,415.112,799.967,415.516Z" transform="translate(-566.909 -345.81)" fill="url(#linear-gradient)"/>
    <path id="Path_350" data-name="Path 350" d="M808.73,614.982l.875,2.619-2.838,2.838-9.388,2.21-6.769-.656.437-2.4h0a2.9,2.9,0,0,1,2.148-2.12c2.8-.651,8.087-2.142,9.2-4.212Z" transform="translate(-575.223 -458.909)" fill="#db8b8b"/>
    <path id="Path_351" data-name="Path 351" d="M808.73,614.982l.875,2.619-2.838,2.838-9.388,2.21-6.769-.656.437-2.4h0a2.9,2.9,0,0,1,2.148-2.12c2.8-.651,8.087-2.142,9.2-4.212Z" transform="translate(-575.223 -458.909)" opacity="0.1"/>
    <path id="Path_352" data-name="Path 352" d="M788.836,624.2l1.313-1.744-1.312-2.025s-3.926,1.587-5.676,1.369-2.619,2.838.656,3.713,21.833,0,21.833,0,3.275-1.531,0-5.681l-2.838,2.187s-4.806,2.619-7.206,2.182Z" transform="translate(-571.267 -461.795)" fill="#c17174"/>
    <path id="Path_353" data-name="Path 353" d="M784,627.4l6.769.656,9.388-2.187L803,623.033l-.23-.69-.325-.976-.32-.953-6.343-1.744a3.927,3.927,0,0,1-1.284,1.284c-2.058,1.407-5.749,2.423-7.919,2.927a2.127,2.127,0,0,0-.269.084,2.8,2.8,0,0,0-1.122.679,2.861,2.861,0,0,0-.774,1.357Z" transform="translate(-572.32 -461.285)" fill="#db8b8b"/>
    <path id="Path_354" data-name="Path 354" d="M784,630.279l6.769.656,9.388-2.187L803,625.91l-.23-.69-2.608,2s-4.806,2.619-7.207,2.182h-6.775l1.312-1.744-1.178-1.817a2.807,2.807,0,0,0-1.122.679,2.858,2.858,0,0,0-.774,1.357Z" transform="translate(-572.32 -464.162)" opacity="0.1"/>
    <path id="Path_355" data-name="Path 355" d="M782.216,629.653l1.313-1.744-1.312-2.025s-3.926,1.587-5.675,1.369-2.619,2.838.656,3.713,21.833,0,21.833,0,3.275-1.531,0-5.676l-2.838,2.182s-4.806,2.619-7.207,2.182Z" transform="translate(-568.36 -464.193)" fill="#c17174"/>
    <path id="Path_356" data-name="Path 356" d="M797.61,398.21s10.482,1.122,8.973-3.275a7.8,7.8,0,0,1-.325-3.858,10.621,10.621,0,0,1,1.851-4.436l-9.826,1.526a12.26,12.26,0,0,1,1.335,3.157A6.455,6.455,0,0,1,797.61,398.21Z" transform="translate(-578.297 -359.383)" fill="#db8b8b"/>
    <path id="Path_357" data-name="Path 357" d="M819.606,496s-.219,9.388-2.4,13.976l-.437,13.319s.65,12.226,1.963,14.626-2.838,22.708-2.838,22.708v3.494s-6.988,2.619-8.973-.437l1.963-25.983-.875-36.022Z" transform="translate(-582.385 -407.411)" fill="#474463"/>
    <path id="Path_358" data-name="Path 358" d="M819.606,496s-.219,9.388-2.4,13.976l-.437,13.319s.65,12.226,1.963,14.626-2.838,22.708-2.838,22.708v3.494s-6.988,2.619-8.973-.437l1.963-25.983-.875-36.022Z" transform="translate(-582.385 -407.411)" opacity="0.1"/>
    <path id="Path_359" data-name="Path 359" d="M829.652,442.31l1.313,3.494,1.122,7.42a6.59,6.59,0,0,1-1.969,5.681A62.514,62.514,0,0,0,824,466.98l-4.145-12.445s4.145-.656,3.488-3.494a40.32,40.32,0,0,1-.432-8.076Z" transform="translate(-588.069 -383.832)" fill="#ff748e"/>
    <path id="Path_360" data-name="Path 360" d="M829.716,442.22l1.307,3.494,1.122,7.425a6.562,6.562,0,0,1-1.963,5.675,61.876,61.876,0,0,0-6.113,8.081l-4.178-12.461s4.15-.656,3.494-3.494a40.536,40.536,0,0,1-.437-8.081Z" transform="translate(-588.082 -383.793)" opacity="0.05"/>
    <path id="Path_361" data-name="Path 361" d="M802.72,619.977c2.8,4.408,7.162,1.907,7.936,1.413l-.32-.953L804,618.67A3.925,3.925,0,0,1,802.72,619.977Z" transform="translate(-580.541 -461.285)" opacity="0.1"/>
    <path id="Path_362" data-name="Path 362" d="M787.1,492.243c.219,3.056,3.926,14.189,3.926,14.189l2.619,9.164a73.126,73.126,0,0,1,2.877,19.932,19.465,19.465,0,0,0,.836,6.276c1.75,4.806-1.744,11.351-1.744,11.351,3.057,5.462,8.295,1.75,8.295,1.75V551.41s4.15-18.995,3.056-22.708-1.525-13.751-1.525-13.751V496.825a20.564,20.564,0,0,0,5.99-13.033c.051-.718.1-1.469.123-2.243.174-4.924-3.2-10.7-4.487-12.759-.314-.5-.516-.779-.516-.779l-19.276,7.65h-.045v2.406Z" transform="translate(-573.681 -395.119)" fill="#474463"/>
    <path id="Path_363" data-name="Path 363" d="M798.78,388.165a12.257,12.257,0,0,1,1.335,3.157,8.535,8.535,0,0,0,6.64-.247,10.621,10.621,0,0,1,1.851-4.436Z" transform="translate(-578.811 -359.383)" opacity="0.1"/>
    <ellipse id="Ellipse_27" data-name="Ellipse 27" cx="8.513" cy="8.513" rx="8.513" ry="8.513" transform="translate(215.825 15.031)" fill="#db8b8b"/>
    <path id="Path_364" data-name="Path 364" d="M787.1,478.031h.1c9.153,1.884,20.649-7.655,20.649-7.655a11.375,11.375,0,0,1-.8-1.626c-.314-.5-.516-.78-.516-.78l-19.276,7.65-.051.763Z" transform="translate(-573.681 -395.101)" opacity="0.1"/>
    <path id="Path_365" data-name="Path 365" d="M787.661,402.881s12.226-7.425,16.152-4.369l5.462,6.988s3.494,1.094,2.843,8.1l2.619,12.663-7.851,1.963s-4.582,4.369-.869,10.7c0,0-11.575,9.607-20.75,7.638l.656-10.257a13.316,13.316,0,0,0-1.526-10.919c-3.488-5.238-.219-10.263,3.057-12.226C787.443,413.144,788.968,404.844,787.661,402.881Z" transform="translate(-571.836 -364.273)" fill="#ff748e"/>
    <path id="Path_366" data-name="Path 366" d="M782.685,486.3s-4.588.875-6.769,4.369a13.638,13.638,0,0,1-2.288,2.855,1.727,1.727,0,0,0,.275,2.759c1.733,1.043,4.554,1.682,8.126-1.251C788.17,490.013,782.685,486.3,782.685,486.3Z" transform="translate(-567.516 -403.152)" fill="#db8b8b"/>
    <path id="Path_367" data-name="Path 367" d="M796.475,414.151s4.363-.437,5.457,10.914,2.838,13.976,2.838,13.976,1.094,5.894-1.531,9.388-7.638,10.919-7.638,10.919-5.457,1.525-6.551-3.926l6.769-12.663s1.088-4.369-1.531-7.425S789.706,411.964,796.475,414.151Z" transform="translate(-574.537 -371.393)" opacity="0.1"/>
    <path id="Path_368" data-name="Path 368" d="M795.717,412.982s4.363-.437,5.457,10.919,2.838,13.97,2.838,13.97,1.122,5.894-1.525,9.388-7.616,10.919-7.616,10.919-5.457,1.526-6.55-3.926l6.769-12.663s1.094-4.369-1.531-7.425S788.948,410.8,795.717,412.982Z" transform="translate(-574.217 -370.88)" fill="#ff748e"/>
    <path id="Path_369" data-name="Path 369" d="M795.048,427.71s-.432,6.769,1.531,10.482,1.963,8.513,0,11.132" transform="translate(-577.154 -377.42)" opacity="0.1"/>
    <path id="Path_370" data-name="Path 370" d="M793.14,410.007s1.744-1.744,6.769-1.963,7.2-1.744,7.2-1.744" transform="translate(-576.334 -368.017)" opacity="0.1"/>
    <path id="Path_371" data-name="Path 371" d="M804.589,360.207c1.329.163,2.843.617,3.32,1.862a12.407,12.407,0,0,1,.308,1.441c.494,1.907,2.642,2.8,3.965,4.251a10.2,10.2,0,0,1,2.064,4.728,44.4,44.4,0,0,1,.768,14.834c-.426,3.617-1.3,7.184-1.542,10.818s.2,7.464,2.187,10.521a25.377,25.377,0,0,1,2.591,3.926,7.565,7.565,0,0,1-4.593,1.217q-2.8.1-5.636,0a5.986,5.986,0,0,1-2.86-.6,4.412,4.412,0,0,1-1.5-1.61,11.524,11.524,0,0,1-1.3-6.13c.045-2.114.381-4.217.421-6.337a5.506,5.506,0,0,0-.735-3.32,10.7,10.7,0,0,0-1.828-1.682c-2.339-2.075-3.141-5.4-3.219-8.519s.437-6.248.174-9.36c-.1-1.217-.561-2.681-1.755-2.916a6.381,6.381,0,0,1-1.122-.146c-.959-.37-.864-1.722-1.122-2.714-.309-1.122-1.262-1.98-1.531-3.1-.628-2.642,2.737-5.8,4.941-6.73S802.228,359.915,804.589,360.207Z" transform="translate(-575.641 -347.666)" opacity="0.1"/>
    <path id="Path_372" data-name="Path 372" d="M804.979,359.434c1.329.163,2.843.617,3.32,1.867a12.055,12.055,0,0,1,.308,1.436c.494,1.907,2.642,2.8,3.965,4.251a10.206,10.206,0,0,1,2.064,4.728,44.4,44.4,0,0,1,.763,14.851c-.421,3.617-1.3,7.184-1.536,10.824s.2,7.459,2.187,10.515a25.676,25.676,0,0,1,2.591,3.926,7.529,7.529,0,0,1-4.593,1.217q-2.8.09-5.636,0a5.978,5.978,0,0,1-2.86-.595,4.427,4.427,0,0,1-1.5-1.615,11.523,11.523,0,0,1-1.3-6.13c.045-2.114.382-4.217.421-6.332a5.655,5.655,0,0,0-.734-3.32,10.515,10.515,0,0,0-1.828-1.682c-2.339-2.075-3.141-5.4-3.219-8.519s.438-6.248.174-9.36c-.1-1.217-.561-2.681-1.755-2.916a6.381,6.381,0,0,1-1.122-.146c-.959-.37-.864-1.722-1.122-2.714-.308-1.122-1.262-1.974-1.531-3.1-.628-2.641,2.737-5.8,4.941-6.73S802.635,359.143,804.979,359.434Z" transform="translate(-575.812 -347.331)" fill="#464353"/>
    <path id="Path_373" data-name="Path 373" d="M200.28,631.763s3.138-.1,4.081-.77,4.825-1.478,5.059-.4,4.714,5.369,1.171,5.4-8.227-.553-9.172-1.127S200.28,631.763,200.28,631.763Z" transform="translate(-162.795 -464.076)" fill="#a8a8a8"/>
    <path id="Path_374" data-name="Path 374" d="M210.656,639.679c-3.54.029-8.227-.55-9.169-1.124-.717-.439-1-2.008-1.1-2.734h-.105s.2,2.529,1.142,3.1,5.63,1.154,9.172,1.127c1.022,0,1.373-.372,1.355-.91C211.806,639.477,211.417,639.679,210.656,639.679Z" transform="translate(-162.795 -468.145)" opacity="0.2"/>
    <path id="Path_375" data-name="Path 375" d="M881.17,492.4a7.893,7.893,0,0,0,2.8-.53c.65-.463,3.311-1.013,3.472-.272s3.238,3.686.805,3.706-5.647-.381-6.294-.773S881.17,492.4,881.17,492.4Z" transform="translate(-644.345 -365.888)" fill="#a8a8a8"/>
    <path id="Path_376" data-name="Path 376" d="M888.293,497.849c-2.43.018-5.647-.381-6.294-.773-.495-.293-.691-1.379-.755-1.877h-.073s.138,1.736.785,2.131,3.865.79,6.294.773c.7,0,.946-.255.931-.627C889.083,497.706,888.817,497.844,888.293,497.849Z" transform="translate(-644.345 -368.694)" opacity="0.2"/>
    <circle id="Ellipse_28" data-name="Ellipse 28" cx="6.332" cy="6.332" r="6.332" transform="translate(2.828 0)" fill="#f17f07" opacity="0.1"/>
    <circle id="Ellipse_29" data-name="Ellipse 29" cx="6.332" cy="6.332" r="6.332" transform="translate(275.098 18.151)" fill="#f17f07" opacity="0.1"/>
    <circle id="Ellipse_30" data-name="Ellipse 30" cx="4.684" cy="4.684" r="4.684" transform="translate(0 26.401)" fill="#f17f07" opacity="0.1"/>
    <circle id="Ellipse_31" data-name="Ellipse 31" cx="4.684" cy="4.684" r="4.684" transform="translate(47.428 0.053)" fill="#f17f07" opacity="0.1"/>
    <circle id="Ellipse_32" data-name="Ellipse 32" cx="4.684" cy="4.684" r="4.684" transform="translate(239.481 0.638)" fill="#f17f07" opacity="0.1"/>
    <path id="Path_377" data-name="Path 377" d="M954.067,709.49s1.171,1.534-.542,3.85-3.127,4.268-2.556,5.712c0,0,2.585-4.3,4.684-4.359S956.379,712.078,954.067,709.49Z" transform="translate(-693.618 -520.247)" fill="#fc6681"/>
    <path id="Path_378" data-name="Path 378" d="M954.215,709.49a1.88,1.88,0,0,1,.237.483c2.049,2.412,3.15,4.664,1.171,4.719-1.839.053-4.043,3.34-4.573,4.172a1.575,1.575,0,0,0,.064.187s2.585-4.3,4.684-4.359S956.528,712.078,954.215,709.49Z" transform="translate(-693.766 -520.247)" opacity="0.1"/>
    <path id="Path_379" data-name="Path 379" d="M968.649,715.325c0,.539-.061.978-.135.978s-.135-.439-.135-.978.076-.293.149-.293S968.649,714.783,968.649,715.325Z" transform="translate(-706.023 -524.127)" fill="#ffd037"/>
    <path id="Path_380" data-name="Path 380" d="M969.615,717.479c-.474.258-.878.413-.925.348s.322-.328.793-.586.293-.07.325,0S970.09,717.221,969.615,717.479Z" transform="translate(-706.239 -525.637)" fill="#ffd037"/>
    <path id="Path_381" data-name="Path 381" d="M934.364,709.49s-1.171,1.534.542,3.85,3.127,4.268,2.556,5.712c0,0-2.588-4.3-4.684-4.359S932.048,712.078,934.364,709.49Z" transform="translate(-680.11 -520.247)" fill="#fc6681"/>
    <path id="Path_382" data-name="Path 382" d="M934.369,709.49a1.941,1.941,0,0,0-.24.483c-2.049,2.412-3.147,4.664-1.171,4.719,1.839.053,4.046,3.34,4.573,4.172-.018.062-.038.126-.062.187,0,0-2.588-4.3-4.684-4.359S932.053,712.078,934.369,709.49Z" transform="translate(-680.115 -520.247)" opacity="0.1"/>
    <path id="Path_383" data-name="Path 383" d="M933.25,715.325c0,.539.062.978.138.978s.135-.439.135-.978-.076-.293-.152-.293S933.25,714.783,933.25,715.325Z" transform="translate(-681.177 -524.127)" fill="#ffd037"/>
    <path id="Path_384" data-name="Path 384" d="M930.009,717.479c.474.258.878.413.922.348s-.319-.328-.793-.586-.293-.07-.322,0S929.535,717.221,930.009,717.479Z" transform="translate(-678.683 -525.637)" fill="#ffd037"/>
    <path id="Path_385" data-name="Path 385" d="M934.53,737.19s3.279-.1,4.266-.805,5.044-1.543,5.29-.416,4.924,5.612,1.224,5.642-8.6-.586-9.585-1.171S934.53,737.19,934.53,737.19Z" transform="translate(-682.083 -538.585)" fill="#a8a8a8"/>
    <path id="Path_386" data-name="Path 386" d="M945.377,745.5c-3.7.029-8.6-.586-9.588-1.171-.749-.457-1.051-2.1-1.151-2.857h-.108s.208,2.635,1.194,3.244,5.885,1.206,9.585,1.171c1.069,0,1.438-.389,1.417-.952C946.58,745.279,946.17,745.493,945.377,745.5Z" transform="translate(-682.083 -542.865)" opacity="0.2"/>
    <path id="Path_387" data-name="Path 387" d="M373.838,189.06a6.148,6.148,0,1,0,6.148,6.148A6.148,6.148,0,0,0,373.838,189.06Zm0,1.192a4.977,4.977,0,1,1-4.977,4.977,4.977,4.977,0,0,1,4.977-4.977m3.481,3.235-.559-.565a.293.293,0,0,0-.422,0l-3.513,3.481-1.481-1.5a.293.293,0,0,0-.422,0l-.562.559a.293.293,0,0,0,0,.422l2.254,2.272a.293.293,0,0,0,.422,0l4.283-4.251a.293.293,0,0,0,0-.422Z" transform="translate(-281.193 -152.181)" fill="#3acc6c" opacity="0.7"/>
    <path id="Path_388" data-name="Path 388" d="M144.715,294.995a6.148,6.148,0,1,0,4.649.775A6.148,6.148,0,0,0,144.715,294.995Zm.269,1.171a4.977,4.977,0,1,1-3.721,5.955,4.977,4.977,0,0,1,3.721-5.955m4.119,2.371-.673-.433a.293.293,0,0,0-.41.094l-2.635,4.181-1.783-1.127a.293.293,0,0,0-.41.094l-.424.673a.293.293,0,0,0,.094.41l2.705,1.707a.293.293,0,0,0,.413-.094l3.22-5.1a.293.293,0,0,0-.091-.41Z" transform="translate(-120.132 -226.989)" fill="#3acc6c" opacity="0.7"/>
    <path id="Path_389" data-name="Path 389" d="M679.908,192.1a6.148,6.148,0,1,0,6.148,6.148A6.148,6.148,0,0,0,679.908,192.1Zm0,1.192a4.977,4.977,0,1,1-4.977,4.977,4.977,4.977,0,0,1,4.977-4.977m3.481,3.235-.559-.565a.293.293,0,0,0-.422,0l-3.513,3.481-1.484-1.5a.293.293,0,0,0-.422,0l-.559.565a.293.293,0,0,0,0,.422l2.254,2.272a.293.293,0,0,0,.422,0l4.283-4.251a.293.293,0,0,0,0-.422Z" transform="translate(-497.657 -154.331)" fill="#3acc6c" opacity="0.7"/>
    <path id="Path_390" data-name="Path 390" d="M919.688,295.765a6.148,6.148,0,1,0,4.2,2.135A6.148,6.148,0,0,0,919.688,295.765Zm-.094,1.186a4.962,4.962,0,1,1-3.614,1.178,4.977,4.977,0,0,1,3.614-1.178m3.22,3.5-.515-.606a.293.293,0,0,0-.419-.035l-3.768,3.2-1.364-1.607a.293.293,0,0,0-.422-.035l-.606.515a.293.293,0,0,0-.032.419l2.07,2.439a.293.293,0,0,0,.419.035l4.6-3.905a.293.293,0,0,0,.035-.419Z" transform="translate(-666.901 -227.633)" fill="#3acc6c" opacity="0.7"/>
  </g>
</svg>
