<svg xmlns="http://www.w3.org/2000/svg" xmlns:xlink="http://www.w3.org/1999/xlink" width="340.39" height="231.762" viewBox="0 0 340.39 231.762">
  <defs>
    <linearGradient id="linear-gradient" x1="0.501" y1="1" x2="0.501" gradientUnits="objectBoundingBox">
      <stop offset="0" stop-color="gray" stop-opacity="0.251"/>
      <stop offset="0.54" stop-color="gray" stop-opacity="0.122"/>
      <stop offset="1" stop-color="gray" stop-opacity="0.102"/>
    </linearGradient>
  </defs>
  <g id="undraw_mobile_marketing_iqbr" transform="translate(0 -59.421)">
    <path id="Path_419" data-name="Path 419" d="M238.285,71.945c-14.482-.5-28.275-5.178-41.445-10.293s-26.216-10.783-40.36-13.493C147.4,46.416,137,46.17,129.673,51.041c-7.049,4.7-9.326,12.788-10.55,20.3-.922,5.654-1.463,11.6,1.061,16.894,1.754,3.674,4.865,6.762,7.017,10.293,7.489,12.244,2.2,27.344-5.919,39.3-3.8,5.607-8.223,10.964-11.161,16.93s-4.3,12.81-1.725,18.9c2.546,6.042,8.617,10.571,15.193,13.761,13.356,6.476,29.089,8.331,44.441,9.38,33.974,2.325,68.127,1.318,102.19.311,12.607-.374,25.267-.752,37.668-2.7,6.887-1.083,14-2.8,19-6.937,6.348-5.265,7.921-14.182,3.667-20.783-7.134-11.074-26.851-13.826-31.844-25.71-2.743-6.541.074-13.828,4.064-19.895,8.557-13.016,22.9-24.433,23.652-39.311.519-10.217-6.375-20.45-17.035-25.285-11.172-5.068-26.668-4.43-34.907,3.958C265.988,69.065,251.072,72.388,238.285,71.945Z" transform="translate(-2.369 52.528)" fill="#f17f07" opacity="0.1"/>
    <ellipse id="Ellipse_39" data-name="Ellipse 39" cx="62.08" cy="6.327" rx="62.08" ry="6.327" transform="translate(11.819 260.772)" fill="#f17f07" opacity="0.1"/>
    <ellipse id="Ellipse_40" data-name="Ellipse 40" cx="29.082" cy="2.965" rx="29.082" ry="2.965" transform="translate(182.852 285.254)" fill="#f17f07" opacity="0.1"/>
    <ellipse id="Ellipse_41" data-name="Ellipse 41" cx="29.082" cy="2.965" rx="29.082" ry="2.965" transform="translate(282.225 270.315)" fill="#f17f07" opacity="0.1"/>
    <path id="Path_421" data-name="Path 421" d="M815.715,132.654s-26.139-1.577-23.057,16.739a4.451,4.451,0,0,0,2.322,4.706s.047-1.357,2.679-.9a11.932,11.932,0,0,0,2.841.137,5.9,5.9,0,0,0,3.474-1.431h0s7.345-3.036,10.2-15.044c0,0,2.114-2.62,2.03-3.294l-4.411,1.884s1.506,3.182.31,5.827c0,0-.143-5.712-.99-5.588-.174.025-2.294,1.1-2.294,1.1s2.6,5.541.621,9.571c0,0,.742-6.83-1.447-9.171l-3.1,1.813s3.03,5.725.978,10.4c0,0,.525-7.165-1.63-9.956l-2.813,2.195s2.847,5.641,1.111,9.515c0,0-.23-8.339-1.723-8.969a17.294,17.294,0,0,0-2.837,3.061s1.95,4.1.742,6.259c0,0-.742-5.557-1.35-5.588,0,0-2.453,3.682-2.707,6.209a13.393,13.393,0,0,1,2.111-6.557,7.387,7.387,0,0,0-3.753,1.943s.382-2.6,4.346-2.831c0,0,2.027-2.794,2.57-2.962,0,0-3.958-.332-6.358.733,0,0,2.111-2.456,7.084-1.338l2.775-2.269s-5.209-.711-7.42.075c0,0,2.546-2.173,8.171-.59l3.024-1.807a27.6,27.6,0,0,0-7.091-.621s2.794-1.506,7.975.127l2.173-.972s-3.257-.64-4.21-.742-1-.363-1-.363a11.284,11.284,0,0,1,6.156.7S815.793,132.943,815.715,132.654Z" transform="translate(-562.479 -65.072)" fill="#f17f07"/>
    <path id="Path_422" data-name="Path 422" d="M757.74,106.456s-11.8-.711-10.419,7.566a2.019,2.019,0,0,0,1.049,2.127s.022-.621,1.211-.407a5.436,5.436,0,0,0,1.282.062,2.676,2.676,0,0,0,1.571-.646h0s3.319-1.372,4.61-6.8c0,0,.956-1.183.931-1.487l-1.993.851a3.571,3.571,0,0,1,.143,2.633s-.062-2.58-.447-2.521c-.078,0-1.034.5-1.034.5s1.17,2.5.286,4.324c0,0,.335-3.086-.652-4.144l-1.4.82s1.369,2.586.441,4.7c0,0,.239-3.238-.736-4.5l-1.273.993s1.288,2.549.5,4.3c0,0-.1-3.769-.776-4.054a7.67,7.67,0,0,0-1.282,1.385s.879,1.863.332,2.828c0,0-.335-2.511-.621-2.524a8.357,8.357,0,0,0-1.223,2.794,6.041,6.041,0,0,1,.953-2.962,3.325,3.325,0,0,0-1.7.879s.171-1.177,1.968-1.279a7.752,7.752,0,0,1,1.161-1.341,7.279,7.279,0,0,0-2.872.332s.953-1.108,3.2-.621l1.242-1.024a10.712,10.712,0,0,0-3.353.034s1.152-.981,3.691-.267l1.366-.816a12.41,12.41,0,0,0-3.2-.276,4.911,4.911,0,0,1,3.6.056l.978-.438s-1.468-.289-1.9-.335-.453-.165-.453-.165a5.079,5.079,0,0,1,2.76.31A12.519,12.519,0,0,0,757.74,106.456Z" transform="translate(-531.314 -47.02)" fill="#f17f07"/>
    <ellipse id="Ellipse_42" data-name="Ellipse 42" cx="12.483" cy="2.111" rx="12.483" ry="2.111" transform="translate(0 249.521)" fill="#f17f07"/>
    <path id="Path_423" data-name="Path 423" d="M82.939,701.682a3.61,3.61,0,0,0,1.192-1.794,1.609,1.609,0,0,0-.832-1.828c-.764-.295-1.58.236-2.2.77a2.935,2.935,0,0,1-2.139,1.031,3.25,3.25,0,0,0,1-3.045,1.242,1.242,0,0,0-.279-.621c-.422-.453-1.192-.258-1.7.1-1.614,1.136-2.064,3.328-2.071,5.3a9.782,9.782,0,0,1-.031-2.173,2.239,2.239,0,0,0-.82-1.931,2.485,2.485,0,0,0-1.242-.295,2.6,2.6,0,0,0-2.03.577,2,2,0,0,0,.081,2.484,8.118,8.118,0,0,0,2.1,1.683,4.631,4.631,0,0,1,1.5,1.431,1.371,1.371,0,0,1,.112.255h4.548a12.655,12.655,0,0,0,2.813-1.943Z" transform="translate(-65.296 -453.505)" fill="#f17f07"/>
    <path id="Path_424" data-name="Path 424" d="M865.926,630.54s2.685,3.514-1.242,8.817-7.162,9.779-5.852,13.085c0,0,5.923-9.847,10.745-9.987S871.229,636.463,865.926,630.54Z" transform="translate(-608.08 -408.415)" fill="#f17f07"/>
    <path id="Path_425" data-name="Path 425" d="M866.266,630.54a4.424,4.424,0,0,1,.55,1.1c4.7,5.526,7.208,10.685,2.685,10.813-4.21.121-9.264,7.652-10.471,9.552a3.571,3.571,0,0,0,.143.435s5.923-9.847,10.745-9.987S871.569,636.463,866.266,630.54Z" transform="translate(-608.42 -408.415)" opacity="0.1"/>
    <path id="Path_426" data-name="Path 426" d="M897.041,643.241c0,1.242-.14,2.238-.31,2.238s-.31-1-.31-2.238.174-.652.345-.652S897.041,642,897.041,643.241Z" transform="translate(-634.203 -416.627)" fill="#ffd037"/>
    <path id="Path_427" data-name="Path 427" d="M899.231,647.835c-1.087.59-2.03.95-2.114.8s.733-.751,1.819-1.344.655-.158.739,0S900.318,647.242,899.231,647.835Z" transform="translate(-634.679 -419.756)" fill="#ffd037"/>
    <path id="Path_428" data-name="Path 428" d="M823.256,630.54s-2.685,3.514,1.242,8.817,7.162,9.779,5.855,13.085c0,0-5.923-9.847-10.745-9.987S817.953,636.463,823.256,630.54Z" transform="translate(-579.597 -408.415)" fill="#f17f07"/>
    <path id="Path_429" data-name="Path 429" d="M823.251,630.54a4.3,4.3,0,0,0-.549,1.1c-4.7,5.526-7.208,10.686-2.688,10.813,4.213.121,9.264,7.652,10.474,9.552a4.157,4.157,0,0,1-.143.435s-5.923-9.847-10.744-9.987S817.948,636.463,823.251,630.54Z" transform="translate(-579.592 -408.415)" opacity="0.1"/>
    <path id="Path_430" data-name="Path 430" d="M820.55,643.241c0,1.242.14,2.238.31,2.238s.31-1,.31-2.238-.174-.652-.345-.652S820.55,642,820.55,643.241Z" transform="translate(-581.886 -416.627)" fill="#ffd037"/>
    <path id="Path_431" data-name="Path 431" d="M813.543,647.835c1.083.59,2.03.95,2.111.8s-.729-.751-1.816-1.344-.658-.158-.739,0S812.469,647.242,813.543,647.835Z" transform="translate(-576.602 -419.756)" fill="#ffd037"/>
    <path id="Path_432" data-name="Path 432" d="M823.31,690.6s7.51-.233,9.773-1.844,11.552-3.536,12.107-.95,11.285,12.856,2.794,12.924-19.7-1.323-21.958-2.7S823.31,690.6,823.31,690.6Z" transform="translate(-583.789 -447.028)" fill="#a8a8a8"/>
    <path id="Path_433" data-name="Path 433" d="M848.155,708.819c-8.478.068-19.7-1.323-21.958-2.7-1.723-1.046-2.406-4.806-2.636-6.541h-.251s.475,6.057,2.735,7.432,13.479,2.766,21.958,2.7c2.446-.022,3.294-.891,3.247-2.173C850.909,708.316,849.977,708.8,848.155,708.819Z" transform="translate(-583.789 -456.022)" opacity="0.2"/>
    <rect id="Rectangle_196" data-name="Rectangle 196" width="24.224" height="24.224" transform="translate(181.464 192.431)" fill="#3a3768" opacity="0.3"/>
    <rect id="Rectangle_197" data-name="Rectangle 197" width="24.224" height="24.224" transform="translate(145.763 160.455)" fill="#3a3768" opacity="0.3"/>
    <rect id="Rectangle_198" data-name="Rectangle 198" width="24.224" height="24.224" transform="translate(148.091 223.86)" fill="#3a3768" opacity="0.3"/>
    <rect id="Rectangle_199" data-name="Rectangle 199" width="24.224" height="24.224" transform="translate(142.687 100.977)" fill="#fff"/>
    <path id="Path_434" data-name="Path 434" d="M563.64,265.79l-.86.857a3.033,3.033,0,0,1,0,4.293l.86.863A4.253,4.253,0,0,0,563.64,265.79Z" transform="translate(-404.14 -156.9)" fill="#f17f07"/>
    <path id="Path_435" data-name="Path 435" d="M538.288,258.888l-.848.848a5.4,5.4,0,0,1,0,7.625l.847.848a6.588,6.588,0,0,0,0-9.313Zm-4.036,3.173V258.18h-1.2l-3.576,2.98h-4.768l-1.192.6v4.175l1.192.6L527.7,271.3h1.788l-1.118-4.772h1.118l3.576,2.387h1.2v-3.881a1.524,1.524,0,0,0,0-2.974Z" transform="translate(-377.068 -151.653)" fill="#f17f07"/>
    <rect id="Rectangle_200" data-name="Rectangle 200" width="24.224" height="24.224" transform="matrix(0.742, -0.671, 0.671, 0.742, 182.871, 199.951)" fill="#fff"/>
    <path id="Path_436" data-name="Path 436" d="M673.34,543.831l1.757-1.6,9.624,10.608-1.77,1.6Zm4.151,9.934,1.77-1.6,2.794,3.1-1.77,1.6ZM681.2,547.2l1.77-1.6,4.4,4.865-1.766,1.6Zm.252-5.054,1.77-1.6,6.8,7.516-1.77,1.6Z" transform="translate(-480.377 -346.355)" fill="#f17f07"/>
    <rect id="Rectangle_201" data-name="Rectangle 201" width="36.648" height="36.648" transform="translate(183.064 126.744)" fill="#fff"/>
    <path id="Path_437" data-name="Path 437" d="M666.72,363.47l-4.917,7.515a2.677,2.677,0,0,1,.611,1.71,2.71,2.71,0,0,1-5.415,0,2.979,2.979,0,0,1,.047-.5l-3.25-1.879a2.719,2.719,0,0,1-3.208.4l-3.457,3.236v3.227a2.414,2.414,0,0,0,2.409,2.409h20.449a2.419,2.419,0,0,0,2.409-2.409V365.193L669.11,363a2.677,2.677,0,0,1-1.658.573,2.758,2.758,0,0,1-.714-.1Z" transform="translate(-458.374 -222.791)" fill="#f17f07"/>
    <path id="Path_438" data-name="Path 438" d="M651.921,357.884a2.705,2.705,0,0,1,2.71,2.705,1.757,1.757,0,0,1-.023.352L658,362.82a2.662,2.662,0,0,1,1.714-.611,2.6,2.6,0,0,1,.582.066l4.931-7.637a2.705,2.705,0,1,1,4.913-1.569,2.824,2.824,0,0,1-.075.639l2.348,1.555v-4.518a2.414,2.414,0,0,0-2.409-2.4H649.539a2.409,2.409,0,0,0-2.409,2.4v12.935l2.254-2.16a2.7,2.7,0,0,1,2.536-3.635Z" transform="translate(-458.374 -215.016)" fill="#f17f07"/>
    <rect id="Rectangle_202" data-name="Rectangle 202" width="24.224" height="24.224" transform="translate(150.442 157.177)" fill="#fff"/>
    <path id="Path_439" data-name="Path 439" d="M565.472,435.407l-14.9,8.072a.31.31,0,0,0,.022.556l2.542.959a.621.621,0,0,1,.335.31l1.974,4.067c.037.18.369.23.372.047l-.31-3.362a1.2,1.2,0,0,1,.273-.68l7.724-7.569a.193.193,0,0,1,.171-.05.177.177,0,0,1,.1.282l-6.659,8.14a1.487,1.487,0,0,0-.261.671l-.4,2.9c.031.255.23.351.391.124l1.434-1.686a.31.31,0,0,1,.422-.068l3.7,2.695a.31.31,0,0,0,.469-.183l3.033-14.9a.31.31,0,0,0-.435-.335Z" transform="translate(-395.609 -273.835)" fill="#f17f07"/>
    <path id="Path_440" data-name="Path 440" d="M1022.238,772.231a9.442,9.442,0,0,0,4.222-.143c.208-.065.447-.208.419-.422a.494.494,0,0,0-.1-.2,13.172,13.172,0,0,1-1.282-2.431.2.2,0,0,0-.078-.109.189.189,0,0,0-.137,0c-.621.161-1.161.565-1.782.736a2.547,2.547,0,0,1-.969.075c-.279-.031-.664-.264-.916-.236C1021.775,770.418,1022.129,771.29,1022.238,772.231Z" transform="translate(-720.535 -503.828)" fill="#f17f07"/>
    <path id="Path_441" data-name="Path 441" d="M1106.106,761.284a7.213,7.213,0,0,0,2.443-2.294.374.374,0,0,0,.065-.2.4.4,0,0,0-.077-.193,7.954,7.954,0,0,0-1.984-2.142,5.871,5.871,0,0,0-1.108,1.021c-.233.245-.879.649-.885,1.015,0,.22.245.459.36.621.155.23.31.466.444.7A11.633,11.633,0,0,1,1106.106,761.284Z" transform="translate(-777.727 -495.244)" fill="#f17f07"/>
    <path id="Path_442" data-name="Path 442" d="M1009.445,778.4a.931.931,0,0,1-.168.621.829.829,0,0,1-.357.208c-1.974.7-4.247-.177-6.209.521-.407.143-.789.348-1.2.484a6.471,6.471,0,0,1-1.481.264c-.7.068-1.4.109-2.1.127a5.071,5.071,0,0,1-1.577-.137,1.909,1.909,0,0,1-1.211-.959.931.931,0,0,1-.059-.683.772.772,0,0,1,.127-.22,1.888,1.888,0,0,1,.466-.376l.726-.469a4.852,4.852,0,0,1,1.1-.584c.286-.093.593-.133.882-.217a6.091,6.091,0,0,0,2.521-1.884l.987-1.052a.966.966,0,0,1,.341-.273.932.932,0,0,1,.422-.043,5.7,5.7,0,0,1,2.692.907,3.89,3.89,0,0,0,.664.391,2.372,2.372,0,0,0,1.863-.233c.255-.133.2-.217.31-.456s.366-.394.59-.174a.648.648,0,0,1,.14.267,7.406,7.406,0,0,1,.134,2.195.973.973,0,0,0,.043.341,2.082,2.082,0,0,0,.192.31.491.491,0,0,1,.04.081,2.154,2.154,0,0,1,.112,1.043Z" transform="translate(-702.216 -507.143)" fill="#514e7f"/>
    <path id="Path_443" data-name="Path 443" d="M1009.445,786.48a.931.931,0,0,1-.168.621.829.829,0,0,1-.357.208c-1.974.7-4.247-.177-6.209.521-.407.143-.789.348-1.2.484a6.471,6.471,0,0,1-1.481.264c-.7.068-1.4.109-2.1.127a5.066,5.066,0,0,1-1.577-.137,1.909,1.909,0,0,1-1.211-.959.931.931,0,0,1-.059-.683.775.775,0,0,1,.127-.22c.118.242.2.559.273.674a1.379,1.379,0,0,0,.931.667,2.363,2.363,0,0,0,.841-.109c1.788-.444,3.688-.45,5.4-1.121a12.917,12.917,0,0,1,1.77-.68,14.067,14.067,0,0,1,1.912-.155c1.009-.081,1.984-.385,2.98-.543A2.155,2.155,0,0,1,1009.445,786.48Z" transform="translate(-702.216 -515.227)" fill="#464353"/>
    <path id="Path_444" data-name="Path 444" d="M1099.277,763.984a3.583,3.583,0,0,1-1.09,1.94,12.454,12.454,0,0,0-1.521,1.667A13.7,13.7,0,0,1,1095.26,770a3.808,3.808,0,0,1-.844.621,5.841,5.841,0,0,1-1.1.5,8.389,8.389,0,0,1-3.1.171,2.761,2.761,0,0,1-.981-.193,2.843,2.843,0,0,1-.416-.251,1.975,1.975,0,0,1-.621-.643.646.646,0,0,1-.059-.463,1.054,1.054,0,0,1,.311-.453,7,7,0,0,1,.748-.674,4.437,4.437,0,0,0,.975-.857,2.794,2.794,0,0,0,.376-.857,7.667,7.667,0,0,0,.273-1.63,5.141,5.141,0,0,1,.115-1.09c.158-.559.574-1.065.525-1.645a.422.422,0,0,1,.022-.248.388.388,0,0,1,.2-.121,3.538,3.538,0,0,1,1.018-.233,1.174,1.174,0,0,1,.931.369c.146.174.239.416.453.494a.751.751,0,0,0,.31,0,2.64,2.64,0,0,0,1.478-.456,1.862,1.862,0,0,0,.621-1.357c0-.193-.087-.394.208-.435.227-.031.4.2.518.36a5.068,5.068,0,0,1,1,1.816.5.5,0,0,1,.189-.037.811.811,0,0,1,.677.348A1.341,1.341,0,0,1,1099.277,763.984Z" transform="translate(-766.39 -498.065)" fill="#514e7f"/>
    <path id="Path_445" data-name="Path 445" d="M1099.45,768.783a3.583,3.583,0,0,1-1.09,1.94,12.449,12.449,0,0,0-1.521,1.667,13.7,13.7,0,0,1-1.406,2.409,3.808,3.808,0,0,1-.844.621,5.83,5.83,0,0,1-1.1.5,8.386,8.386,0,0,1-3.1.171,2.76,2.76,0,0,1-.981-.192,2.852,2.852,0,0,1-.416-.251,1.974,1.974,0,0,1-.621-.643,1.512,1.512,0,0,1,.64-.152c.463.025.8.459,1.242.593.621.189,1.242-.255,1.891-.407.416-.1.857-.068,1.264-.2a3.119,3.119,0,0,0,.931-.565,4.728,4.728,0,0,0,1-.962,6.143,6.143,0,0,0,.587-1.167,16.674,16.674,0,0,1,1.183-2.263,1.509,1.509,0,0,1,.242-.31c.1-.09.217-.155.311-.236a2.468,2.468,0,0,0,.751-1.369,2.3,2.3,0,0,1,.168-.456.811.811,0,0,1,.677.348A1.341,1.341,0,0,1,1099.45,768.783Z" transform="translate(-766.563 -502.864)" fill="#464353"/>
    <path id="Path_446" data-name="Path 446" d="M978.55,546.291a4.508,4.508,0,0,1,1.267,1.481c.31.584,2.015,5.116,1.915,5.765.559-.565,2.775-.658,3.331-1.22.236-.236,1.512-1.416,1.7-1.689s1.611-.86,1.766-1.139c.581-1.04-4.117-4.967-3.517-6.01a.254.254,0,0,0,.05-.161.248.248,0,0,0-.078-.124,7.468,7.468,0,0,0-1.36-.931,2.174,2.174,0,0,1-1.037-1.242,4.46,4.46,0,0,0-1.2.813q-1.288,1.1-2.539,2.26c-.329.31-.956.7-1.108,1.136S978.236,546.037,978.55,546.291Z" transform="translate(-690.261 -346.686)" fill="#a1616a"/>
    <path id="Path_447" data-name="Path 447" d="M991.733,552.61a13.611,13.611,0,0,0-2.012,1.645,4.025,4.025,0,0,0-1.282,2.052c-.059.31-.05.639-.1.959-.208,1.391-1.416,2.412-1.947,3.725a6.37,6.37,0,0,0-.341,1.242,14.633,14.633,0,0,0-.242,2.44c0,.795.764,1.341,1.049,2.083a12.641,12.641,0,0,1,.506,2.257,27.5,27.5,0,0,0,1.27,4.191c1.049,2.9,4.449,10.906,5.5,13.805,3.213-.807,11.769-2.661,14.613-4.346.95-.565-6.581-6.948-5.566-7.389a.512.512,0,0,0,.283-.214.491.491,0,0,0,0-.31c-1.012-4.436-4.188-8.072-5.625-12.418a37.507,37.507,0,0,0-2.08-4.207c-.621-1.291-.947-2.716-1.683-3.943a2.633,2.633,0,0,0-.537-.674,3.294,3.294,0,0,0-.6-.357C992.534,552.936,992.143,552.815,991.733,552.61Z" transform="translate(-695.842 -354.678)" fill="#514e7f"/>
    <circle id="Ellipse_43" data-name="Ellipse 43" cx="5.029" cy="5.029" r="5.029" transform="translate(283.43 189.041)" fill="#a1616a"/>
    <path id="Path_448" data-name="Path 448" d="M997.43,546.79a1.686,1.686,0,0,1,1.891-.27.931.931,0,0,1,.562.906l2.484.037a5.194,5.194,0,0,1,1.183.109,1.72,1.72,0,0,1,.987.621c.031.04.065.087.115.1a.2.2,0,0,0,.115-.04,2.189,2.189,0,0,1,1.242-.223,6.713,6.713,0,0,1,3.651,1.6,1.183,1.183,0,0,1,.435.531c.087.282,0,.646.2.838,0,2.344.8,4.526,1.341,6.808a3.018,3.018,0,0,0,.754,1.083,4.346,4.346,0,0,1,.807,1.2c.453,1.183-.174,2.57.27,3.759a6.056,6.056,0,0,0,.857,1.35,3.479,3.479,0,0,1,.73,1.745c.019.286-.019.571,0,.86a5.242,5.242,0,0,0,.2,1.13c.18.686.373,1.372.571,2.055a4.624,4.624,0,0,0,1.735,2.89c-2.393.407-4.914.8-7.2-.028a3.721,3.721,0,0,1-.9-.45,5.168,5.168,0,0,1-1.574-2.539,11.937,11.937,0,0,1-.882-3.278,3.751,3.751,0,0,0-.149-1.071,2.993,2.993,0,0,0-1.413-1.332,6.8,6.8,0,0,1-1.7-1.323,2.639,2.639,0,0,1-.689-1.987c.043-.351.18-.689.2-1.043a.835.835,0,0,0-.484-.86c-1.742-.528-2.574-2.589-2.962-4.368a13.936,13.936,0,0,1-.224-2.794l-.022-1.8a2.384,2.384,0,0,1-.782-1.72,1.926,1.926,0,0,0,0-.568,1.59,1.59,0,0,0-.4-.621A5.248,5.248,0,0,1,997.43,546.79Z" transform="translate(-703.855 -350.358)" fill="#464353"/>
    <path id="Path_449" data-name="Path 449" d="M979.393,562.964a13.291,13.291,0,0,1-.056,1.689c-.05.211-.134.413-.2.621a3.664,3.664,0,0,0,.233,2.366,13.151,13.151,0,0,0,1.208,2.1,3.2,3.2,0,0,1,.388.723,3.749,3.749,0,0,1,.149.829,25.241,25.241,0,0,0,.593,3.334,6.551,6.551,0,0,0,1.173,2.679.813.813,0,0,0,.484.329.874.874,0,0,0,.413-.087l1.285-.487a.9.9,0,0,0,.31-.161.78.78,0,0,0,.18-.5,7.393,7.393,0,0,0-.565-3.046c-1.043-2.962-2.428-5.815-3.1-8.879-.189-.857-.289-2.173-.913-2.841-.258-.279-.171-.161-.478,0a3.9,3.9,0,0,0-.45.239A1.474,1.474,0,0,0,979.393,562.964Z" transform="translate(-691.176 -360.78)" fill="#464353"/>
    <path id="Path_450" data-name="Path 450" d="M1059.24,625.68" transform="translate(-746.476 -405.064)" fill="#464353"/>
    <path id="Path_451" data-name="Path 451" d="M991.96,565.054q.512,2.71,1.046,5.423l4.992-1.31a3.5,3.5,0,0,0-.432-1.493c-.456-1.142-.466-2.412-.835-3.586-.279-.894-.764-1.717-1.024-2.617-.152-.522-.227-1.068-.376-1.593a12.17,12.17,0,0,0-.587-1.518,9.673,9.673,0,0,0-1.09-2.021,3.184,3.184,0,0,0-1.683,1.09,2.315,2.315,0,0,0-.31,1.074c-.087,1.124.31,2.251.183,3.362a9.935,9.935,0,0,0,.115,3.188Z" transform="translate(-699.869 -357.25)" fill="#f17f07"/>
    <path id="Path_452" data-name="Path 452" d="M1006.208,638.106a6.006,6.006,0,0,1-.456,3.235,25.124,25.124,0,0,0-1.018,4.871,4.036,4.036,0,0,1-.251,1.242,11.615,11.615,0,0,1-.605.993,4.978,4.978,0,0,0-.382,2.99c.071.671.18,1.338.31,2a5.038,5.038,0,0,1,.13,2.434c.394-.087.664.422.649.829s-.158.841.034,1.2c.49.177.5.851.481,1.369a11.549,11.549,0,0,0,.338,2.682q1.111,5.337,2.359,10.645c1.8.559,3.9,1.139,5.61.366a1.1,1.1,0,0,0,.711-.714,1.286,1.286,0,0,0-.068-.55l-.813-2.955a5.443,5.443,0,0,1-.292-2.173c.081-.55.31-1.139.05-1.621a4.668,4.668,0,0,0-.341-.453c-.428-.621-.2-1.456-.168-2.213a1.734,1.734,0,0,0-.037-.506,2.657,2.657,0,0,0-.239-.556,8.485,8.485,0,0,1-.931-4.222,1.037,1.037,0,0,0-.075-.553,1.268,1.268,0,0,1-.136-.224.6.6,0,0,1,.043-.407,3.534,3.534,0,0,1-.655-.621.931.931,0,0,0,.155-1.434.478.478,0,0,0,.23-.823c-.106-.074-.242-.105-.31-.211-.115-.155-.022-.376.071-.543l.5-.9c.369-.664.453-1.487.851-2.136a16.025,16.025,0,0,0,1.31-2.99l1.416-3.943.962.835a3.017,3.017,0,0,1,.792.9,3.817,3.817,0,0,1,.254,1.08c.354,2.142,1.7,4,2.2,6.113a4.119,4.119,0,0,0,.453,1.366,2.96,2.96,0,0,1,.261.391,2.058,2.058,0,0,1,.109.649,3.024,3.024,0,0,0,1.276,2.173c.472.31,1.071.549,1.319,1.065a2.1,2.1,0,0,0,.217.453c.23.276.726.311.826.655.053.2-.05.425.062.6a.543.543,0,0,0,.233.174l1.388.7c1.552.773,2.335,2.546,3.48,3.846a7.986,7.986,0,0,1,1.04,1.378c.494.882.723,1.99,1.552,2.558a2.415,2.415,0,0,1,.6.447c.264.345.168.829.189,1.264s.357.95.77.82a3,3,0,0,0,0,1.6,8.09,8.09,0,0,0,4.905-1.987,1.935,1.935,0,0,0,.8-1.338.516.516,0,0,0-.059-.267.725.725,0,0,0-.31-.236c-1.294-.7-1.686-2.328-2.334-3.651a30.542,30.542,0,0,0-2.136-3.253c-1.552-2.328-2.589-5.144-4.92-6.684a3.331,3.331,0,0,1-1.363-1.2,9.548,9.548,0,0,1-.273-.993.835.835,0,0,0-.729-.621,4.432,4.432,0,0,0,.168-1.552,1.929,1.929,0,0,0-.078-.667,3.145,3.145,0,0,0-.342-.658,6.38,6.38,0,0,1-.878-3.415,5.5,5.5,0,0,0-.059-1.835c-.093-.31-.255-.568-.37-.857a5.344,5.344,0,0,1-.267-1.6l-.127-2.046a9.781,9.781,0,0,0-.264-2.021c-.431-1.586-.844-8.233-2.307-8.981s-3.958,4.365-5.588,4.467a7.456,7.456,0,0,0-2.136.41,10.353,10.353,0,0,0-2.9,1.922l-3.018,2.533a11.007,11.007,0,0,1-1.872,1.35Z" transform="translate(-707.994 -406.215)" fill="#464353"/>
    <path id="Path_453" data-name="Path 453" d="M962.852,519.008a3.793,3.793,0,0,1,2.927-1.428,6.829,6.829,0,0,1,3.235.813,4.167,4.167,0,0,0,.931.388c.534.109,1.124-.037,1.6.217a1.925,1.925,0,0,1,.7,1.922,3.5,3.5,0,0,0,.192,2.127,5.884,5.884,0,0,1,.369.553,1.844,1.844,0,0,1-.034,1.183,9.508,9.508,0,0,1-.621-.779.723.723,0,0,0-.878-.23c-.273.183-.273.522-.286.823s-.093.664-.379.764a.621.621,0,0,1-.621-.248c-.487-.6-.292-1.552-.773-2.148-.276-.341-.733-.506-.987-.863-.2-.279-.248-.643-.422-.931s-.581-.525-.854-.31a1.162,1.162,0,0,0-.227.31,1.307,1.307,0,0,1-1.552.466,2.723,2.723,0,0,0-.674-.289.829.829,0,0,0-.767.416,1.651,1.651,0,0,0-.2.888,2.065,2.065,0,0,1-.168,1.22,1.26,1.26,0,0,1-.36.31,1.066,1.066,0,0,1-1.18.121.888.888,0,0,1-.264-.826,6.8,6.8,0,0,1,.251-.872c.186-.658-.056-1.4.149-2.021A6.359,6.359,0,0,1,962.852,519.008Z" transform="translate(-679.115 -330.523)" fill="#464353"/>
    <path id="Path_454" data-name="Path 454" d="M974.384,550.407a.777.777,0,0,0,.047.463.75.75,0,0,0,.251.242,5.209,5.209,0,0,0,2.372.767.715.715,0,0,1,.31.084.587.587,0,0,1,.14.661,1.761,1.761,0,0,0-.149.7c.062.444.587.646,1.034.7a2.4,2.4,0,0,0,1.8-.348,2.773,2.773,0,0,0,.742-1.115c1.22-2.794,1.648-5.9,2.884-8.692a1.765,1.765,0,0,0,.186-.581.577.577,0,0,0-.23-.537c-.23-.143-.587-.062-.742-.283-.078-.115-.068-.267-.137-.385-.143-.255-.515-.224-.773-.36-.2-.109-.338-.31-.559-.369a.714.714,0,0,0-.584.251,7.5,7.5,0,0,0-1.509,2.543,30.215,30.215,0,0,1-2.173,4.008,2.317,2.317,0,0,0-.677-1.326c-.379-.078-.869.59-1.074.841a5.328,5.328,0,0,0-1.158,2.732Z" transform="translate(-687.952 -346.919)" fill="#f17f07"/>
    <rect id="Rectangle_203" data-name="Rectangle 203" width="24.224" height="24.224" transform="translate(288.971 207.462)" fill="#fff"/>
    <path id="Path_455" data-name="Path 455" d="M1004.581,602.449V599.27H996.64v14.311h15.507V602.449Zm-4.765,9.54h-1.586V610.4h1.586Zm0-3.179h-1.586v-1.589h1.586Zm0-3.179h-1.586v-1.593h1.586Zm0-3.182h-1.586v-1.593h1.586Zm3.176,9.54h-1.583V610.4h1.586Zm0-3.179h-1.583v-1.589h1.586Zm0-3.179h-1.583v-1.593h1.586Zm0-3.182h-1.583v-1.593h1.586Zm7.569,9.54h-5.979V610.4h1.586V608.81h-1.586v-1.589h1.586v-1.593h-1.586v-1.589h5.979Zm-1.391-6.358h-1.586v1.593h1.586Zm0,3.179h-1.586V610.4h1.586Z" transform="translate(-703.31 -386.853)" fill="#f17f07"/>
    <path id="Path_456" data-name="Path 456" d="M1056.275,623.571a9.79,9.79,0,0,0-1.149,1.2,2.4,2.4,0,0,0-.528,1.552.8.8,0,0,0,.149.453.388.388,0,0,0,.432.133.62.62,0,0,0,.211-.189,9.976,9.976,0,0,1,.714-.776c.093-.09.211-.186.335-.152a.355.355,0,0,1,.146.1.987.987,0,0,1,.31.469,1.111,1.111,0,0,1-.329.9,2.343,2.343,0,0,0-.556.823.351.351,0,0,0,0,.264.431.431,0,0,0,.165.143,2.4,2.4,0,0,0,2.009.13c.431-.171.8-.469,1.242-.621a2.987,2.987,0,0,0,.549-.2,1.129,1.129,0,0,0,.487-.726,3.105,3.105,0,0,0,.034-.9,10.246,10.246,0,0,0-.748-3.384.4.4,0,0,0-.121-.18.426.426,0,0,0-.2-.059,5.087,5.087,0,0,0-1.962-.133,1.343,1.343,0,0,0-.463.413C1056.877,622.941,1056.275,623.429,1056.275,623.571Z" transform="translate(-743.275 -402.766)" fill="#a1616a"/>
    <path id="Path_457" data-name="Path 457" d="M1042.462,580.578c0-.521-.646-1.773.375-1.863,0-.553-.785-.9-.643-1.484.05-.2.208-.357.233-.556.065-.568-.959-.875-.792-1.422.062-.208.289-.335.338-.546.115-.49-.764-.711-.779-1.214,0-.171.093-.332.087-.5,0-.214-.186-.376-.289-.559-.264-.475-.137-1.211-.621-1.453.31.025.431-.45.295-.742s-.4-.543-.4-.866a1.366,1.366,0,0,0,0-.357c-.09-.31-.6-.332-.683-.643a3.363,3.363,0,0,1,0-.351c-.031-.242-.279-.391-.512-.463a2.038,2.038,0,0,1-.683-.242c-.149-.115-.31-.31-.481-.2-.059.034-.09.1-.137.155-.189.22-.552.124-.795-.04a3.288,3.288,0,0,1-1.217-2.192c-.155-.844-.146-1.717-.332-2.555a5.875,5.875,0,0,0-.227-.764,3.947,3.947,0,0,1-.36-.764c-.037-.487.975-.155,1.36-.106a6.042,6.042,0,0,1,1.105.208,11.69,11.69,0,0,1,1.127.494c1.552.68,3.39.764,4.626,1.9a3.847,3.847,0,0,0,1.273,1.034,6.473,6.473,0,0,1,.714.186c.587.276.677,1.052,1,1.614a3.461,3.461,0,0,1,.264.466,1.834,1.834,0,0,1,.084.6l.043,1.475a54.441,54.441,0,0,1-.118,7.4,6.109,6.109,0,0,0,.028,2.422c.062.211.152.413.2.621a4.236,4.236,0,0,1,.081.767l.034.953a.23.23,0,0,1-.3.282c-1.332-.118-2.673-.869-3.93-.416" transform="translate(-729.649 -360.254)" fill="#464353"/>
    <path id="Path_458" data-name="Path 458" d="M978.867,611.445a.41.41,0,0,0-.149.124,1.059,1.059,0,0,0,0,1.26.425.425,0,0,1,.075.124.367.367,0,0,1-.037.211.7.7,0,0,0,.1.782c.1.081.227.121.289.227.109.18-.044.41-.019.621.031.276.357.413.621.447a.661.661,0,0,0,.605-.161.5.5,0,0,0,0-.549,1.469,1.469,0,0,0-.41-.41.621.621,0,0,0,.587-.568.882.882,0,0,0-.354-.773c-.056-.047-.124-.093-.14-.168s.059-.177.127-.248c.31-.31.549-1.071-.034-1.242a1.437,1.437,0,0,0-.621.028c-.149.047-.149.137-.264.2S979,611.38,978.867,611.445Z" transform="translate(-690.808 -395.011)" fill="#a1616a"/>
    <path id="Path_459" data-name="Path 459" d="M994.069,543.14a1.024,1.024,0,0,0-.788.4,2.269,2.269,0,0,0-.329,1.056,9.255,9.255,0,0,1-1.242,3.371" transform="translate(-699.91 -348.148)" opacity="0.1"/>
    <path id="Path_460" data-name="Path 460" d="M997.645,545.88a1.2,1.2,0,0,0-1.031.621,3.446,3.446,0,0,0-.261,1.052,5.719,5.719,0,0,1-1.034,2.207" transform="translate(-702.4 -350.038)" opacity="0.1"/>
    <path id="Path_461" data-name="Path 461" d="M324.549,602.311c.18,1.962-1.3,3.862-.869,5.78.093.41.27.8.335,1.211a4.677,4.677,0,0,1-1.152,3.173l-5.569,8.177a5.3,5.3,0,0,1-.8.984c-1.068.931-2.664.848-4.064,1.13a6.969,6.969,0,0,0-2.719,1.2.177.177,0,0,0-.037.245,2.344,2.344,0,0,0,2.024.95c.146.192,0,.475-.2.621-.31.208-.711.261-.77.77a.832.832,0,0,0,.1.509,1.574,1.574,0,0,0,.975.677c1.928.59,4.014-.444,5.455-1.863s2.484-3.188,3.9-4.626c.785-.792,1.676-1.475,2.484-2.245a28.572,28.572,0,0,0,4.076-5.278,5.857,5.857,0,0,0,.882-1.794c.149-.64.081-1.313.255-1.947a7.025,7.025,0,0,1,1.335-2.173,7.214,7.214,0,0,0,1.518-4.7,4.5,4.5,0,0,0-2.751-3.9,2.462,2.462,0,0,0-1.552-.1,3.747,3.747,0,0,0-1.571,1.242l-1.056,1.223a2.818,2.818,0,0,0-.621.931.978.978,0,0,0,.217,1.04" transform="translate(-229.587 -386.691)" fill="#fbbebe"/>
    <path id="Path_462" data-name="Path 462" d="M324.549,602.311c.18,1.962-1.3,3.862-.869,5.78.093.41.27.8.335,1.211a4.677,4.677,0,0,1-1.152,3.173l-5.569,8.177a5.3,5.3,0,0,1-.8.984c-1.068.931-2.664.848-4.064,1.13a6.969,6.969,0,0,0-2.719,1.2.177.177,0,0,0-.037.245,2.344,2.344,0,0,0,2.024.95c.146.192,0,.475-.2.621-.31.208-.711.261-.77.77a.832.832,0,0,0,.1.509,1.574,1.574,0,0,0,.975.677c1.928.59,4.014-.444,5.455-1.863s2.484-3.188,3.9-4.626c.785-.792,1.676-1.475,2.484-2.245a28.572,28.572,0,0,0,4.076-5.278,5.857,5.857,0,0,0,.882-1.794c.149-.64.081-1.313.255-1.947a7.025,7.025,0,0,1,1.335-2.173,7.214,7.214,0,0,0,1.518-4.7,4.5,4.5,0,0,0-2.751-3.9,2.462,2.462,0,0,0-1.552-.1,3.747,3.747,0,0,0-1.571,1.242l-1.056,1.223a2.818,2.818,0,0,0-.621.931.978.978,0,0,0,.217,1.04" transform="translate(-229.587 -386.691)" opacity="0.05"/>
    <path id="Path_463" data-name="Path 463" d="M214.494,608.59c.31.981.621,1.962,1,2.918a24.7,24.7,0,0,0,2.58,4.706,33.914,33.914,0,0,0,2.133,2.794,9.391,9.391,0,0,1,2.347,3.679,18.632,18.632,0,0,1,.211,2.536,3.1,3.1,0,0,0,1.04,2.248,3.865,3.865,0,0,0,1.714.565c.428.068.965.09,1.189-.282a1.058,1.058,0,0,0,.118-.491l.106-1.242c.022-.267.115-.621.382-.621s.4.345.621.5a.674.674,0,0,0,.931-.31,1.552,1.552,0,0,0,.025-1.086,5.16,5.16,0,0,0-2.648-3.281,7.956,7.956,0,0,1-1.291-.674,4.394,4.394,0,0,1-1.015-1.279,80.278,80.278,0,0,1-6.364-11.955,8.844,8.844,0,0,1-.655-2.356,15.216,15.216,0,0,1,.1-2.484,14.216,14.216,0,0,0-.41-4.433,3.487,3.487,0,0,0-.425-1.077,2.411,2.411,0,0,0-3.3-.475,3.4,3.4,0,0,0-1.31,2.4,6.842,6.842,0,0,0,.655,2.484Q213.367,604.98,214.494,608.59Z" transform="translate(-161.958 -384.634)" fill="#a1616a"/>
    <path id="Path_464" data-name="Path 464" d="M214.494,608.59c.31.981.621,1.962,1,2.918a24.7,24.7,0,0,0,2.58,4.706,33.914,33.914,0,0,0,2.133,2.794,9.391,9.391,0,0,1,2.347,3.679,18.632,18.632,0,0,1,.211,2.536,3.1,3.1,0,0,0,1.04,2.248,3.865,3.865,0,0,0,1.714.565c.428.068.965.09,1.189-.282a1.058,1.058,0,0,0,.118-.491l.106-1.242c.022-.267.115-.621.382-.621s.4.345.621.5a.674.674,0,0,0,.931-.31,1.552,1.552,0,0,0,.025-1.086,5.16,5.16,0,0,0-2.648-3.281,7.956,7.956,0,0,1-1.291-.674,4.394,4.394,0,0,1-1.015-1.279,80.278,80.278,0,0,1-6.364-11.955,8.844,8.844,0,0,1-.655-2.356,15.216,15.216,0,0,1,.1-2.484,14.216,14.216,0,0,0-.41-4.433,3.487,3.487,0,0,0-.425-1.077,2.411,2.411,0,0,0-3.3-.475,3.4,3.4,0,0,0-1.31,2.4,6.842,6.842,0,0,0,.655,2.484Q213.367,604.98,214.494,608.59Z" transform="translate(-161.958 -384.634)" opacity="0.05"/>
    <path id="Path_465" data-name="Path 465" d="M361.934,750.161a6.5,6.5,0,0,1-4.148.621c-.227-.028-.5-.047-.643.13-.211.255.037.621.295.838a6.172,6.172,0,0,0,2.85,1.17,19.447,19.447,0,0,0,2.794.186,47.254,47.254,0,0,0,7.615-.283,1.011,1.011,0,0,0,.416-.121.789.789,0,0,0,.31-.478,1.9,1.9,0,0,0-.664-1.813,5.59,5.59,0,0,0-1.776-.953l-2.21-.86a5.687,5.687,0,0,0-1.915-.7C363.815,747.973,362.812,749.646,361.934,750.161Z" transform="translate(-262.287 -489.343)" fill="#3f3d56"/>
    <path id="Path_466" data-name="Path 466" d="M380.552,765.308a5.43,5.43,0,0,1-3.71,1.385c-.348,0-.832.065-.832.413a.547.547,0,0,0,.1.289,3.415,3.415,0,0,0,1.919,1.5,6.833,6.833,0,0,0,2.316.146l2.266-.118c.428-.022.86-.043,1.285-.1s.888-.14,1.332-.208a17.774,17.774,0,0,1,3.3-.155.959.959,0,0,0,.813-.217c.2-.255.084-.621.019-.931-.137-.655,0-1.344-.127-2.005a3.526,3.526,0,0,0-2.313-2.462c-1.018-.388-2.825-.832-3.791-.186A24.412,24.412,0,0,0,380.552,765.308Z" transform="translate(-275.351 -499.296)" fill="#3f3d56"/>
    <path id="Path_467" data-name="Path 467" d="M372.495,649.563c-.931,1.226-1.863,2.642-1.645,4.157a9.375,9.375,0,0,0,.916,2.294,16.176,16.176,0,0,1,.931,3.222c.345,1.6.689,3.213.9,4.84a30.226,30.226,0,0,1,.2,5.557,1.875,1.875,0,0,1-.388,1.242c-.124.124-.286.227-.338.394a.668.668,0,0,0,.071.466,5.156,5.156,0,0,0,2.763,2.542,10.58,10.58,0,0,0,3.756.7,1.055,1.055,0,0,0,.5-.065.969.969,0,0,0,.388-.444c.931-1.77.413-3.905.428-5.9,0-1.667.4-3.319.332-4.986-.059-1.335-.416-2.639-.546-3.971a23.5,23.5,0,0,1,.587-6.535c.31-1.652.621-3.306,1.009-4.942a9.425,9.425,0,0,1,1.068-2.869c.435-.686,1.024-1.26,1.521-1.906a8.652,8.652,0,0,0,1.7-6.324c-.031-.224-3.2.8-3.471.931a10.759,10.759,0,0,0-3.1,1.99,25.693,25.693,0,0,0-1.95,2.409q-1.36,1.655-2.676,3.328Q373.954,647.616,372.495,649.563Z" transform="translate(-271.771 -412.875)" fill="#464353"/>
    <path id="Path_468" data-name="Path 468" d="M372.495,649.563c-.931,1.226-1.863,2.642-1.645,4.157a9.375,9.375,0,0,0,.916,2.294,16.176,16.176,0,0,1,.931,3.222c.345,1.6.689,3.213.9,4.84a30.226,30.226,0,0,1,.2,5.557,1.875,1.875,0,0,1-.388,1.242c-.124.124-.286.227-.338.394a.668.668,0,0,0,.071.466,5.156,5.156,0,0,0,2.763,2.542,10.58,10.58,0,0,0,3.756.7,1.055,1.055,0,0,0,.5-.065.969.969,0,0,0,.388-.444c.931-1.77.413-3.905.428-5.9,0-1.667.4-3.319.332-4.986-.059-1.335-.416-2.639-.546-3.971a23.5,23.5,0,0,1,.587-6.535c.31-1.652.621-3.306,1.009-4.942a9.425,9.425,0,0,1,1.068-2.869c.435-.686,1.024-1.26,1.521-1.906a8.652,8.652,0,0,0,1.7-6.324c-.031-.224-3.2.8-3.471.931a10.759,10.759,0,0,0-3.1,1.99,25.693,25.693,0,0,0-1.95,2.409q-1.36,1.655-2.676,3.328Q373.954,647.616,372.495,649.563Z" transform="translate(-271.771 -412.875)" opacity="0.05"/>
    <path id="Path_469" data-name="Path 469" d="M387.776,636.571c.2.95,1.121,1.676,1.146,2.648a4.155,4.155,0,0,1-.931,2.1,14.052,14.052,0,0,0-.95,2.154,32.85,32.85,0,0,1-2.794,5.548,4.417,4.417,0,0,0-1,2.751,4.061,4.061,0,0,0,.481,1.313l1.6,3.17a9.1,9.1,0,0,1,.813,2c.14.6.152,1.242.233,1.838.251,1.943,1.161,3.9.621,5.784-.047.161-.217.357-.345.245a6.039,6.039,0,0,1,.91,3.1,4.32,4.32,0,0,0,.019,1.742,1.9,1.9,0,0,1,.242.664c0,.158-.074.31-.09.469a1.038,1.038,0,0,0,.795.965c.428.143.894.134,1.326.261a8.259,8.259,0,0,1,2.136,1.459,4.486,4.486,0,0,0,2.449.8.621.621,0,0,0,.36-.071.59.59,0,0,0,.2-.438,2.434,2.434,0,0,0-.879-2.114.978.978,0,0,1-.31-.342.829.829,0,0,1-.031-.382,28.317,28.317,0,0,0-.093-5.231,8.072,8.072,0,0,1-.081-1.664,6.8,6.8,0,0,0,.133-1.388,7.084,7.084,0,0,0-.425-1.326,9.294,9.294,0,0,1-.2-2.484,21.768,21.768,0,0,0-.7-4.25,3.226,3.226,0,0,0-.661-1.534c-.332-.348-.869-.677-.742-1.139a1.316,1.316,0,0,1,.31-.453,1.819,1.819,0,0,0,.382-1.388.621.621,0,0,0,.714-.335,11.176,11.176,0,0,0,5.613-6.383,2.073,2.073,0,0,1,.251-.568,2.589,2.589,0,0,1,1.028-.667,7.792,7.792,0,0,0,2.7-2.751,6.4,6.4,0,0,0,1.043-2,6.576,6.576,0,0,0,.143-1.44l.065-2.483a1.426,1.426,0,0,0-.047-.487,1.242,1.242,0,0,0-.27-.4,4.821,4.821,0,0,0-2.651-1.428c-.68-.121-1.375-.1-2.065-.155a25.98,25.98,0,0,0-3.992-.428,6.423,6.423,0,0,0-4.967,3.468C388.887,635.99,388.521,636.549,387.776,636.571Z" transform="translate(-280.328 -409.314)" fill="#464353"/>
    <path id="Path_470" data-name="Path 470" d="M172.446,753.441a3.381,3.381,0,0,0,1.428.171c.034-.394.565-.481.959-.463a1.1,1.1,0,0,1,.565.124c.1.062.174.155.27.22a1.162,1.162,0,0,0,.559.143l2.055.174a6.155,6.155,0,0,0,2.726-.18.891.891,0,0,0,.438-.292c.233-.332,0-.81-.31-1.052s-.736-.354-1.059-.6c-.714-.543-.81-1.552-1.189-2.372a6.848,6.848,0,0,0-.981-1.425,5.453,5.453,0,0,0-.972-.993,5.081,5.081,0,0,0-2.738-.667,1.834,1.834,0,0,0-1.816.5c-.605.751-.363,2.266-.326,3.163a22.644,22.644,0,0,0,.391,3.548Z" transform="translate(-134.658 -488.164)" fill="#514e7f"/>
    <path id="Path_471" data-name="Path 471" d="M172.446,753.441a3.381,3.381,0,0,0,1.428.171c.034-.394.565-.481.959-.463a1.1,1.1,0,0,1,.565.124c.1.062.174.155.27.22a1.162,1.162,0,0,0,.559.143l2.055.174a6.155,6.155,0,0,0,2.726-.18.891.891,0,0,0,.438-.292c.233-.332,0-.81-.31-1.052s-.736-.354-1.059-.6c-.714-.543-.81-1.552-1.189-2.372a6.848,6.848,0,0,0-.981-1.425,5.453,5.453,0,0,0-.972-.993,5.081,5.081,0,0,0-2.738-.667,1.834,1.834,0,0,0-1.816.5c-.605.751-.363,2.266-.326,3.163a22.644,22.644,0,0,0,.391,3.548Z" transform="translate(-134.658 -488.164)" opacity="0.05"/>
    <path id="Path_472" data-name="Path 472" d="M165.472,637.163a1.439,1.439,0,0,0-.785,1.636,5.875,5.875,0,0,0,.829,1.785c.913,1.636,1.31,3.508,2.077,5.215.574,1.276,1.35,2.456,1.919,3.725a6.268,6.268,0,0,1,.574,4.079c-.168.661-.491,1.27-.708,1.915a10.864,10.864,0,0,0-.416,2.173,41.19,41.19,0,0,0-.149,7.5,2.279,2.279,0,0,0,.189.888c.127.248.351.509.242.767-.043.1-.137.177-.183.279-.13.286.133.584.373.786a.643.643,0,0,1-.4.31.953.953,0,0,1,.407,1.062c-.214.031-.227.357-.09.528s.345.279.441.472a.661.661,0,0,1-.363.832,1.7,1.7,0,0,1-.99.074,10.74,10.74,0,0,1-1.658-.363,1.49,1.49,0,0,1-.509-.233,1.512,1.512,0,0,1-.456-1.006,18.18,18.18,0,0,1-.115-3.1c.09-5.017,0-10.04-.217-15.053A17.237,17.237,0,0,0,164,645.583a30.017,30.017,0,0,0-1.44-2.794c-1.124-2.068-2.123-4.346-1.863-6.69.028-.251.121-.556.369-.6a.536.536,0,0,1,.286.047,13.2,13.2,0,0,1,1.506.832,5.706,5.706,0,0,0,2.614.782Z" transform="translate(-126.852 -411.835)" fill="#464353"/>
    <path id="Path_473" data-name="Path 473" d="M165.472,637.163a1.439,1.439,0,0,0-.785,1.636,5.875,5.875,0,0,0,.829,1.785c.913,1.636,1.31,3.508,2.077,5.215.574,1.276,1.35,2.456,1.919,3.725a6.268,6.268,0,0,1,.574,4.079c-.168.661-.491,1.27-.708,1.915a10.864,10.864,0,0,0-.416,2.173,41.19,41.19,0,0,0-.149,7.5,2.279,2.279,0,0,0,.189.888c.127.248.351.509.242.767-.043.1-.137.177-.183.279-.13.286.133.584.373.786a.643.643,0,0,1-.4.31.953.953,0,0,1,.407,1.062c-.214.031-.227.357-.09.528s.345.279.441.472a.661.661,0,0,1-.363.832,1.7,1.7,0,0,1-.99.074,10.74,10.74,0,0,1-1.658-.363,1.49,1.49,0,0,1-.509-.233,1.512,1.512,0,0,1-.456-1.006,18.18,18.18,0,0,1-.115-3.1c.09-5.017,0-10.04-.217-15.053A17.237,17.237,0,0,0,164,645.583a30.017,30.017,0,0,0-1.44-2.794c-1.124-2.068-2.123-4.346-1.863-6.69.028-.251.121-.556.369-.6a.536.536,0,0,1,.286.047,13.2,13.2,0,0,1,1.506.832,5.706,5.706,0,0,0,2.614.782Z" transform="translate(-126.852 -411.835)" opacity="0.05"/>
    <path id="Path_474" data-name="Path 474" d="M137.364,620.445a1.655,1.655,0,0,0-2.282.245,12.458,12.458,0,0,0-1.18,1.037,6.311,6.311,0,0,0-1.409,6.243,12.473,12.473,0,0,0,1.726,3.061l1.366,1.962c2.083,2.993,4.169,5.985,6.352,8.907a.335.335,0,0,0,.236.31c.081.022.177.019.227.084a.242.242,0,0,1,.028.133,2.027,2.027,0,0,1-.121.621.289.289,0,0,0-.025.214c.068.165.369.071.463.227a.247.247,0,0,1-.1.31.359.359,0,0,0-.171.31c.016.127.224.245.214.4,0,.087-.074.152-.127.22a.562.562,0,0,0,.068.717c.143,1.428-.621,2.778-.785,4.207-.245,2.245.77,4.436.894,6.69a1.791,1.791,0,0,0,.14.739c.211.388.751.621.733,1.065a4.066,4.066,0,0,1-.152.537,4.318,4.318,0,0,0,.081.767c0,.258-.217.565-.456.466q.27.894.478,1.8l4.781.394a4.294,4.294,0,0,0-.043-1.291c-.1-.459-.31-.891-.416-1.35a1.593,1.593,0,0,1,.189-1.35.528.528,0,0,1-.528-.435,2.13,2.13,0,0,1,0-.742c.127-1.242-.4-2.484-.382-3.725a17.947,17.947,0,0,1,.537-2.9c.373-2.074-.016-4.324.906-6.209.559-1.142,1.332-2.409.7-3.514-.31-.546-.854-.931-1.208-1.434a5.828,5.828,0,0,1-.649-1.552,52.428,52.428,0,0,0-2.974-6.557,6.9,6.9,0,0,1-.64-1.723,8.76,8.76,0,0,1-.078-1.589,24.358,24.358,0,0,0-.177-2.856,2.082,2.082,0,0,0-1.093-1.863A51.4,51.4,0,0,0,137.364,620.445Z" transform="translate(-107.226 -401.216)" fill="#464353"/>
    <path id="Path_475" data-name="Path 475" d="M166.205,759.087a3.381,3.381,0,0,0,1.428.171c.037-.394.565-.481.959-.463a1.1,1.1,0,0,1,.549.127c.1.062.174.155.273.22a1.142,1.142,0,0,0,.559.143l2.052.174a6.17,6.17,0,0,0,2.729-.18.9.9,0,0,0,.435-.292c.233-.332,0-.81-.31-1.052s-.736-.354-1.062-.6c-.711-.543-.81-1.552-1.189-2.372a6.844,6.844,0,0,0-.981-1.425,5.436,5.436,0,0,0-.969-.993,5.088,5.088,0,0,0-2.738-.667,1.831,1.831,0,0,0-1.816.5c-.621.751-.366,2.266-.329,3.163a23.067,23.067,0,0,0,.41,3.545Z" transform="translate(-130.34 -492.06)" fill="#514e7f"/>
    <rect id="Rectangle_204" data-name="Rectangle 204" width="24.224" height="24.224" transform="translate(61.788 231.019)" fill="#fff"/>
    <path id="Path_476" data-name="Path 476" d="M281.061,681.543c0,2.763-1.295,4.5-3.34,4.5a1.846,1.846,0,0,1-1.984-1.388h-.149A2.173,2.173,0,0,1,273.436,686c-1.819,0-3.033-1.459-3.033-3.629,0-2.083,1.223-3.533,3.008-3.533a2.173,2.173,0,0,1,2.04,1.22h.149v-1.037h1.487v4.827a.863.863,0,0,0,.931.962c1.031,0,1.689-1.242,1.689-3.2,0-3.1-2.328-5.181-5.765-5.181a5.656,5.656,0,0,0-5.821,5.985c0,3.586,2.4,5.877,6.128,5.877a11.241,11.241,0,0,0,2.027-.174.59.59,0,0,1,.248,1.152,10.319,10.319,0,0,1-2.335.255c-4.536,0-7.451-2.794-7.451-7.14a6.878,6.878,0,0,1,7.283-7.162C278.183,675.195,281.061,677.787,281.061,681.543Zm-9.049.857c0,1.378.646,2.213,1.7,2.213,1.111,0,1.813-.857,1.813-2.213s-.7-2.195-1.794-2.195S272.011,681.019,272.011,682.4Z" transform="translate(-200.004 -439.224)" fill="#f17f07"/>
    <circle id="Ellipse_44" data-name="Ellipse 44" cx="4.734" cy="4.734" r="4.734" transform="translate(52.316 201.483)" fill="#a1616a"/>
    <path id="Path_477" data-name="Path 477" d="M200.865,581.79a4.519,4.519,0,0,1-2.543.72,15.892,15.892,0,0,0-5.47,1.583,1.952,1.952,0,0,0-.621.435,1.792,1.792,0,0,0-.31.677,4.476,4.476,0,0,0-.18,1.645,4.743,4.743,0,0,0,.456,1.552,8.332,8.332,0,0,0,2.937,3.347,2.133,2.133,0,0,0,.714.342,4.152,4.152,0,0,0,1.838-.394,3.011,3.011,0,0,1,1.7.056c.515.171,1.059.484,1.552.276a1.62,1.62,0,0,0,.708-.8,27.286,27.286,0,0,0,1.291-2.828,10.729,10.729,0,0,1,.469-1.1c.549-1.046,1.5-1.863,1.971-2.937a.646.646,0,0,0,.043-.553.766.766,0,0,0-.348-.267,8.3,8.3,0,0,1-1.891-1.484c-.31-.311-.885-1.105-1.332-1.177C201.358,580.815,201.206,581.5,200.865,581.79Z" transform="translate(-148.278 -374.169)" fill="#a1616a"/>
    <path id="Path_478" data-name="Path 478" d="M170.388,598.691a2.825,2.825,0,0,1-1.791.022,19.768,19.768,0,0,1-4.5-1.31,2.408,2.408,0,0,1-1.105-.847,2.711,2.711,0,0,1-.31-1.062l-.261-1.76a10.673,10.673,0,0,1,.081-1.807.528.528,0,0,0-.1-.394.425.425,0,0,0-.31-.1c-.711,0-1.139.754-1.639,1.26a3.025,3.025,0,0,1-1.006.677c-.456.186-1.018.31-1.2.773-.078.189-.068.407-.146.6-.31.758-1.676.506-2.021,1.242-.1.211-.093.478-.258.646s-.466.161-.714.2c-.987.161-1.468,1.3-2.313,1.841a19.088,19.088,0,0,1-2.39.8,9.148,9.148,0,0,1-1.242.621,5.871,5.871,0,0,1-1.44.071.388.388,0,0,0-.289.093.4.4,0,0,0-.047.31,8.714,8.714,0,0,0,5.386,6.746,1.9,1.9,0,0,1,.459.22c.432.31.506,1.015.993,1.242a1.028,1.028,0,0,0,1.037-.224,9.024,9.024,0,0,0,.748-.826,2.981,2.981,0,0,1,1.667-.875,3.672,3.672,0,0,0,1.717-.385,5.286,5.286,0,0,0,.54-.577,3.386,3.386,0,0,1,1.242-.733,12.417,12.417,0,0,1,3.881-.82,13.662,13.662,0,0,0,3.707-.363,2.173,2.173,0,0,0,.826-.466,2.483,2.483,0,0,0,.553-.959A7.323,7.323,0,0,0,170.388,598.691Z" transform="translate(-117.69 -381.45)" fill="#514e7f"/>
    <path id="Path_479" data-name="Path 479" d="M195.979,592.112c.351-.031.7,0,1.052,0,.413,0,.82-.1,1.242-.1a3.061,3.061,0,0,1,2.887,2.2.559.559,0,0,1,.019.31.22.22,0,0,1-.239.161,5.246,5.246,0,0,0-.531-1.065,3.014,3.014,0,0,0-1.589-1.105,4.127,4.127,0,0,0-1.956-.071c-.267.05-.531.121-.795.2l-1.288.348c-.233.062-.466.127-.692.211-.174.062-.475.31-.646.31-.233,0-.043-.2.059-.338a1.658,1.658,0,0,1,.826-.6A6.945,6.945,0,0,1,195.979,592.112Z" transform="translate(-149.385 -381.847)" fill="#514e7f"/>
    <path id="Path_480" data-name="Path 480" d="M205.676,610.28c.31.981.621,1.962,1,2.918a24.691,24.691,0,0,0,2.583,4.706,33.915,33.915,0,0,0,2.133,2.794,9.391,9.391,0,0,1,2.347,3.679,18.632,18.632,0,0,1,.211,2.536,3.1,3.1,0,0,0,1.04,2.248,3.865,3.865,0,0,0,1.714.565c.428.068.965.09,1.189-.283a1.058,1.058,0,0,0,.118-.491l.1-1.242c.025-.267.118-.621.385-.621s.4.345.621.5a.674.674,0,0,0,.931-.31,1.574,1.574,0,0,0,.025-1.087,5.16,5.16,0,0,0-2.642-3.285,7.957,7.957,0,0,1-1.291-.674,4.347,4.347,0,0,1-1.015-1.279A79.7,79.7,0,0,1,208.758,609a8.845,8.845,0,0,1-.655-2.356,15.21,15.21,0,0,1,.1-2.484,14.215,14.215,0,0,0-.4-4.439,3.486,3.486,0,0,0-.425-1.077,2.411,2.411,0,0,0-3.3-.475,3.4,3.4,0,0,0-1.31,2.4,6.842,6.842,0,0,0,.655,2.484Q204.552,606.669,205.676,610.28Z" transform="translate(-155.89 -385.793)" fill="#a1616a"/>
    <path id="Path_481" data-name="Path 481" d="M220.556,559.537c.037-.394-.31-.751-.717-1a10.014,10.014,0,0,1-1.217-.745c-.36-.311-.556-.717-.916-1.028a4.036,4.036,0,0,0-1.366-.68,10.368,10.368,0,0,0-3.266-.587,5.753,5.753,0,0,0-3.126.826,1.863,1.863,0,0,0-.531.494,2.173,2.173,0,0,0-.258.785,15.521,15.521,0,0,1-.816,2.484,5.762,5.762,0,0,1-1.552,2.508c-.885.739-2.241,1.164-2.825,2.055a.668.668,0,0,0-.127.574c.084.224.354.376.6.518a8.135,8.135,0,0,1,3.316,3.173,3.679,3.679,0,0,1-.292,3.958c-.332.435-.792.95-.466,1.388.494.664,2.2.286,2.589.987a1.4,1.4,0,0,1,.053.726c0,.736.711,1.394,1.574,1.732a8.776,8.776,0,0,0,2.831.466,2.446,2.446,0,0,0,.071-1.832.733.733,0,0,1-.071-.416,1,1,0,0,1,.31-.4c1.04-.981.82-2.425.2-3.589a20.243,20.243,0,0,1-1.953-3.458,1.756,1.756,0,0,1,.31-1.8,6.263,6.263,0,0,1,.891-.652,3.387,3.387,0,0,0,1.242-1.552c.289-.807.245-1.779,1.1-2.313s1.953-.36,2.85-.7A3.055,3.055,0,0,0,220.556,559.537Z" transform="translate(-156.616 -356.667)" fill="#464353"/>
    <circle id="Ellipse_45" data-name="Ellipse 45" cx="5.163" cy="5.163" r="5.163" transform="translate(85.323 199.381)" fill="#fbbebe"/>
    <path id="Path_482" data-name="Path 482" d="M347.256,571.011a6.693,6.693,0,0,0,4.284,3l-.388,1.409c-.671,2.428-1.428,5-3.3,6.681a3.123,3.123,0,0,0-.525-2.415,9.146,9.146,0,0,0-1.751-1.832l-2.971-2.586a.811.811,0,0,1-.224-.248.758.758,0,0,1,0-.565,6.913,6.913,0,0,1,2.335-2.71,8.236,8.236,0,0,0,1.177-1.369C346.5,569.533,346.88,570.38,347.256,571.011Z" transform="translate(-252.123 -366.684)" fill="#fbbebe"/>
    <path id="Path_483" data-name="Path 483" d="M355.187,582.477a2.8,2.8,0,0,1-.152,1.139.8.8,0,0,1-.931.478c.109-.245-.177-.525-.444-.494a.835.835,0,0,0-.59.5,1.862,1.862,0,0,0-.171,1.155,4.727,4.727,0,0,1,.292,1.45c-.059.407-.36.813-.2,1.2a1.92,1.92,0,0,0,.385.459,1.3,1.3,0,0,1-.14,1.788l4.036.078a2.831,2.831,0,0,0,.5,1.959,12.334,12.334,0,0,0,9.2,6,.8.8,0,0,0-.192,1.223,1.132,1.132,0,0,0,1.291.075,9.806,9.806,0,0,0,1.108-.829,3.387,3.387,0,0,1,2.272-.621c.506.047.993.208,1.5.236,1.49.081,2.772-.993,4.2-1.431,1.046-.31,2.229-.31,3.1-.975a1.231,1.231,0,0,0,.577-1.2,1.952,1.952,0,0,0-.435-.7,12.5,12.5,0,0,1-1.164-2.173,12.974,12.974,0,0,0-2.909-3.893,25.676,25.676,0,0,0-2.881-2.189,4.881,4.881,0,0,0-.782-.469,8.016,8.016,0,0,1-1.068-.435,5.959,5.959,0,0,1-1.108-1.242c-.8-.931-2.024-1.357-3.008-2.089a7.208,7.208,0,0,0-2.027-1.375c-.382-.115-.792-.124-1.173-.239-.869-.264-1.5-1.037-2.356-1.347a9.536,9.536,0,0,0-2.133-.273,4.967,4.967,0,0,1-2.192-.829,2.635,2.635,0,0,0-.708-.416c-1.077-.31-1.164,1.683-1.267,2.378A19.937,19.937,0,0,0,355.187,582.477Z" transform="translate(-259.396 -371.472)" fill="#3f3d56"/>
    <path id="Path_484" data-name="Path 484" d="M330.575,609.149c.18,1.959-1.3,3.859-.869,5.78.093.41.267.8.332,1.211a4.652,4.652,0,0,1-1.149,3.17l-5.588,8.177a4.971,4.971,0,0,1-.795.984c-1.068.947-2.664.847-4.064,1.133a6.956,6.956,0,0,0-2.723,1.2.177.177,0,0,0-.034.242,2.335,2.335,0,0,0,2.024.95c.146.192,0,.478-.2.621-.31.208-.711.264-.77.77a.863.863,0,0,0,.1.512,1.59,1.59,0,0,0,.978.677c1.928.59,4.011-.447,5.455-1.863s2.484-3.188,3.9-4.626c.785-.795,1.676-1.475,2.484-2.245a29.351,29.351,0,0,0,4.076-5.278,5.875,5.875,0,0,0,.882-1.8c.149-.636.081-1.313.255-1.943a6.9,6.9,0,0,1,1.335-2.173,7.222,7.222,0,0,0,1.518-4.706,4.508,4.508,0,0,0-2.751-3.9,2.461,2.461,0,0,0-1.552-.093,3.7,3.7,0,0,0-1.571,1.242l-1.059,1.223a2.9,2.9,0,0,0-.621.931.978.978,0,0,0,.217,1.04" transform="translate(-233.732 -391.405)" fill="#fbbebe"/>
    <path id="Path_485" data-name="Path 485" d="M364.8,590.352a3.124,3.124,0,0,0-2.058.621,2.877,2.877,0,0,0-.515.813,8.035,8.035,0,0,0-1.028,3.232,14.569,14.569,0,0,0,.372,2.7,10.3,10.3,0,0,1-.233,2.269,15.5,15.5,0,0,0,2.931-1.127,9.8,9.8,0,0,1,1.717-.891,5.093,5.093,0,0,1,3.17.621c.047-.584-.391-1.6-.345-2.173a2.381,2.381,0,0,1,.13-.723,4.31,4.31,0,0,1,.438-.7,2.859,2.859,0,0,0-.258-3.356,4.629,4.629,0,0,0-2.993-1.27,13.1,13.1,0,0,0-2.092-.071" transform="translate(-265.133 -380.658)" fill="#3f3d56"/>
    <path id="Path_486" data-name="Path 486" d="M318.461,547.98l-.118-.972c.816.208,1.589-.481,2.111-1.2s1-1.552,1.794-1.863c.965-.363,1.987.217,2.909.7a9.105,9.105,0,0,0,3.337,1.105,2.362,2.362,0,0,1,.553.09,1.919,1.919,0,0,1,.972,1.648,6.467,6.467,0,0,0,.357,2.018c.227.459.621.8.844,1.242.621,1.22.022,2.89.689,4.089l-1.655-1.515c-.152-.14-.366-.286-.531-.168s-.143.31-.2.456a.866.866,0,0,1-1.177.428,3.226,3.226,0,0,1-1.052-.962,6.433,6.433,0,0,0-2.626-1.99,3.356,3.356,0,0,0-2.779.165c-.773.438-1.338,1.453-2.285,1.487-1.3.05-1.838-2.366-2.437-3.319a1.177,1.177,0,0,0,.341-1.465C317.6,547.921,318.443,547.831,318.461,547.98Z" transform="translate(-234.778 -348.626)" fill="#464353"/>
    <path id="Path_487" data-name="Path 487" d="M696.144,686.7c-.387-1.637-.621-3.069-.621-3.069a6.357,6.357,0,0,0-.711-3.117v-.449h0v-3.294a10.9,10.9,0,0,1,.831-1.723c.592-1.031,0-4.821,0-4.821s-2.2-5.341-1.666-8.73-4.506-15.05-4.506-15.05a14.864,14.864,0,0,1,.477-3.341,2.41,2.41,0,0,0,.062-.7.5.5,0,0,0,0-.086v.029c-.076-2.234-1.842-6.425-1.842-6.425l.239-7.981a23.5,23.5,0,0,0-.711-11.031c-.644-2.205-1.055-3.966-1.317-5.332-.029-.153-.057-.3-.081-.444,3.785-.578,6.682-1.06,6.682-1.06s-2.2-9.188-3.68-10.8-2.668-6.659-2.668-6.659-.773-6.492.477-8.387a12.619,12.619,0,0,0,1.432-5.169s2.864-2.067,3.2-2.988a15.139,15.139,0,0,0,.955-4.076c0-1.093-.358-2.067-.239-2.644s-.83-2.754-.353-3.79a2.77,2.77,0,0,0,.186-1,.061.061,0,0,0,0-.029h0a14.18,14.18,0,0,0-.253-2.7,7.638,7.638,0,0,0-2.816-1.508l-.062-.243-.162-.644a2.206,2.206,0,0,0-.282-.167v-1.193l.444-2.1c.878-3.642-3.99-4.186-3.99-4.186a2.568,2.568,0,0,0-1.379-1.212c-.955-.344-.162,5.489.3,5.862A18.982,18.982,0,0,1,686,559.463h0l.086.148a1.944,1.944,0,0,0-.224.234l.186,1.265.029.2a5.2,5.2,0,0,0-.778,1.322,2.821,2.821,0,0,1,.711,2.072,6.491,6.491,0,0,0,.3,2.525c-.052-.062-.678-.74-1.3-.573s-2.386.687-2.386.687-1.308.229-1.189.516-.888,1.551-.888,1.551l-3.508-3.341c-.038-.1-.072-.2-.1-.3a8.023,8.023,0,0,1-.3-1.432,7.812,7.812,0,0,0,1.117-.358,2.422,2.422,0,0,0,.955-.62,3.792,3.792,0,0,0,.563-1.513,21.024,21.024,0,0,1,1.3-2.9,9.44,9.44,0,0,0,.678-5.179,3.448,3.448,0,0,0-.535-1.527c-.573-.788-1.613-1.107-2.387-1.737s-1.241-1.585-2.124-2.057a4.186,4.186,0,0,0-2.663-.229,14.235,14.235,0,0,0-4.969,1.8,2.555,2.555,0,0,1-1.666.549,2.248,2.248,0,0,1-1.2-.878.244.244,0,0,1,0-.053l-.043-.043a6.284,6.284,0,0,0-.544,2.625v.563a1.053,1.053,0,0,1,0,.124h0a.84.84,0,0,1-.029.186,1.351,1.351,0,0,1-.325.477,2.125,2.125,0,0,0-.286.391.426.426,0,0,1,.048-.143,2.073,2.073,0,0,0-.368,1.1,1.1,1.1,0,0,0,.267.792,3.815,3.815,0,0,0,.568.477,6.68,6.68,0,0,0-.1,1.165,6.788,6.788,0,0,0,3.3,5.79l.119.3a8.35,8.35,0,0,1,.635,3.819.646.646,0,0,1-.043.282l-.124.143h0s-5.795.057-7.16-1.179-3.441,3.017-3.441,3.017-2.076.406-2.492,0-2.864-.057-2.864-.057a5.25,5.25,0,0,0-3.618-1.317,10.625,10.625,0,0,0-2.659-1.48h0l-.067-.024h0a2.968,2.968,0,0,0-1.308-.162,25.821,25.821,0,0,1-3.675-3.618c-.811-1.26-4.773-5.952-4.807-5.976v-.225l-.048-.682a2.653,2.653,0,0,1-.353.033.829.829,0,0,0-.081-.239,12.9,12.9,0,0,0-.84-1.909s0-.859.253-1.074-.105-3.375-.105-3.375-2.568-6-4.864-1.523c0,0-4.348,2.9-.7,6.277,0,0,1.432.7,1.661,1.26.138.363.63,1.38.955,2.052l.148.3-.043.033.057.563v.219c-.687.387-1.15.773-1.04,1.069a6.3,6.3,0,0,1,.415,1.551s5.045,6.315,5.7,9.016c0,0,13.527,8.038,17.976,8.616L655,582.871a31.821,31.821,0,0,0-.177,3.274c.057.859-.535,4.773-.535,4.773s-.773,5.728-1.432,6.544-.535,4.253-.535,4.253a28.679,28.679,0,0,1-.888,4.878,12.4,12.4,0,0,0-.177,4.883s-2.258,5.169,3.146,1.666c0,0,2.649-.162,5.728-.267v1.57c-.038,2.959-.057,7.04.076,10.129.239,5.456,1.909,16.229,1.909,16.229v5.422a7.6,7.6,0,0,0-.153,1.551,10.051,10.051,0,0,0,1.461,5.432l.415,3.618a14.989,14.989,0,0,1,.993,3.819,1.888,1.888,0,0,1-.043.344,2.555,2.555,0,0,0-.048.554,31.013,31.013,0,0,0,.955,5.575s.062,3.962.654,4.191c.506.2-.678,2.286-1.031,2.864a.942.942,0,0,1-.024-.115c-.043.076-.072.119-.072.119a2.783,2.783,0,0,0-.186,1,1.432,1.432,0,0,0,.659,1.394c1.126.692,1.733,1.265.778,1.494a9.423,9.423,0,0,0-1.045.219c0-.043-.038-.091-.053-.134a.64.64,0,0,0-.372.664,2.935,2.935,0,0,0,.358,1.341,14.322,14.322,0,0,0,1.6,2.931l.477-.053a2.252,2.252,0,0,1-.267.477,1.845,1.845,0,0,1-.668.592,2.135,2.135,0,0,1-.811.282,2.263,2.263,0,0,0-1.68.816,1.755,1.755,0,0,0,.205,2.725l4.243,1.461s7.3.955,6.912-.687-.621-3.069-.621-3.069a6.476,6.476,0,0,0-.6-2.907,2.875,2.875,0,0,0-.258-.43l.258-.029s.535-3.618,1.246-4.3c.167-.157.205-.282.162-.377.076-.2-.11-.31-.348-.377l-.053.143a3.583,3.583,0,0,0-.706-.076s-.239-1.909.53-2.587a.73.73,0,0,0,.153-.563,3.234,3.234,0,0,0-.081-.773l-.029.048a27.571,27.571,0,0,0-1.7-4.453,5.506,5.506,0,0,1,.415-2.415c.473-.692-.057-9.36-.057-9.36a28.386,28.386,0,0,0-.358-6.143,6.893,6.893,0,0,1,.654-4.253v-.153s-.029-.258-.072-.664v.043c-.119-1.112-.344-3.122-.511-4.048-.239-1.322.057-7.637.057-7.637l1.069-2.7,1.909,4.649,2.014,6.205a5.274,5.274,0,0,1,1.026,2.635v.2a3.063,3.063,0,0,0,0,.415,3.7,3.7,0,0,0,.616,2.21s.535,2.931,1.365,3.675a3.309,3.309,0,0,1,.831,2.181,36.4,36.4,0,0,0,1.484,5,7.333,7.333,0,0,1,.415,2.864h0v.158s.138,1.518.134,2.8v.444a4.451,4.451,0,0,1-.124,1.031v-.153a10.629,10.629,0,0,0-.306,2.649,6.778,6.778,0,0,0,1.131,4.4c1.6,1.838,2.611,1.608,2.611,1.608s-.773,2.3-1.723,2.759a.578.578,0,0,0-.1.062.267.267,0,0,0-.024-.134,1.122,1.122,0,0,0-.277.859,6.149,6.149,0,0,0,1.174,3.4,1.884,1.884,0,0,0,.8.477l-.148.091a3.331,3.331,0,0,1-.329.158,1.551,1.551,0,0,1-.477.124,2.263,2.263,0,0,0-1.68.816,1.755,1.755,0,0,0,.205,2.726l4.243,1.461S696.511,688.362,696.144,686.7Z" transform="translate(-449.449 -400.425)" fill="url(#linear-gradient)"/>
    <path id="Path_488" data-name="Path 488" d="M707.134,838.4l-4.629-1.645a2.011,2.011,0,0,1-.22-3.07,2.436,2.436,0,0,1,1.828-.919,2.264,2.264,0,0,0,.887-.317,2.1,2.1,0,0,0,.731-.667,3.4,3.4,0,0,0,.538-1.79s5.081-1.484,6.452,0a3.8,3.8,0,0,1,.618.9,7.529,7.529,0,0,1,.645,3.274s.258,1.613.677,3.457S707.134,838.4,707.134,838.4Z" transform="translate(-483.831 -549.457)" fill="#2d293d"/>
    <path id="Path_489" data-name="Path 489" d="M748.742,833.365l-4.2-1.494a1.818,1.818,0,0,1-.205-2.782,2.207,2.207,0,0,1,1.665-.84,1.517,1.517,0,0,0,.488-.127,2.456,2.456,0,0,0,.322-.161,2.657,2.657,0,0,0,1.147-2.231s4.608-1.352,5.858,0a3.269,3.269,0,0,1,.439.6,6.706,6.706,0,0,1,.708,3.193s.234,1.464.615,3.139S748.742,833.365,748.742,833.365Z" transform="translate(-508.887 -546.65)" fill="#2d293d"/>
    <path id="Path_490" data-name="Path 490" d="M715.571,829.931a3.442,3.442,0,0,1,.561.82h0l-6.912.8a3.089,3.089,0,0,0,.488-1.626S714.312,828.583,715.571,829.931Z" transform="translate(-491.196 -548.8)" opacity="0.1"/>
    <path id="Path_491" data-name="Path 491" d="M757.091,826.28v1.294c-1.074,1.772-6.273,1.386-7.781.488a2.487,2.487,0,0,0,.322-.161,2.657,2.657,0,0,0,1.147-2.231s4.608-1.352,5.858,0A3.262,3.262,0,0,1,757.091,826.28Z" transform="translate(-511.715 -546.619)" opacity="0.1"/>
    <path id="Path_492" data-name="Path 492" d="M730.123,744.156a11.515,11.515,0,0,0-.825,1.762v4.642c-1.172,1.953-7.283,1.294-8.1.234s-1.7-3.817-.766-4.286,1.7-2.822,1.7-2.822-.976.234-2.582-1.645-1.113-6.048-.82-7.049a20.9,20.9,0,0,0,0-4.345,8.75,8.75,0,0,0-.41-3.114,38.818,38.818,0,0,1-1.464-5.111,3.469,3.469,0,0,0-.82-2.231c-.82-.766-1.352-3.759-1.352-3.759a3.853,3.853,0,0,1-.586-2.524,5.137,5.137,0,0,0-1-3.056l-2-6.346-1.879-4.76-1.054,2.758s-.3,6.463-.059,7.811.586,4.93.586,4.93a7.233,7.233,0,0,0-.644,4.349,29.7,29.7,0,0,1,.352,6.283s.527,8.87.058,9.578a5.667,5.667,0,0,0-.41,2.441s2.407,5.17,1.64,5.858-.527,2.646-.527,2.646,1.645,0,.942.7-1.235,4.393-1.235,4.393l-7.112.9a15.041,15.041,0,0,1-1.591-3c-.937-2.172.176-1.953,1.123-2.172s.347-.82-.771-1.528-.488-2.289-.488-2.289,1.7-2.88,1.118-3.115-.649-4.286-.649-4.286-1.172-4.818-.879-6.107-.942-4.393-.942-4.393l-.41-3.7a10.173,10.173,0,0,1-1.269-7v-5.716s-1.645-11.042-1.884-16.6c-.146-3.573-.107-8.45-.058-11.5.029-1.7.058-2.836.058-2.836L720.5,675.52a21.023,21.023,0,0,0,.464,3.769c.259,1.391.664,3.2,1.3,5.453a24.8,24.8,0,0,1,.708,11.276l-.234,8.162s2.231,5.463,1.762,7.322a15.511,15.511,0,0,0-.488,3.417s4.994,11.926,4.467,15.392,1.65,8.9,1.65,8.9S730.709,743.121,730.123,744.156Z" transform="translate(-483.922 -470.075)" fill="#464353"/>
    <path id="Path_493" data-name="Path 493" d="M737.22,752.36l7.7-1.03S740.569,755.792,737.22,752.36Z" transform="translate(-505.527 -508.877)" opacity="0.05"/>
    <path id="Path_494" data-name="Path 494" d="M749.276,735.87s.269,2.729-1.406,3.759C747.87,739.629,750.862,739.16,749.276,735.87Z" transform="translate(-510.978 -500.964)" opacity="0.1"/>
    <path id="Path_495" data-name="Path 495" d="M740.23,718.06s-6.454,5.316-8.787,4.882S740.23,718.06,740.23,718.06Z" transform="translate(-502.405 -491.848)" opacity="0.1"/>
    <path id="Path_496" data-name="Path 496" d="M712.3,758.55s-4.882,1.118-5.048,3.085S712.3,758.55,712.3,758.55Z" transform="translate(-490.188 -512.572)" opacity="0.1"/>
    <path id="Path_497" data-name="Path 497" d="M714.241,808.72s-6.927,1.294-4.96,2.177a33.568,33.568,0,0,0,5.2,1.582S716.711,812.6,714.241,808.72Z" transform="translate(-491.047 -538.251)" opacity="0.05"/>
    <g id="Group_124" data-name="Group 124" transform="translate(211.061 207.866)" opacity="0.05">
      <path id="Path_498" data-name="Path 498" d="M705.849,814.945a1.372,1.372,0,0,1-.635-1.005l-.068.127s-.649,1.582.488,2.29c.127.078.249.161.361.239.205-.039.43-.068.64-.122C707.563,816.259,706.967,815.668,705.849,814.945Z" transform="translate(-700.077 -748.789)"/>
      <path id="Path_499" data-name="Path 499" d="M724.724,813.811c.19-.176.181-.63.068-1.211a3.277,3.277,0,0,0-.4,1.7A1.309,1.309,0,0,1,724.724,813.811Z" transform="translate(-710.023 -748.103)"/>
      <path id="Path_500" data-name="Path 500" d="M722.368,755.22a8.078,8.078,0,0,0-.488,2.158,8.535,8.535,0,0,1,.537-1.464A4.363,4.363,0,0,0,722.368,755.22Z" transform="translate(-708.737 -718.734)"/>
      <path id="Path_501" data-name="Path 501" d="M755.257,748.224a2.8,2.8,0,0,0,.064-.644c-.088.439-.147.849-.19,1.206C755.169,748.6,755.208,748.415,755.257,748.224Z" transform="translate(-725.755 -714.824)"/>
      <path id="Path_502" data-name="Path 502" d="M722.371,796.633a3.7,3.7,0,0,0,.176-1.3,4.3,4.3,0,0,0-.337,1.645A1.584,1.584,0,0,1,722.371,796.633Z" transform="translate(-708.906 -739.264)"/>
      <path id="Path_503" data-name="Path 503" d="M714.94,820.68a23.487,23.487,0,0,0-.805,3.608l-7.1.825a14.712,14.712,0,0,1-1.591-3,5.207,5.207,0,0,1-.2-.518c-.425.2-.6.635-.034,1.953a14.542,14.542,0,0,0,1.591,2.992l7.1-.825s.532-3.7,1.235-4.394C715.477,820.948,715.258,820.773,714.94,820.68Z" transform="translate(-700.02 -752.239)"/>
      <path id="Path_504" data-name="Path 504" d="M700.494,738.371s.059,4.057.644,4.291h0c.3-.669.488-1.3.229-1.411-.586-.234-.644-4.286-.644-4.286s-1.176-4.818-.879-6.112-.942-4.393-.942-4.393l-.41-3.7a10.194,10.194,0,0,1-1.294-6.991v-5.707s-1.645-11.042-1.879-16.622c-.151-3.573-.107-8.45-.058-11.5V680.48h-.2s-.029,1.128-.059,2.836c-.049,3.041-.093,7.923.059,11.5.234,5.58,1.879,16.622,1.879,16.622v5.7a10.159,10.159,0,0,0,1.323,7.049l.41,3.7s1.235,3.11.937,4.394S700.494,738.371,700.494,738.371Z" transform="translate(-694.956 -680.48)"/>
      <path id="Path_505" data-name="Path 505" d="M747.66,823.582a6.833,6.833,0,0,1-1.123-2.792c-.727.654.107,3.2.888,4.2s6.932,1.7,8.108-.239v-1.118C753.942,825.213,748.441,824.583,747.66,823.582Z" transform="translate(-721.214 -752.295)"/>
      <path id="Path_506" data-name="Path 506" d="M766.56,812.854a11.737,11.737,0,0,0-.82,1.762v.825c.132-.3.322-.7.586-1.176a3.558,3.558,0,0,0,.259-1.465Z" transform="translate(-731.186 -748.206)"/>
      <path id="Path_507" data-name="Path 507" d="M746.345,805.709a11.3,11.3,0,0,0,.581-1.4s-.976.234-2.587-1.645c-1.152-1.367-1.216-3.949-1.055-5.638-.293,1-.766,5.17.82,7.049A4.141,4.141,0,0,0,746.345,805.709Z" transform="translate(-719.538 -740.134)"/>
      <path id="Path_508" data-name="Path 508" d="M732.723,754.282a32.237,32.237,0,0,1,.117,3.481c.039-.229.083-.415.117-.547a20.584,20.584,0,0,0,0-4.345,8.738,8.738,0,0,0-.41-3.115,38.6,38.6,0,0,1-1.464-5.111,3.469,3.469,0,0,0-.82-2.231c-.82-.766-1.352-3.759-1.352-3.759a3.85,3.85,0,0,1-.591-2.524,5.148,5.148,0,0,0-.976-3.056l-2-6.346-1.9-4.73-1.059,2.758s0,.346-.034.893l.859-2.241,1.88,4.755,2,6.346a5.025,5.025,0,0,1,.976,3.051,3.862,3.862,0,0,0,.61,2.5s.527,2.992,1.347,3.759a3.486,3.486,0,0,1,.825,2.231,35.983,35.983,0,0,0,1.464,5.111A8.367,8.367,0,0,1,732.723,754.282Z" transform="translate(-708.977 -701.731)"/>
    </g>
    <path id="Path_509" data-name="Path 509" d="M747.639,561l-.439,2.148.024.976v.7l-2.441.254-.273-.488h0a20.77,20.77,0,0,0-1.9-3.076c-.454-.381-1.259-6.346-.293-5.99a2.558,2.558,0,0,1,1.367,1.235S748.508,557.267,747.639,561Z" transform="translate(-507.901 -408.649)" fill="#ffcdd3"/>
    <path id="Path_510" data-name="Path 510" d="M750.044,573.523l-2.441.254-.273-.488h0a2.158,2.158,0,0,1,2.7-.444Z" transform="translate(-510.702 -417.373)" opacity="0.1"/>
    <path id="Path_511" data-name="Path 511" d="M750.5,574.908l-3.227.752-.068-.488-.185-1.294a2.221,2.221,0,0,1,3.129-.43l.161.659Z" transform="translate(-510.543 -417.596)" fill="#dce6f2"/>
    <path id="Path_512" data-name="Path 512" d="M638.706,556.429l-3.447,1.855-.312-.654c-.332-.688-.82-1.723-.976-2.094-.2-.571-1.645-1.294-1.645-1.294-3.613-3.451.688-6.414.688-6.414,2.28-4.584,4.818,1.552,4.818,1.552s.352,3.237.1,3.451-.249,1.1-.249,1.1a13.428,13.428,0,0,1,.835,1.953C638.652,556.228,638.706,556.429,638.706,556.429Z" transform="translate(-451.099 -403.847)" fill="#ffcdd3"/>
    <path id="Path_513" data-name="Path 513" d="M642.969,566.66l-3.446,1.855-.312-.654c.488-.405,2.211-1.806,2.778-1.743a4.055,4.055,0,0,0,.82,0C642.915,566.459,642.969,566.66,642.969,566.66Z" transform="translate(-455.362 -414.078)" opacity="0.1"/>
    <path id="Path_514" data-name="Path 514" d="M643.428,567.95l-3.876,1.909-.078-.835-.054-.571s2.246-1.928,2.929-1.855a3.6,3.6,0,0,0,1.015,0l.044.7Z" transform="translate(-455.47 -414.324)" fill="#dce6f2"/>
    <path id="Path_515" data-name="Path 515" d="M719.624,582.192s-16.905,1.909-13.747.884a4.242,4.242,0,0,0,3.261-3.666,8.932,8.932,0,0,0-.63-3.906A16.975,16.975,0,0,0,707,572.448s12.922-7.108,10.339-.644a10.132,10.132,0,0,0-.732,3.061,8.63,8.63,0,0,0,.327,3.1A9.23,9.23,0,0,0,719.624,582.192Z" transform="translate(-489.284 -415.6)" fill="#ffcdd3"/>
    <path id="Path_516" data-name="Path 516" d="M718.919,571.8a10.13,10.13,0,0,0-.732,3.061c-1.22,1.02-2.553.976-4.267.976-1.318,0-2.778.322-3.827-.312a16.961,16.961,0,0,0-1.513-3.056S721.5,565.336,718.919,571.8Z" transform="translate(-490.868 -415.601)" opacity="0.1"/>
    <ellipse id="Ellipse_46" data-name="Ellipse 46" cx="6.991" cy="6.991" rx="6.991" ry="6.991" transform="translate(215.833 146.685)" fill="#ffcdd3"/>
    <path id="Path_517" data-name="Path 517" d="M719.624,590.725s-16.905,1.909-13.747.884a4.242,4.242,0,0,0,3.261-3.666,9.171,9.171,0,0,1,3.617-1.919,5.043,5.043,0,0,1,3.061-.049,4.083,4.083,0,0,1,1.113.488A9.23,9.23,0,0,0,719.624,590.725Z" transform="translate(-489.284 -424.133)" opacity="0.1"/>
    <path id="Path_518" data-name="Path 518" d="M750.7,575.961l-3.227.752-.068-.488a2.851,2.851,0,0,1,3.1-1.064Z" transform="translate(-510.738 -418.649)" opacity="0.1"/>
    <path id="Path_519" data-name="Path 519" d="M643.484,568.684l-3.876,1.909-.078-.835a28.518,28.518,0,0,1,3.905-1.728Z" transform="translate(-455.526 -415.058)" opacity="0.1"/>
    <path id="Path_520" data-name="Path 520" d="M721,679.239c-6.546,1.03-15.865,2.377-17.345,1.928-1.225-.376-5.14-.337-8.553-.22.029-1.7.059-2.836.059-2.836l25.385-2.641a21.028,21.028,0,0,0,.454,3.769Z" transform="translate(-483.968 -470.049)" opacity="0.1"/>
    <path id="Path_521" data-name="Path 521" d="M698.009,622.9s-21.557,3.7-23.871,2.992-14.191.063-14.191.063c-5.345,3.578-3.11-1.7-3.11-1.7a12.739,12.739,0,0,1,.176-4.994,30.584,30.584,0,0,0,.879-4.994s-.117-3.525.527-4.345,1.411-6.7,1.411-6.7.591-3.993.532-4.882.176-3.344.176-3.344l.761-4.115c-4.393-.586-17.8-8.811-17.8-8.811-.644-2.758-5.638-9.221-5.638-9.221a6.794,6.794,0,0,0-.41-1.587c-.351-.937,4.935-2.817,4.935-2.817s3.935,4.818,4.755,6.107a26.885,26.885,0,0,0,3.642,3.7,2.847,2.847,0,0,1,1.294.171h.068a10.42,10.42,0,0,1,2.626,1.508,5.092,5.092,0,0,1,3.583,1.352s2.411-.352,2.822.059,2.441,0,2.441,0,2.06-4.345,3.417-3.085,7.083,1.206,7.083,1.206c.766-1.015,2.621-1.743,3.788-2.119a5.042,5.042,0,0,1,3.061-.049,3.789,3.789,0,0,1,1.211.586l3.476,3.417s.976-1.294.884-1.587,1.176-.527,1.176-.527,1.7-.527,2.348-.708,1.24.527,1.289.586a6.88,6.88,0,0,1-.293-2.582,2.928,2.928,0,0,0-.7-2.114c2.075-5.018,6.717-.771,6.717-.771s.527,2.758.059,3.817.488,3.29.351,3.876a26.453,26.453,0,0,0,.234,2.7,16.06,16.06,0,0,1-.937,4.174c-.356.937-3.173,3.051-3.173,3.051A13.247,13.247,0,0,1,692.2,596.5c-1.235,1.938-.488,8.577-.488,8.577s1.172,5.17,2.641,6.834S698.009,622.9,698.009,622.9Z" transform="translate(-454.454 -415.273)" fill="#3f3d56"/>
    <path id="Path_522" data-name="Path 522" d="M694.069,597.093s-.645-1.953-1.235-2.119a13.9,13.9,0,0,1-1.7-.761l.381-.723s2.207.605,2.558,1.25A5.1,5.1,0,0,1,694.069,597.093Z" transform="translate(-481.937 -428.089)" opacity="0.1"/>
    <path id="Path_523" data-name="Path 523" d="M667.4,590.473c-.117.591-5.34,1.118-5.34,1.118l2.641-2.651h0l.068.024h0A10.411,10.411,0,0,1,667.4,590.473Z" transform="translate(-467.057 -425.76)" opacity="0.1"/>
    <ellipse id="Ellipse_47" data-name="Ellipse 47" cx="0.469" cy="0.469" rx="0.469" ry="0.469" transform="translate(184.732 156.184)" fill="#575988"/>
    <ellipse id="Ellipse_48" data-name="Ellipse 48" cx="0.469" cy="0.469" rx="0.469" ry="0.469" transform="translate(185.332 157.126)" fill="#575988"/>
    <ellipse id="Ellipse_49" data-name="Ellipse 49" cx="0.469" cy="0.469" rx="0.469" ry="0.469" transform="translate(185.923 157.99)" fill="#575988"/>
    <ellipse id="Ellipse_50" data-name="Ellipse 50" cx="0.469" cy="0.469" rx="0.469" ry="0.469" transform="translate(186.538 158.933)" fill="#575988"/>
    <ellipse id="Ellipse_51" data-name="Ellipse 51" cx="0.381" cy="0.381" rx="0.381" ry="0.381" transform="translate(241.993 158.967)" fill="#575988"/>
    <ellipse id="Ellipse_52" data-name="Ellipse 52" cx="0.381" cy="0.381" rx="0.381" ry="0.381" transform="translate(242.052 159.836)" fill="#575988"/>
    <ellipse id="Ellipse_53" data-name="Ellipse 53" cx="0.381" cy="0.381" rx="0.381" ry="0.381" transform="translate(242.101 160.7)" fill="#575988"/>
    <path id="Path_524" data-name="Path 524" d="M697.21,633.47c-.054-.069,13.18,16.651,23.466,6.991C720.676,640.46,704.43,642.662,697.21,633.47Z" transform="translate(-485.048 -448.552)" opacity="0.1"/>
    <path id="Path_525" data-name="Path 525" d="M681.63,651.28s7.923.215,8.753,2.495v2.372a1.518,1.518,0,0,1-1.464,0c-.8-.43-5.59-2.866-7.279-1.694Z" transform="translate(-477.074 -457.668)" opacity="0.1"/>
    <path id="Path_526" data-name="Path 526" d="M681.93,651.28s7.576.205,8.372,2.377v2.265a1.465,1.465,0,0,1-1.411,0c-.766-.415-5.37-2.734-6.961-1.616Z" transform="translate(-477.228 -457.668)" fill="#3f3d56"/>
    <path id="Path_527" data-name="Path 527" d="M690.49,616a25.527,25.527,0,0,0,3.07,5.267,20.575,20.575,0,0,0,4.813,4.647S690.622,617.108,690.49,616Z" transform="translate(-481.609 -439.61)" opacity="0.1"/>
    <path id="Path_528" data-name="Path 528" d="M685.18,597.18s1.323,5.707,4.725,7.645Z" transform="translate(-478.891 -429.978)" opacity="0.1"/>
    <path id="Path_529" data-name="Path 529" d="M680.875,598.358c-.034-.107-1.177,4.511,4.393,7.069C685.269,605.427,682.916,604.626,680.875,598.358Z" transform="translate(-476.627 -430.58)" opacity="0.1"/>
    <path id="Path_530" data-name="Path 530" d="M751.9,590.516a40.922,40.922,0,0,1,3.515,2.641S753.572,590.4,751.9,590.516Z" transform="translate(-513.039 -426.565)" opacity="0.1"/>
    <path id="Path_531" data-name="Path 531" d="M709.087,565.9a1.489,1.489,0,0,0,.542.947,1.527,1.527,0,0,0,.659.146,14.28,14.28,0,0,0,6.346-.6,2.363,2.363,0,0,0,.976-.64,3.8,3.8,0,0,0,.517-1.538,23.956,23.956,0,0,1,1.294-2.968,9.972,9.972,0,0,0,.688-5.331,3.569,3.569,0,0,0-.532-1.562c-.566-.805-1.6-1.133-2.343-1.777s-1.23-1.626-2.1-2.109a4.082,4.082,0,0,0-2.636-.234,13.925,13.925,0,0,0-4.921,1.85,2.436,2.436,0,0,1-1.645.562,2.26,2.26,0,0,1-1.211-.928,6.5,6.5,0,0,0-.522,3.041.9.9,0,0,1-.327.947,1.777,1.777,0,0,0-.337,2.192c.23.268.576.415.8.688.4.488.259,1.2.249,1.826a.976.976,0,0,0,.156.62.908.908,0,0,0,.864.205,2.363,2.363,0,0,1,.918-.088,1.546,1.546,0,0,1,.8.615A11.16,11.16,0,0,1,709.087,565.9Z" transform="translate(-488.153 -405.89)" fill="#2d293d"/>
    <g id="Group_125" data-name="Group 125" transform="translate(215.074 145.757)" opacity="0.1">
      <path id="Path_532" data-name="Path 532" d="M717.735,571.335a2.31,2.31,0,0,1-.977.635,14.025,14.025,0,0,1-6.317.6,1.434,1.434,0,0,1-.659-.146,1.465,1.465,0,0,1-.547-.942,10.894,10.894,0,0,0-1.782-4.135,1.523,1.523,0,0,0-.8-.615,2.362,2.362,0,0,0-.918.088.908.908,0,0,1-.864-.2.947.947,0,0,1-.151-.62c0-.63.142-1.338-.254-1.826-.22-.273-.566-.42-.8-.688a1.377,1.377,0,0,1-.132-1.406,1.608,1.608,0,0,0-.1,1.875c.229.269.576.415.8.688.4.488.259,1.2.249,1.826a.977.977,0,0,0,.156.62.9.9,0,0,0,.864.2,2.362,2.362,0,0,1,.918-.088,1.548,1.548,0,0,1,.8.615A11.084,11.084,0,0,1,709,571.946a1.49,1.49,0,0,0,.542.947,1.528,1.528,0,0,0,.659.146,14.278,14.278,0,0,0,6.346-.6,2.4,2.4,0,0,0,.976-.64,1.858,1.858,0,0,0,.3-.566A.351.351,0,0,1,717.735,571.335Z" transform="translate(-703.176 -557.764)"/>
      <path id="Path_533" data-name="Path 533" d="M705.142,556.638a.976.976,0,0,0,.215-.356,1.461,1.461,0,0,0,0-.459,6.443,6.443,0,0,1,.327-2.529l-.039-.044a6.446,6.446,0,0,0-.522,3.041A2.07,2.07,0,0,1,705.142,556.638Z" transform="translate(-704.164 -553.25)"/>
    </g>
    <path id="Path_534" data-name="Path 534" d="M712.62,590.9s5.554.736,6.054-.1" transform="translate(-507.463 -381.012)" opacity="0.1"/>
    <path id="Path_535" data-name="Path 535" d="M747.4,583.72s3.083,0,3.763,1.161" transform="translate(-531.445 -376.13)" opacity="0.1"/>
  </g>
</svg>
