<svg xmlns="http://www.w3.org/2000/svg" width="311.274" height="167.973" viewBox="0 0 311.274 167.973">
  <g id="undraw_developer_activity_bv83" transform="translate(0 -0.04)">
    <path id="Path_391" data-name="Path 391" d="M339.273,249.18a49.5,49.5,0,0,1-1.864,13.5,48.994,48.994,0,0,1-5.243,12.048c0,13.632-9.2,25.413-22.559,31.019a45.521,45.521,0,0,1-17.613,3.483H87.09a56.858,56.858,0,0,1-29.424-7.989,50.541,50.541,0,0,1-6.756-4.868c-9.251-7.951-14.987-18.938-14.987-31.073a49.257,49.257,0,0,1,20.8-71.563,47.481,47.481,0,0,1,6.941-2.481q1.26-.343,2.547-.615a47.724,47.724,0,0,1,6.941-.952q1.265-.079,2.544-.09h.468c.941,0,1.875.033,2.8.087l.3-.517q.561-.936,1.148-1.853,1.061-1.671,2.226-3.292,1.219-1.711,2.544-3.369l.226-.272q.751-.936,1.535-1.85,2.449-2.854,5.17-5.537c19.621-19.231,50.359-31.612,84.914-31.612,26.888,0,51.466,7.5,70.292,19.882a47.393,47.393,0,0,1,23.384-6.147c26.594,0,48.16,21.868,48.16,48.843a50.316,50.316,0,0,1-.272,5.11A48.976,48.976,0,0,1,339.273,249.18Z" transform="translate(-28 -141.34)" fill="#f17f07" opacity="0.1"/>
    <path id="Path_392" data-name="Path 392" d="M249.83,257.52v5.537h-5.17Q247.09,260.206,249.83,257.52Z" transform="translate(-185.709 -225.879)" fill="#f17f07" opacity="0.2"/>
    <rect id="Rectangle_17" data-name="Rectangle 17" width="6.941" height="6.941" transform="translate(66.668 30.237)" fill="#f17f07" opacity="0.2"/>
    <rect id="Rectangle_18" data-name="Rectangle 18" width="6.941" height="6.941" transform="translate(76.153 30.237)" fill="#f17f07" opacity="0.2"/>
    <rect id="Rectangle_19" data-name="Rectangle 19" width="6.941" height="6.941" transform="translate(85.641 30.237)" fill="#f17f07" opacity="0.2"/>
    <rect id="Rectangle_20" data-name="Rectangle 20" width="6.941" height="6.941" transform="translate(95.126 30.237)" fill="#f17f07" opacity="0.2"/>
    <rect id="Rectangle_21" data-name="Rectangle 21" width="6.941" height="6.941" transform="translate(104.614 30.237)" fill="#f17f07" opacity="0.2"/>
    <rect id="Rectangle_22" data-name="Rectangle 22" width="6.941" height="6.941" transform="translate(114.101 30.237)" fill="#f17f07"/>
    <rect id="Rectangle_23" data-name="Rectangle 23" width="6.941" height="6.941" transform="translate(123.587 30.237)" fill="#f17f07" opacity="0.2"/>
    <rect id="Rectangle_24" data-name="Rectangle 24" width="6.941" height="6.941" transform="translate(133.074 30.237)" fill="#f17f07" opacity="0.2"/>
    <rect id="Rectangle_25" data-name="Rectangle 25" width="6.941" height="6.941" transform="translate(142.56 30.237)" fill="#f17f07" opacity="0.2"/>
    <rect id="Rectangle_26" data-name="Rectangle 26" width="6.941" height="6.941" transform="translate(152.047 30.237)" fill="#f17f07"/>
    <rect id="Rectangle_27" data-name="Rectangle 27" width="6.941" height="6.941" transform="translate(161.535 30.237)" fill="#f17f07" opacity="0.2"/>
    <rect id="Rectangle_28" data-name="Rectangle 28" width="6.941" height="6.941" transform="translate(171.02 30.237)" fill="#f17f07" opacity="0.2"/>
    <rect id="Rectangle_29" data-name="Rectangle 29" width="6.941" height="6.941" transform="translate(180.508 30.237)" fill="#f17f07" opacity="0.2"/>
    <rect id="Rectangle_30" data-name="Rectangle 30" width="6.941" height="6.941" transform="translate(189.996 30.237)" fill="#f17f07" opacity="0.2"/>
    <rect id="Rectangle_31" data-name="Rectangle 31" width="6.941" height="6.941" transform="translate(199.481 30.237)" fill="#f17f07" opacity="0.2"/>
    <rect id="Rectangle_32" data-name="Rectangle 32" width="6.941" height="6.941" transform="translate(208.969 30.237)" fill="#f17f07" opacity="0.2"/>
    <rect id="Rectangle_33" data-name="Rectangle 33" width="6.941" height="6.941" transform="translate(218.454 30.237)" fill="#f17f07"/>
    <rect id="Rectangle_34" data-name="Rectangle 34" width="6.941" height="6.941" transform="translate(227.942 30.237)" fill="#f17f07"/>
    <rect id="Rectangle_35" data-name="Rectangle 35" width="6.941" height="6.941" transform="translate(237.43 30.237)" fill="#f17f07" opacity="0.2"/>
    <rect id="Rectangle_36" data-name="Rectangle 36" width="6.941" height="6.941" transform="translate(246.915 30.237)" fill="#f17f07" opacity="0.2"/>
    <rect id="Rectangle_37" data-name="Rectangle 37" width="6.941" height="6.941" transform="translate(256.403 30.237)" fill="#f17f07"/>
    <rect id="Rectangle_38" data-name="Rectangle 38" width="6.941" height="6.941" transform="translate(265.888 30.237)" fill="#f17f07"/>
    <path id="Path_393" data-name="Path 393" d="M222.846,298.08v3.292H220.62Q221.681,299.691,222.846,298.08Z" transform="translate(-168.21 -255.403)" fill="#f17f07"/>
    <rect id="Rectangle_39" data-name="Rectangle 39" width="6.941" height="6.941" transform="translate(57.18 39.028)" fill="#f17f07" opacity="0.2"/>
    <rect id="Rectangle_40" data-name="Rectangle 40" width="6.941" height="6.941" transform="translate(66.668 39.028)" fill="#f17f07"/>
    <rect id="Rectangle_41" data-name="Rectangle 41" width="6.941" height="6.941" transform="translate(76.153 39.028)" fill="#f17f07" opacity="0.2"/>
    <rect id="Rectangle_42" data-name="Rectangle 42" width="6.941" height="6.941" transform="translate(85.641 39.028)" fill="#f17f07" opacity="0.7"/>
    <rect id="Rectangle_43" data-name="Rectangle 43" width="6.941" height="6.941" transform="translate(95.126 39.028)" fill="#f17f07" opacity="0.2"/>
    <rect id="Rectangle_44" data-name="Rectangle 44" width="6.941" height="6.941" transform="translate(104.614 39.028)" fill="#f17f07" opacity="0.4"/>
    <rect id="Rectangle_45" data-name="Rectangle 45" width="6.941" height="6.941" transform="translate(114.101 39.028)" fill="#f17f07"/>
    <rect id="Rectangle_46" data-name="Rectangle 46" width="6.941" height="6.941" transform="translate(123.587 39.028)" fill="#f17f07" opacity="0.4"/>
    <rect id="Rectangle_47" data-name="Rectangle 47" width="6.941" height="6.941" transform="translate(133.074 39.028)" fill="#f17f07" opacity="0.2"/>
    <rect id="Rectangle_48" data-name="Rectangle 48" width="6.941" height="6.941" transform="translate(142.56 39.028)" fill="#f17f07" opacity="0.4"/>
    <rect id="Rectangle_49" data-name="Rectangle 49" width="6.941" height="6.941" transform="translate(152.047 39.028)" fill="#f17f07"/>
    <rect id="Rectangle_50" data-name="Rectangle 50" width="6.941" height="6.941" transform="translate(161.535 39.028)" fill="#f17f07" opacity="0.4"/>
    <rect id="Rectangle_51" data-name="Rectangle 51" width="6.941" height="6.941" transform="translate(171.02 39.028)" fill="#f17f07" opacity="0.4"/>
    <rect id="Rectangle_52" data-name="Rectangle 52" width="6.941" height="6.941" transform="translate(180.508 39.028)" fill="#f17f07" opacity="0.2"/>
    <rect id="Rectangle_53" data-name="Rectangle 53" width="6.941" height="6.941" transform="translate(189.996 39.028)" fill="#f17f07" opacity="0.4"/>
    <rect id="Rectangle_54" data-name="Rectangle 54" width="6.941" height="6.941" transform="translate(199.481 39.028)" fill="#f17f07" opacity="0.4"/>
    <rect id="Rectangle_55" data-name="Rectangle 55" width="6.941" height="6.941" transform="translate(208.969 39.028)" fill="#f17f07" opacity="0.2"/>
    <rect id="Rectangle_56" data-name="Rectangle 56" width="6.941" height="6.941" transform="translate(218.454 39.028)" fill="#f17f07" opacity="0.2"/>
    <rect id="Rectangle_57" data-name="Rectangle 57" width="6.941" height="6.941" transform="translate(227.942 39.028)" fill="#f17f07" opacity="0.4"/>
    <rect id="Rectangle_58" data-name="Rectangle 58" width="6.941" height="6.941" transform="translate(237.43 39.028)" fill="#f17f07" opacity="0.2"/>
    <rect id="Rectangle_59" data-name="Rectangle 59" width="6.941" height="6.941" transform="translate(246.915 39.028)" fill="#f17f07"/>
    <rect id="Rectangle_60" data-name="Rectangle 60" width="6.941" height="6.941" transform="translate(256.403 39.028)" fill="#f17f07"/>
    <rect id="Rectangle_61" data-name="Rectangle 61" width="6.941" height="6.941" transform="translate(265.888 39.028)" fill="#f17f07"/>
    <path id="Path_394" data-name="Path 394" d="M140.491,324.67v4.851H133.55v-2.37A47.492,47.492,0,0,1,140.491,324.67Z" transform="translate(-104.831 -274.758)" fill="#f17f07" opacity="0.2"/>
    <path id="Path_395" data-name="Path 395" d="M147.361,177.57v6.419H140.42v-5.466Z" transform="translate(-102.213 -129.225)" fill="#f17f07" opacity="0.2"/>
    <rect id="Rectangle_62" data-name="Rectangle 62" width="6.941" height="6.941" transform="translate(47.692 47.822)" fill="#f17f07"/>
    <rect id="Rectangle_63" data-name="Rectangle 63" width="6.941" height="6.941" transform="translate(57.18 47.822)" fill="#f17f07" opacity="0.7"/>
    <rect id="Rectangle_64" data-name="Rectangle 64" width="6.941" height="6.941" transform="translate(66.668 47.822)" fill="#f17f07"/>
    <rect id="Rectangle_65" data-name="Rectangle 65" width="6.941" height="6.941" transform="translate(76.153 47.822)" fill="#f17f07" opacity="0.7"/>
    <rect id="Rectangle_66" data-name="Rectangle 66" width="6.941" height="6.941" transform="translate(85.641 47.822)" fill="#f17f07" opacity="0.7"/>
    <rect id="Rectangle_67" data-name="Rectangle 67" width="6.941" height="6.941" transform="translate(95.126 47.822)" fill="#f17f07" opacity="0.2"/>
    <rect id="Rectangle_68" data-name="Rectangle 68" width="6.941" height="6.941" transform="translate(104.614 47.822)" fill="#f17f07" opacity="0.4"/>
    <rect id="Rectangle_69" data-name="Rectangle 69" width="6.941" height="6.941" transform="translate(114.101 47.822)" fill="#f17f07" opacity="0.4"/>
    <rect id="Rectangle_70" data-name="Rectangle 70" width="6.941" height="6.941" transform="translate(123.587 47.822)" fill="#f17f07"/>
    <rect id="Rectangle_71" data-name="Rectangle 71" width="6.941" height="6.941" transform="translate(133.074 47.822)" fill="#f17f07" opacity="0.2"/>
    <rect id="Rectangle_72" data-name="Rectangle 72" width="6.941" height="6.941" transform="translate(142.56 47.822)" fill="#f17f07" opacity="0.4"/>
    <rect id="Rectangle_73" data-name="Rectangle 73" width="6.941" height="6.941" transform="translate(152.047 47.822)" fill="#f17f07"/>
    <rect id="Rectangle_74" data-name="Rectangle 74" width="6.941" height="6.941" transform="translate(161.535 47.822)" fill="#f17f07" opacity="0.2"/>
    <rect id="Rectangle_75" data-name="Rectangle 75" width="6.941" height="6.941" transform="translate(171.02 47.822)" fill="#f17f07" opacity="0.4"/>
    <rect id="Rectangle_76" data-name="Rectangle 76" width="6.941" height="6.941" transform="translate(180.508 47.822)" fill="#f17f07" opacity="0.2"/>
    <rect id="Rectangle_77" data-name="Rectangle 77" width="6.941" height="6.941" transform="translate(189.996 47.822)" fill="#f17f07"/>
    <rect id="Rectangle_78" data-name="Rectangle 78" width="6.941" height="6.941" transform="translate(199.481 47.822)" fill="#f17f07" opacity="0.2"/>
    <rect id="Rectangle_79" data-name="Rectangle 79" width="6.941" height="6.941" transform="translate(208.969 47.822)" fill="#f17f07" opacity="0.7"/>
    <rect id="Rectangle_80" data-name="Rectangle 80" width="6.941" height="6.941" transform="translate(218.454 47.822)" fill="#f17f07" opacity="0.7"/>
    <rect id="Rectangle_81" data-name="Rectangle 81" width="6.941" height="6.941" transform="translate(227.942 47.822)" fill="#f17f07" opacity="0.4"/>
    <rect id="Rectangle_82" data-name="Rectangle 82" width="6.941" height="6.941" transform="translate(237.43 47.822)" fill="#f17f07" opacity="0.2"/>
    <rect id="Rectangle_83" data-name="Rectangle 83" width="6.941" height="6.941" transform="translate(246.915 47.822)" fill="#f17f07"/>
    <rect id="Rectangle_84" data-name="Rectangle 84" width="6.941" height="6.941" transform="translate(256.403 47.822)" fill="#f17f07"/>
    <rect id="Rectangle_85" data-name="Rectangle 85" width="6.941" height="6.941" transform="translate(265.888 47.822)" fill="#f17f07"/>
    <rect id="Rectangle_86" data-name="Rectangle 86" width="6.941" height="6.941" transform="translate(28.719 56.613)" fill="#f17f07" opacity="0.2"/>
    <rect id="Rectangle_87" data-name="Rectangle 87" width="6.941" height="6.941" transform="translate(38.207 56.613)" fill="#f17f07" opacity="0.2"/>
    <rect id="Rectangle_88" data-name="Rectangle 88" width="6.941" height="6.941" transform="translate(47.692 56.613)" fill="#f17f07" opacity="0.2"/>
    <rect id="Rectangle_89" data-name="Rectangle 89" width="6.941" height="6.941" transform="translate(57.18 56.613)" fill="#f17f07" opacity="0.2"/>
    <rect id="Rectangle_90" data-name="Rectangle 90" width="6.941" height="6.941" transform="translate(66.668 56.613)" fill="#f17f07"/>
    <rect id="Rectangle_91" data-name="Rectangle 91" width="6.941" height="6.941" transform="translate(76.153 56.613)" fill="#f17f07" opacity="0.7"/>
    <rect id="Rectangle_92" data-name="Rectangle 92" width="6.941" height="6.941" transform="translate(85.641 56.613)" fill="#f17f07" opacity="0.7"/>
    <rect id="Rectangle_93" data-name="Rectangle 93" width="6.941" height="6.941" transform="translate(95.126 56.613)" fill="#f17f07" opacity="0.2"/>
    <rect id="Rectangle_94" data-name="Rectangle 94" width="6.941" height="6.941" transform="translate(104.614 56.613)" fill="#f17f07" opacity="0.2"/>
    <rect id="Rectangle_95" data-name="Rectangle 95" width="6.941" height="6.941" transform="translate(114.101 56.613)" fill="#f17f07" opacity="0.4"/>
    <rect id="Rectangle_96" data-name="Rectangle 96" width="6.941" height="6.941" transform="translate(123.587 56.613)" fill="#f17f07" opacity="0.4"/>
    <rect id="Rectangle_97" data-name="Rectangle 97" width="6.941" height="6.941" transform="translate(133.074 56.613)" fill="#f17f07"/>
    <rect id="Rectangle_98" data-name="Rectangle 98" width="6.941" height="6.941" transform="translate(142.56 56.613)" fill="#f17f07" opacity="0.2"/>
    <rect id="Rectangle_99" data-name="Rectangle 99" width="6.941" height="6.941" transform="translate(152.047 56.613)" fill="#f17f07" opacity="0.4"/>
    <rect id="Rectangle_100" data-name="Rectangle 100" width="6.941" height="6.941" transform="translate(161.535 56.613)" fill="#f17f07" opacity="0.4"/>
    <rect id="Rectangle_101" data-name="Rectangle 101" width="6.941" height="6.941" transform="translate(171.02 56.613)" fill="#f17f07" opacity="0.4"/>
    <rect id="Rectangle_102" data-name="Rectangle 102" width="6.941" height="6.941" transform="translate(180.508 56.613)" fill="#f17f07" opacity="0.4"/>
    <rect id="Rectangle_103" data-name="Rectangle 103" width="6.941" height="6.941" transform="translate(189.996 56.613)" fill="#f17f07" opacity="0.2"/>
    <rect id="Rectangle_104" data-name="Rectangle 104" width="6.941" height="6.941" transform="translate(199.481 56.613)" fill="#f17f07" opacity="0.2"/>
    <rect id="Rectangle_105" data-name="Rectangle 105" width="6.941" height="6.941" transform="translate(208.969 56.613)" fill="#f17f07" opacity="0.2"/>
    <rect id="Rectangle_106" data-name="Rectangle 106" width="6.941" height="6.941" transform="translate(218.454 56.613)" fill="#f17f07" opacity="0.2"/>
    <rect id="Rectangle_107" data-name="Rectangle 107" width="6.941" height="6.941" transform="translate(227.942 56.613)" fill="#f17f07" opacity="0.7"/>
    <rect id="Rectangle_108" data-name="Rectangle 108" width="6.941" height="6.941" transform="translate(237.43 56.613)" fill="#f17f07" opacity="0.7"/>
    <rect id="Rectangle_109" data-name="Rectangle 109" width="6.941" height="6.941" transform="translate(246.915 56.613)" fill="#f17f07" opacity="0.4"/>
    <rect id="Rectangle_110" data-name="Rectangle 110" width="6.941" height="6.941" transform="translate(256.403 56.613)" fill="#f17f07" opacity="0.2"/>
    <rect id="Rectangle_111" data-name="Rectangle 111" width="6.941" height="6.941" transform="translate(265.888 56.613)" fill="#f17f07"/>
    <rect id="Rectangle_112" data-name="Rectangle 112" width="6.941" height="6.941" transform="translate(28.719 65.407)" fill="#f17f07" opacity="0.2"/>
    <rect id="Rectangle_113" data-name="Rectangle 113" width="6.941" height="6.941" transform="translate(38.207 65.407)" fill="#f17f07" opacity="0.2"/>
    <rect id="Rectangle_114" data-name="Rectangle 114" width="6.941" height="6.941" transform="translate(47.692 65.407)" fill="#f17f07" opacity="0.4"/>
    <rect id="Rectangle_115" data-name="Rectangle 115" width="6.941" height="6.941" transform="translate(57.18 65.407)" fill="#f17f07" opacity="0.2"/>
    <rect id="Rectangle_116" data-name="Rectangle 116" width="6.941" height="6.941" transform="translate(66.668 65.407)" fill="#f17f07" opacity="0.2"/>
    <rect id="Rectangle_117" data-name="Rectangle 117" width="6.941" height="6.941" transform="translate(76.153 65.407)" fill="#f17f07" opacity="0.7"/>
    <rect id="Rectangle_118" data-name="Rectangle 118" width="6.941" height="6.941" transform="translate(85.641 65.407)" fill="#f17f07" opacity="0.7"/>
    <rect id="Rectangle_119" data-name="Rectangle 119" width="6.941" height="6.941" transform="translate(95.126 65.407)" fill="#f17f07" opacity="0.2"/>
    <rect id="Rectangle_120" data-name="Rectangle 120" width="6.941" height="6.941" transform="translate(104.614 65.407)" fill="#f17f07" opacity="0.2"/>
    <rect id="Rectangle_121" data-name="Rectangle 121" width="6.941" height="6.941" transform="translate(114.101 65.407)" fill="#f17f07" opacity="0.4"/>
    <rect id="Rectangle_122" data-name="Rectangle 122" width="6.941" height="6.941" transform="translate(123.587 65.407)" fill="#f17f07"/>
    <rect id="Rectangle_123" data-name="Rectangle 123" width="6.941" height="6.941" transform="translate(133.074 65.407)" fill="#f17f07" opacity="0.2"/>
    <rect id="Rectangle_124" data-name="Rectangle 124" width="6.941" height="6.941" transform="translate(142.56 65.407)" fill="#f17f07"/>
    <rect id="Rectangle_125" data-name="Rectangle 125" width="6.941" height="6.941" transform="translate(152.047 65.407)" fill="#f17f07"/>
    <rect id="Rectangle_126" data-name="Rectangle 126" width="6.941" height="6.941" transform="translate(161.535 65.407)" fill="#f17f07"/>
    <rect id="Rectangle_127" data-name="Rectangle 127" width="6.941" height="6.941" transform="translate(171.02 65.407)" fill="#f17f07" opacity="0.2"/>
    <rect id="Rectangle_128" data-name="Rectangle 128" width="6.941" height="6.941" transform="translate(180.508 65.407)" fill="#f17f07"/>
    <rect id="Rectangle_129" data-name="Rectangle 129" width="6.941" height="6.941" transform="translate(189.996 65.407)" fill="#f17f07" opacity="0.2"/>
    <rect id="Rectangle_130" data-name="Rectangle 130" width="6.941" height="6.941" transform="translate(199.481 65.407)" fill="#f17f07" opacity="0.2"/>
    <rect id="Rectangle_131" data-name="Rectangle 131" width="6.941" height="6.941" transform="translate(208.969 65.407)" fill="#f17f07" opacity="0.2"/>
    <rect id="Rectangle_132" data-name="Rectangle 132" width="6.941" height="6.941" transform="translate(218.454 65.407)" fill="#f17f07" opacity="0.2"/>
    <rect id="Rectangle_133" data-name="Rectangle 133" width="6.941" height="6.941" transform="translate(227.942 65.407)" fill="#f17f07" opacity="0.2"/>
    <rect id="Rectangle_134" data-name="Rectangle 134" width="6.941" height="6.941" transform="translate(237.43 65.407)" fill="#f17f07" opacity="0.7"/>
    <rect id="Rectangle_135" data-name="Rectangle 135" width="6.941" height="6.941" transform="translate(246.915 65.407)" fill="#f17f07" opacity="0.2"/>
    <rect id="Rectangle_136" data-name="Rectangle 136" width="6.941" height="6.941" transform="translate(256.403 65.407)" fill="#f17f07" opacity="0.2"/>
    <rect id="Rectangle_137" data-name="Rectangle 137" width="6.941" height="6.941" transform="translate(265.888 65.407)" fill="#f17f07"/>
    <rect id="Rectangle_138" data-name="Rectangle 138" width="6.941" height="6.941" transform="translate(28.719 74.199)" fill="#f17f07" opacity="0.2"/>
    <rect id="Rectangle_139" data-name="Rectangle 139" width="6.941" height="6.941" transform="translate(38.207 74.199)" fill="#f17f07" opacity="0.2"/>
    <rect id="Rectangle_140" data-name="Rectangle 140" width="6.941" height="6.941" transform="translate(47.692 74.199)" fill="#f17f07" opacity="0.2"/>
    <rect id="Rectangle_141" data-name="Rectangle 141" width="6.941" height="6.941" transform="translate(57.18 74.199)" fill="#f17f07" opacity="0.4"/>
    <rect id="Rectangle_142" data-name="Rectangle 142" width="6.941" height="6.941" transform="translate(66.668 74.199)" fill="#f17f07" opacity="0.2"/>
    <rect id="Rectangle_143" data-name="Rectangle 143" width="6.941" height="6.941" transform="translate(76.153 74.199)" fill="#f17f07" opacity="0.2"/>
    <rect id="Rectangle_144" data-name="Rectangle 144" width="6.941" height="6.941" transform="translate(85.641 74.199)" fill="#f17f07" opacity="0.7"/>
    <rect id="Rectangle_145" data-name="Rectangle 145" width="6.941" height="6.941" transform="translate(95.126 74.199)" fill="#f17f07" opacity="0.2"/>
    <rect id="Rectangle_146" data-name="Rectangle 146" width="6.941" height="6.941" transform="translate(104.614 74.199)" fill="#f17f07" opacity="0.2"/>
    <rect id="Rectangle_147" data-name="Rectangle 147" width="6.941" height="6.941" transform="translate(114.101 74.199)" fill="#f17f07" opacity="0.2"/>
    <rect id="Rectangle_148" data-name="Rectangle 148" width="6.941" height="6.941" transform="translate(123.587 74.199)" fill="#f17f07"/>
    <rect id="Rectangle_149" data-name="Rectangle 149" width="6.941" height="6.941" transform="translate(133.074 74.199)" fill="#f17f07" opacity="0.2"/>
    <rect id="Rectangle_150" data-name="Rectangle 150" width="6.941" height="6.941" transform="translate(142.56 74.199)" fill="#f17f07"/>
    <rect id="Rectangle_151" data-name="Rectangle 151" width="6.941" height="6.941" transform="translate(152.047 74.199)" fill="#f17f07"/>
    <rect id="Rectangle_152" data-name="Rectangle 152" width="6.941" height="6.941" transform="translate(161.535 74.199)" fill="#f17f07" opacity="0.2"/>
    <rect id="Rectangle_153" data-name="Rectangle 153" width="6.941" height="6.941" transform="translate(171.02 74.199)" fill="#f17f07" opacity="0.2"/>
    <rect id="Rectangle_154" data-name="Rectangle 154" width="6.941" height="6.941" transform="translate(180.508 74.199)" fill="#f17f07" opacity="0.2"/>
    <rect id="Rectangle_155" data-name="Rectangle 155" width="6.941" height="6.941" transform="translate(189.996 74.199)" fill="#f17f07" opacity="0.2"/>
    <rect id="Rectangle_156" data-name="Rectangle 156" width="6.941" height="6.941" transform="translate(199.481 74.199)" fill="#f17f07" opacity="0.2"/>
    <rect id="Rectangle_157" data-name="Rectangle 157" width="6.941" height="6.941" transform="translate(208.969 74.199)" fill="#f17f07" opacity="0.2"/>
    <rect id="Rectangle_158" data-name="Rectangle 158" width="6.941" height="6.941" transform="translate(218.454 74.199)" fill="#f17f07" opacity="0.2"/>
    <rect id="Rectangle_159" data-name="Rectangle 159" width="6.941" height="6.941" transform="translate(227.942 74.199)" fill="#f17f07" opacity="0.2"/>
    <rect id="Rectangle_160" data-name="Rectangle 160" width="6.941" height="6.941" transform="translate(237.43 74.199)" fill="#f17f07" opacity="0.2"/>
    <rect id="Rectangle_161" data-name="Rectangle 161" width="6.941" height="6.941" transform="translate(246.915 74.199)" fill="#f17f07" opacity="0.2"/>
    <rect id="Rectangle_162" data-name="Rectangle 162" width="6.941" height="6.941" transform="translate(256.403 74.199)" fill="#f17f07" opacity="0.4"/>
    <rect id="Rectangle_163" data-name="Rectangle 163" width="6.941" height="6.941" transform="translate(265.888 74.199)" fill="#f17f07"/>
    <rect id="Rectangle_164" data-name="Rectangle 164" width="6.941" height="6.941" transform="translate(28.719 82.993)" fill="#f17f07" opacity="0.7"/>
    <rect id="Rectangle_165" data-name="Rectangle 165" width="6.941" height="6.941" transform="translate(38.207 82.993)" fill="#f17f07" opacity="0.7"/>
    <rect id="Rectangle_166" data-name="Rectangle 166" width="6.941" height="6.941" transform="translate(47.692 82.993)" fill="#f17f07" opacity="0.7"/>
    <rect id="Rectangle_167" data-name="Rectangle 167" width="6.941" height="6.941" transform="translate(57.18 82.993)" fill="#f17f07" opacity="0.7"/>
    <rect id="Rectangle_168" data-name="Rectangle 168" width="6.941" height="6.941" transform="translate(66.668 82.993)" fill="#f17f07" opacity="0.7"/>
    <rect id="Rectangle_169" data-name="Rectangle 169" width="6.941" height="6.941" transform="translate(76.153 82.993)" fill="#f17f07" opacity="0.2"/>
    <rect id="Rectangle_170" data-name="Rectangle 170" width="6.941" height="6.941" transform="translate(85.641 82.993)" fill="#f17f07" opacity="0.2"/>
    <rect id="Rectangle_171" data-name="Rectangle 171" width="6.941" height="6.941" transform="translate(95.126 82.993)" fill="#f17f07" opacity="0.2"/>
    <rect id="Rectangle_172" data-name="Rectangle 172" width="6.941" height="6.941" transform="translate(104.614 82.993)" fill="#f17f07" opacity="0.2"/>
    <rect id="Rectangle_173" data-name="Rectangle 173" width="6.941" height="6.941" transform="translate(114.101 82.993)" fill="#f17f07" opacity="0.2"/>
    <rect id="Rectangle_174" data-name="Rectangle 174" width="6.941" height="6.941" transform="translate(123.587 82.993)" fill="#f17f07" opacity="0.2"/>
    <rect id="Rectangle_175" data-name="Rectangle 175" width="6.941" height="6.941" transform="translate(133.074 82.993)" fill="#f17f07"/>
    <rect id="Rectangle_176" data-name="Rectangle 176" width="6.941" height="6.941" transform="translate(142.56 82.993)" fill="#f17f07" opacity="0.2"/>
    <rect id="Rectangle_177" data-name="Rectangle 177" width="6.941" height="6.941" transform="translate(152.047 82.993)" fill="#f17f07" opacity="0.2"/>
    <rect id="Rectangle_178" data-name="Rectangle 178" width="6.941" height="6.941" transform="translate(161.535 82.993)" fill="#f17f07" opacity="0.2"/>
    <rect id="Rectangle_179" data-name="Rectangle 179" width="6.941" height="6.941" transform="translate(171.02 82.993)" fill="#f17f07"/>
    <rect id="Rectangle_180" data-name="Rectangle 180" width="6.941" height="6.941" transform="translate(180.508 82.993)" fill="#f17f07" opacity="0.2"/>
    <rect id="Rectangle_181" data-name="Rectangle 181" width="6.941" height="6.941" transform="translate(189.996 82.993)" fill="#f17f07" opacity="0.2"/>
    <rect id="Rectangle_182" data-name="Rectangle 182" width="6.941" height="6.941" transform="translate(199.481 82.993)" fill="#f17f07" opacity="0.2"/>
    <rect id="Rectangle_183" data-name="Rectangle 183" width="6.941" height="6.941" transform="translate(208.969 82.993)" fill="#f17f07" opacity="0.2"/>
    <rect id="Rectangle_184" data-name="Rectangle 184" width="6.941" height="6.941" transform="translate(218.454 82.993)" fill="#f17f07" opacity="0.2"/>
    <rect id="Rectangle_185" data-name="Rectangle 185" width="6.941" height="6.941" transform="translate(227.942 82.993)" fill="#f17f07" opacity="0.2"/>
    <rect id="Rectangle_186" data-name="Rectangle 186" width="6.941" height="6.941" transform="translate(237.43 82.993)" fill="#f17f07" opacity="0.2"/>
    <rect id="Rectangle_187" data-name="Rectangle 187" width="6.941" height="6.941" transform="translate(246.915 82.993)" fill="#f17f07" opacity="0.2"/>
    <rect id="Rectangle_188" data-name="Rectangle 188" width="6.941" height="6.941" transform="translate(256.403 82.993)" fill="#f17f07" opacity="0.2"/>
    <rect id="Rectangle_189" data-name="Rectangle 189" width="6.941" height="6.941" transform="translate(265.888 82.993)" fill="#f17f07"/>
    <circle id="Ellipse_33" data-name="Ellipse 33" cx="9.488" cy="9.488" r="9.488" transform="translate(190.369 89.553)" fill="#767d9f"/>
    <path id="Path_396" data-name="Path 396" d="M760.06,441.435q1.42,6.2,2.411,12.489a7.275,7.275,0,0,1-.076,3.739,12.924,12.924,0,0,1-1.752,2.609,3.317,3.317,0,0,0-.694,2.947,3.416,3.416,0,0,0,2.462,1.8c2.928.789,6.049.215,8.963-.639a14.5,14.5,0,0,0,3.758-1.556,14.061,14.061,0,0,0,3.178-2.993c4.247-5.151,7.028-11.333,9.646-17.476a10.644,10.644,0,0,1-9.009-3.63c-1.072-1.26-1.858-3.015-1.254-4.555-1.771.971-3.875,1.037-5.782,1.7a20.541,20.541,0,0,0-3.4,1.673q-1.954,1.129-3.886,2.3A7.978,7.978,0,0,1,760.06,441.435Z" transform="translate(-560.696 -354.464)" fill="#ae6e79"/>
    <path id="Path_397" data-name="Path 397" d="M724.243,463.623c-1.662,3.235-3.826,6.345-6.914,8.272s-7.246,2.449-10.339.544a29.487,29.487,0,0,1-4.008-3.537,6.632,6.632,0,0,0-4.781-2.057c-1.97.171-3.513,1.709-4.832,3.181a37.794,37.794,0,0,0-5.355,7.216c-2.721,5.088-3.366,11.036-3.246,16.8s.955,11.507.974,17.275c.027,7.1-1.175,14.135-2.392,21.125,11.183-1.377,22.38,1.633,33.587,2.773a205.916,205.916,0,0,0,21.61.7,6.543,6.543,0,0,0,3.673-.735,4.952,4.952,0,0,0,1.521-1.807,17.29,17.29,0,0,0,1.673-6,121.534,121.534,0,0,0,.746-15.8c.049-12.788.1-25.623-1.529-38.311a36.107,36.107,0,0,0-2.109-9.178,14.4,14.4,0,0,0-5.883-7.17c-1.755-1.007-5.823-2.759-7.891-1.744C726.428,456.3,725.356,461.457,724.243,463.623Z" transform="translate(-505.035 -369.529)" fill="#767d9f"/>
    <path id="Path_398" data-name="Path 398" d="M830.331,493.749c-.422-7.891-2.139-16.312,1.516-23.316.9-1.72-2.324-3.866-1.328-5.532a25.055,25.055,0,0,0,2.737-6.511,4.912,4.912,0,0,0,.177-2.408c-.362-1.439-1.785-2.3-2.993-3.173-1.333-.969-2.019-3.921-2.449-5.518s3.42.327,4.968-.242c2.15-.786,4.881-.291,7.025.506a11.727,11.727,0,0,0,3.774.512,49.719,49.719,0,0,0,7.425-.177,18.467,18.467,0,0,1,3.322-.286c2.832.161,5.295,2.1,6.971,4.389s2.743,4.96,4.117,7.442c1.146,2.068,2.511,4.022,3.488,6.174a38,38,0,0,1,1.954,5.986l1.4,5.221a6.961,6.961,0,0,1,.343,2.315,6.571,6.571,0,0,1-.816,2.356,44.652,44.652,0,0,1-5.08,7.752c-2.936,3.6-6.5,6.846-8.244,11.156a28.174,28.174,0,0,0-1.4,5.243,192.615,192.615,0,0,0-2.966,21.536,47.4,47.4,0,0,0-9.937-3.322,48.3,48.3,0,0,0-5.17-.816c-1.521-.158-3.483.141-4.93-.272-2.422-.688-2.688-4.783-3.056-6.927a63.251,63.251,0,0,1-.727-10.339C830.418,501.575,830.54,497.659,830.331,493.749Z" transform="translate(-610.296 -363.543)" fill="#009790"/>
    <path id="Path_399" data-name="Path 399" d="M578.381,555.713c1.146,6.53,2.408,13.079,4.9,19.215-.063.06-.125.114-.188.169-.22.188-.449.365-.688.544a9.163,9.163,0,0,0-1.633,1.235,2.177,2.177,0,0,0-.408.667,1.491,1.491,0,0,0,0,1.216,9.646,9.646,0,0,1-4.261.343,5.59,5.59,0,0,0-3.477.688c-1.4.963-1.82,2.813-2.046,4.495q-.125.92-.215,1.842-.087.857-.141,1.72a51.309,51.309,0,0,0-.052,5.714q.022.522.057,1.045c-4.446-.106-8.5-2.424-12.331-4.677a6.8,6.8,0,0,1-2.348-1.9,4.3,4.3,0,0,1-.629-2.8,3.094,3.094,0,0,1,.044-.414,11.313,11.313,0,0,1,.623-2.362,29.169,29.169,0,0,1,5.221-8.884,11.3,11.3,0,0,0,2.525-3.679c.2-.623.272-1.284.473-1.9.9-2.688,4.163-3.959,5.279-6.568a19.95,19.95,0,0,1,.735-1.9,4.8,4.8,0,0,1,1.156-1.292c.2-.166.405-.327.61-.487q2.868-2.247,5.526-4.748.5-.465.98-.941a16.182,16.182,0,0,0,.291,3.673Z" transform="translate(-411.526 -440.263)" fill="#4c4981"/>
    <path id="Path_400" data-name="Path 400" d="M667.906,478.7c-.392.414-.816.8-1.233,1.189l-.111.1-.441.408a10.614,10.614,0,0,0-2.054,2.392l-.046.076c-1.388,2.484-.873,5.543-.487,8.364a71.178,71.178,0,0,1,.645,10.612c-.071,4.9-.648,9.763-.658,14.655q0,1.665.073,3.328c.079,1.8.215,3.605.378,5.406.177,1.975.389,3.948.588,5.921.158,1.526.307,3.05.433,4.574.063.789.123,1.575.172,2.364.057.925.1,1.853.131,2.778h0c.019.588.03,1.173.03,1.76v1q0,.955-.052,1.9-.054,1.222-.166,2.449a3.969,3.969,0,0,1-.86,2.487c-.038.038-.079.073-.12.109l-.881-.109a90.531,90.531,0,0,0-18.312-.327c.133-.92.256-1.837.375-2.759.054-.435.109-.873.161-1.311q.09-.751.171-1.5.094-.816.174-1.633.212-2.1.373-4.209.237-3.072.359-6.155.06-1.472.093-2.947.046-1.828.044-3.66,0-1.78-.03-3.564c0-.392-.016-.784-.049-1.173a7.439,7.439,0,0,0-.144-1.042,13.566,13.566,0,0,0-.816-2.307c-.06-.142-.117-.272-.174-.422-.033-.073-.063-.15-.093-.223a20.347,20.347,0,0,0,3.755-5.1c1.739-2.963,3.518-6.057,3.809-9.48s-1.409-7.268-4.68-8.312a22.729,22.729,0,0,0-2.748-.509,12.072,12.072,0,0,1-3.671-1.118q-.816.838-1.633,1.646a6.026,6.026,0,0,1,.59-2.37l.386.019a.739.739,0,0,1-.044-.272,1.43,1.43,0,0,1,.631-.985c1.282-1.088,3.3-1.331,4.106-2.8a20.447,20.447,0,0,0,.667-1.984c.781-1.831,3.023-2.506,4.373-3.97s1.687-3.537,2.778-5.17a7.788,7.788,0,0,1,3.265-2.721c.109-.052.22-.1.332-.15a18.842,18.842,0,0,1,7.281-1.181,15.356,15.356,0,0,1,4.419.487,1.447,1.447,0,0,1,.5.307C670.728,474.9,668.815,477.73,667.906,478.7Z" transform="translate(-473.633 -382.561)" fill="#009790"/>
    <path id="Path_401" data-name="Path 401" d="M629.093,540.809a16.565,16.565,0,0,1,12.718,1.325,12.029,12.029,0,0,1,4.794,4.566c1.619,2.939,1.548,6.481,1.434,9.836a12,12,0,0,1-.871,4.925,10.016,10.016,0,0,1-4.122,3.921,11.494,11.494,0,0,1-3.352,1.45,14.382,14.382,0,0,1-5.57-.272c-2-.37-4.152-.816-5.543-2.307a9.468,9.468,0,0,1-1.7-3.088q-.95-2.381-1.9-4.756c-1.1-2.751-1.475-5.039-.019-7.719.661-1.222,1.469-2.365,2.122-3.594C627.4,544.468,628.573,540.969,629.093,540.809Z" transform="translate(-461.833 -431.575)" fill="#009790"/>
    <path id="Path_402" data-name="Path 402" d="M388.979,672.657v8.135a45.522,45.522,0,0,1-17.613,3.483h-73.38c-.038.038-.079.073-.12.109l-.882-.109H166.454a56.857,56.857,0,0,1-29.424-7.989V663.866l62.777-7.246h.049l36.558,3.1,9.461.816,4.914.416,10.171.863,5.232.443,7.619.648,1.072.09,5.491.465,7.45.612,10.476.887,17.463,1.483,12.285,1.042,20.173,1.711,3.837.324.414.035.359.03,5.066.43,5.562.474.645.054Z" transform="translate(-107.364 -516.387)" fill="#f17f07"/>
    <path id="Path_403" data-name="Path 403" d="M545.373,537.2,466.7,523.77l-3.05,15.425,36.063,4.318,11.1,1.39,30.545-6.016Z" transform="translate(-337.495 -381.227)" fill="#9c9ca1"/>
    <path id="Path_404" data-name="Path 404" d="M642.33,720.054l39.415-7.409a1.36,1.36,0,0,1,1.616,1.341h0a1.36,1.36,0,0,1-1.113,1.341l-38.493,7.208Z" transform="translate(-475.176 -557.151)" fill="#9c9ca1"/>
    <path id="Path_405" data-name="Path 405" d="M623.106,640.214a10.166,10.166,0,0,0,3.575-.852,33.676,33.676,0,0,0,3.679-2.7,10.956,10.956,0,0,1,9.651-1.067,15.547,15.547,0,0,1,7.681,6.234c1.233,1.864,2.158,4.242,1.287,6.3a8.3,8.3,0,0,1-1.121,1.752l-2.269,2.966a7.89,7.89,0,0,1-1.54,1.657,6.544,6.544,0,0,1-2.944,1.023c-2.762.4-5.572.174-8.356.359-4.781.318-9.45,1.858-14.241,1.807a42.913,42.913,0,0,1-8.163-1.14L598.435,654.1c-2.073-.424-4.416-1.045-5.393-2.925a6.78,6.78,0,0,1-.571-2.778c-.142-2.623,0-5.54,1.818-7.431,1.709-1.774,4.411-2.335,6.451-3.646,2.5-1.608,3.322-1.088,5.956.12A32.651,32.651,0,0,0,623.106,640.214Z" transform="translate(-438.853 -500.61)" fill="#ae6e79"/>
    <path id="Path_406" data-name="Path 406" d="M623.106,640.214a10.166,10.166,0,0,0,3.575-.852,33.676,33.676,0,0,0,3.679-2.7,10.956,10.956,0,0,1,9.651-1.067,15.547,15.547,0,0,1,7.681,6.234c1.233,1.864,2.158,4.242,1.287,6.3a8.3,8.3,0,0,1-1.121,1.752l-2.269,2.966a7.89,7.89,0,0,1-1.54,1.657,6.544,6.544,0,0,1-2.944,1.023c-2.762.4-5.572.174-8.356.359-4.781.318-9.45,1.858-14.241,1.807a42.913,42.913,0,0,1-8.163-1.14L598.435,654.1c-2.073-.424-4.416-1.045-5.393-2.925a6.78,6.78,0,0,1-.571-2.778c-.142-2.623,0-5.54,1.818-7.431,1.709-1.774,4.411-2.335,6.451-3.646,2.5-1.608,3.322-1.088,5.956.12A32.651,32.651,0,0,0,623.106,640.214Z" transform="translate(-438.853 -500.61)" opacity="0.05"/>
    <path id="Path_407" data-name="Path 407" d="M692.459,636.874a70.572,70.572,0,0,1-10.2,3.36c-5.866,1.292-12,1.088-17.825,2.566-3.075.784-6.13,2.046-9.289,1.79a27.843,27.843,0,0,1-4.149-.871c-7.719-1.9-16.494-1.287-22.763,3.611a28.329,28.329,0,0,0-5.491,5.986,4,4,0,0,0,1.608,5.953,23.569,23.569,0,0,0,7.722,2.06,46.952,46.952,0,0,0,10.715-.7c5.273-.748,10.549-1.5,15.809-2.34,1.888-.3,3.777-.615,5.676-.854,13.667-1.728,27.582.373,41.284-1.069a12.614,12.614,0,0,0,4.054-.928c3.189-1.5,4.767-5.442,4.109-8.908a12.471,12.471,0,0,0-6.258-8.117,27.549,27.549,0,0,0-8.182-2.721C696.627,635.079,695.011,635.895,692.459,636.874Z" transform="translate(-460.381 -501.001)" fill="#ae6e79"/>
    <path id="Path_408" data-name="Path 408" d="M893.315,533.4a10.509,10.509,0,0,1,1.665,7.1c-.163,2.473-.751,4.919-.838,7.4-.12,3.407.7,6.8.563,10.2a29.338,29.338,0,0,1-1.328,6.985c-.786,2.691-1.924,5.583-4.408,6.876-3.3,1.717-10.214.751-13.684,2.1.316-1.967,3.341-4.816,3.657-6.783a12.668,12.668,0,0,0,.2-4.122,9.116,9.116,0,0,0-2.53-4.566,13.352,13.352,0,0,0-7.2-4.081c-2.762-.5-9.523-.09-11.733,1.654-.272-1.8,4.789-3.537,6.568-3.926.887-.2,1.9-.087,2.615-.65,1.36-1.067.373-3.192.438-4.9.052-1.36.846-2.607,1.007-3.967.272-2.177-1.148-4.394-.59-6.53a16.945,16.945,0,0,1,.985-2.234c.969-2.3.544-4.922.027-7.366-.321-1.535-.634-3.265.22-4.574.792-1.222,3.039,3.129,4.479,2.928,4.753-.667,9.055-4.19,12.894-1.306,1.956,1.469,2.212,2.993,2.993,5.091C890.077,530.72,892.044,531.743,893.315,533.4Z" transform="translate(-631.925 -418.246)" opacity="0.1"/>
    <path id="Path_409" data-name="Path 409" d="M896.315,528.476a10.509,10.509,0,0,1,1.665,7.1c-.163,2.473-.751,4.919-.838,7.4-.12,3.407.7,6.8.563,10.2a29.337,29.337,0,0,1-1.328,6.985c-.786,2.691-1.924,5.583-4.408,6.876-3.3,1.717-10.214.751-13.684,2.1.316-1.967,3.341-4.816,3.657-6.783a12.666,12.666,0,0,0,.2-4.122,9.117,9.117,0,0,0-2.53-4.566,13.352,13.352,0,0,0-7.2-4.081c-2.762-.5-9.523-.09-11.733,1.654-.272-1.8,4.789-3.537,6.568-3.926.887-.2,1.9-.087,2.615-.65,1.36-1.067.373-3.192.438-4.9.052-1.36.846-2.607,1.007-3.967.272-2.177-1.148-4.394-.59-6.53a16.946,16.946,0,0,1,.985-2.234c.969-2.3.544-4.922.027-7.366-.321-1.535-.634-3.265.22-4.574a5.182,5.182,0,0,1,3.779-1.888,18.617,18.617,0,0,1,13.6,3.51c1.956,1.469,2.212,2.993,2.993,5.091C893.077,525.8,895.044,526.821,896.315,528.476Z" transform="translate(-634.108 -413.324)" fill="#009790"/>
    <path id="Path_410" data-name="Path 410" d="M329.681,492.5l14.794,54.674a3.415,3.415,0,0,0,2.969,2.506l66.586,6.4a3.412,3.412,0,0,0,3.641-4.212l-16.2-65.95a3.412,3.412,0,0,0-3.57-2.588L332.709,488.2a3.412,3.412,0,0,0-3.028,4.3Z" transform="translate(-247.509 -390.237)" fill="#9c9ca1"/>
    <ellipse id="Ellipse_34" data-name="Ellipse 34" cx="7.319" cy="7.415" rx="7.319" ry="7.415" transform="translate(206.847 98.099)" fill="#fff"/>
    <path id="Path_411" data-name="Path 411" d="M827.592,479s1.543,4.587-3.009,6.517L824,486.531l2.852,2.813s3.515-6.413,3.134-8.691C829.986,480.654,829.442,478.341,827.592,479Z" transform="translate(-607.415 -387.009)" fill="#fff"/>
    <circle id="Ellipse_35" data-name="Ellipse 35" cx="7.058" cy="7.058" r="7.058" transform="translate(207.949 98.812)" fill="#f17f07"/>
    <path id="Path_412" data-name="Path 412" d="M822.153,451.27l-1.121-1.85-1.633-.231c.348-6.092-1.233-7.907-1.233-7.907l-.367-.035-1.6-.155-3.009-3.124v-.887c4.228.5,6.566,2.511,7.828,4.865C823.249,446.075,822.153,451.27,822.153,451.27Z" transform="translate(-599.546 -356.582)" fill="#f17f07"/>
    <path id="Path_413" data-name="Path 413" d="M817.849,442.5v1.121l-1.6-.155-3.009-3.124S817.9,441.382,817.849,442.5Z" transform="translate(-599.583 -358.955)" stroke="#4c4981" stroke-miterlimit="10" stroke-width="1" opacity="0.1"/>
    <path id="Path_414" data-name="Path 414" d="M843.131,464.314l-1.121-1.85V455C844.228,459.119,843.131,464.314,843.131,464.314Z" transform="translate(-620.525 -369.626)" stroke="#4c4981" stroke-miterlimit="10" stroke-width="1" opacity="0.1"/>
    <ellipse id="Ellipse_36" data-name="Ellipse 36" cx="3.926" cy="7.161" rx="3.926" ry="7.161" transform="translate(191.404 98.331) rotate(-30)" fill="#fff"/>
    <path id="Path_415" data-name="Path 415" d="M740.512,501.124c1.978,3.426,4.405,5.714,2.528,6.8s-7.346.544-9.325-2.884-.182-8.163,1.7-9.251S738.531,497.691,740.512,501.124Z" transform="translate(-541.069 -399.153)" fill="#f17f07"/>
    <path id="Path_416" data-name="Path 416" d="M723.379,376.749c0,10.946-7.491,21.5-18.437,21.5a19.822,19.822,0,0,1,0-39.644C715.888,358.611,723.379,365.8,723.379,376.749Z" transform="translate(-506.323 -299.456)" opacity="0.1"/>
    <circle id="Ellipse_37" data-name="Ellipse 37" cx="19.822" cy="19.822" r="19.822" transform="translate(178.797 58.611)" fill="#ae6e79"/>
    <path id="Path_417" data-name="Path 417" d="M681.038,328.125c2.359.868,3.755,3.306,5.872,4.664,2.993,1.9,6.889,1.412,10.307.471,1.9-.52,3.9-1.154,5.771-.577a1.633,1.633,0,0,0,.879.125c.408-.117.609-.569.743-.971a26.871,26.871,0,0,0-2.223-21.133,13.66,13.66,0,0,0-3.477-4.389,14.505,14.505,0,0,0-3.951-1.994,39.454,39.454,0,0,0-7.858-1.94,4.88,4.88,0,0,0-1.434-.046,6,6,0,0,0-1.828.775,18.715,18.715,0,0,1-8.125,2.207c-3.809.144-8.163-.754-11.1,1.69-3.537,2.93-2.656,8.647-4.949,12.625-1.518,2.631-4.446,4.541-4.928,7.537a6.958,6.958,0,0,0,.171,2.74,11.149,11.149,0,0,0,10.339,8.263,3.924,3.924,0,0,0,2.112-.433,4.776,4.776,0,0,0,1.113-1.058C671.589,332.99,675.153,325.959,681.038,328.125Z" transform="translate(-484.161 -258.476)" fill="#0c2340"/>
    <path id="Path_418" data-name="Path 418" d="M704.588,385.333c-.133.4-.335.854-.743.971a1.633,1.633,0,0,1-.879-.125c-1.875-.577-3.877.057-5.768.577-3.42.941-7.325,1.445-10.307-.471-2.12-1.36-3.513-3.809-5.875-4.664-5.885-2.177-9.45,4.865-12.573,8.555a4.775,4.775,0,0,1-1.113,1.058,3.923,3.923,0,0,1-2.111.433,11.178,11.178,0,0,1-10.34-8.263c-.062-.272-.117-.544-.158-.816a.131.131,0,0,1-.014.071,6.959,6.959,0,0,0,.171,2.74,11.152,11.152,0,0,0,10.34,8.263,3.923,3.923,0,0,0,2.111-.433,4.775,4.775,0,0,0,1.113-1.058c3.124-3.69,6.688-10.72,12.573-8.555,2.362.868,3.755,3.306,5.875,4.664,2.993,1.9,6.887,1.412,10.307.471,1.9-.52,3.894-1.154,5.768-.577a1.633,1.633,0,0,0,.879.125c.408-.117.609-.569.743-.971a24.566,24.566,0,0,0,1.219-8.778A24.16,24.16,0,0,1,704.588,385.333Z" transform="translate(-484.139 -313.978)" opacity="0.1"/>
  </g>
</svg>
