<svg id="behance-logo" xmlns="http://www.w3.org/2000/svg" width="46.501" height="46.501" viewBox="0 0 46.501 46.501">
  <g id="Group_1" data-name="Group 1">
    <path id="Path_7" data-name="Path 7" d="M30.926,36.312c0-2.194-1.492-2.194-1.492-2.194h-6.14v4.707h5.759C30.048,38.824,30.926,38.506,30.926,36.312Z" transform="translate(-12.213 -17.888)" fill="#ee572a"/>
    <path id="Path_8" data-name="Path 8" d="M29.434,50.846h-6.14v5.637h5.857c.881-.025,2.507-.3,2.507-2.74C31.658,50.816,29.434,50.846,29.434,50.846Z" transform="translate(-12.213 -26.658)" fill="#ee572a"/>
    <path id="Path_9" data-name="Path 9" d="M65.151,44.011a3.773,3.773,0,0,0-3.712,3.252h6.929A3.139,3.139,0,0,0,65.151,44.011Z" transform="translate(-32.212 -23.074)" fill="#ee572a"/>
    <path id="Path_10" data-name="Path 10" d="M23.25,0A23.25,23.25,0,1,0,46.5,23.25,23.251,23.251,0,0,0,23.25,0ZM28.32,13.723h8.7v2.6h-8.7Zm-4.4,13.623c0,6.438-6.7,6.226-6.7,6.226H6.245V12.481H17.221c3.336,0,5.969,1.841,5.969,5.616s-3.219,4.014-3.219,4.014C24.214,22.111,23.921,27.347,23.921,27.347Zm9.06,3.327c3.506,0,3.382-2.269,3.382-2.269h3.712c0,6.022-7.218,5.61-7.218,5.61-8.661,0-8.1-8.063-8.1-8.063s-.007-8.1,8.1-8.1C41.394,17.847,40.2,27,40.2,27H29.269A3.431,3.431,0,0,0,32.981,30.674Z" fill="#ee572a"/>
  </g>
</svg>
