<svg id="linkedin-logo" xmlns="http://www.w3.org/2000/svg" width="46.501" height="46.501" viewBox="0 0 46.501 46.501">
  <path id="Path_5" data-name="Path 5" d="M23.25,0A23.25,23.25,0,1,0,46.5,23.25,23.25,23.25,0,0,0,23.25,0ZM14.539,38.992H8V17.962h6.536ZM11.272,15.087A3.79,3.79,0,1,1,15.06,11.3,3.791,3.791,0,0,1,11.272,15.087ZM39.019,38.992H32.488V28.765c0-2.439-.045-5.576-3.4-5.576-3.4,0-3.922,2.656-3.922,5.4v10.4H18.638V17.962h6.269v2.874h.088a6.867,6.867,0,0,1,6.184-3.4c6.619,0,7.84,4.356,7.84,10.018V38.992Z" fill="#ee572a"/>
</svg>
