<svg id="reddit-logo" xmlns="http://www.w3.org/2000/svg" width="46.501" height="46.501" viewBox="0 0 46.501 46.501">
  <g id="Group_2" data-name="Group 2">
    <path id="Path_11" data-name="Path 11" d="M53.688,79.593h4.2a1.089,1.089,0,0,0,.01-.145,1.953,1.953,0,0,0-2.145-1.669,2.661,2.661,0,0,0-.793.122A7.055,7.055,0,0,1,53.688,79.593Z" transform="translate(-28.148 -40.778)" fill="#ee572a"/>
    <path id="Path_12" data-name="Path 12" d="M37.215,77.779a1.953,1.953,0,0,0-2.144,1.669,1.105,1.105,0,0,0,.01.145h4.171a7.08,7.08,0,0,1-1.275-1.7A2.628,2.628,0,0,0,37.215,77.779Z" transform="translate(-18.387 -40.778)" fill="#ee572a"/>
    <path id="Path_13" data-name="Path 13" d="M47.906,53.117l-.525.165a14.71,14.71,0,0,1-8.58,0l-.525-.165-.087.544a20.9,20.9,0,0,0-.26,3.253c0,4.733,1.555,8.911,3.781,10.161l.108.061h2.538l.109-.061c2.226-1.249,3.781-5.427,3.781-10.161a20.987,20.987,0,0,0-.254-3.256ZM44.1,66.188H42.072c-1.856-1.153-3.192-5.013-3.192-9.27a19.755,19.755,0,0,1,.171-2.568,15.7,15.7,0,0,0,8.079,0,20.086,20.086,0,0,1,.166,2.57C47.3,61.175,45.959,65.035,44.1,66.188Z" transform="translate(-19.886 -27.849)" fill="#ee572a"/>
    <path id="Path_14" data-name="Path 14" d="M58.874,63.4a4.019,4.019,0,0,0,2.239-3.816,4.247,4.247,0,0,0-1.774-3.572,21.591,21.591,0,0,1,.139,2.425A20.073,20.073,0,0,1,58.874,63.4Z" transform="translate(-30.867 -29.364)" fill="#ee572a"/>
    <path id="Path_15" data-name="Path 15" d="M35.775,56.053a4.2,4.2,0,0,0-1.737,3.55,4.032,4.032,0,0,0,2.2,3.794,20.043,20.043,0,0,1-.6-4.941A21.456,21.456,0,0,1,35.775,56.053Z" transform="translate(-17.846 -29.388)" fill="#ee572a"/>
    <path id="Path_16" data-name="Path 16" d="M64.149,18.941a1.394,1.394,0,1,0-1.395-1.394A1.4,1.4,0,0,0,64.149,18.941Z" transform="translate(-32.901 -8.468)" fill="#ee572a"/>
    <path id="Path_17" data-name="Path 17" d="M25.794,32.71a1.861,1.861,0,0,0,.755,1.493,6.544,6.544,0,0,1,2.26-2.955,1.857,1.857,0,0,0-3.015,1.462Z" transform="translate(-13.523 -16.171)" fill="#ee572a"/>
    <path id="Path_18" data-name="Path 18" d="M23.25,0A23.25,23.25,0,1,0,46.5,23.25,23.251,23.251,0,0,0,23.25,0ZM33.586,18.819a4.7,4.7,0,0,1,.071.785c0,2.592-2.15,4.853-5.323,6.047.007.039.012.077.018.115a4.753,4.753,0,0,1,2.619,4.449,4.6,4.6,0,0,1-3.2,4.647,13.484,13.484,0,0,1-.545,1.442,3.469,3.469,0,0,1,.38-.029,2.668,2.668,0,0,1,2.87,2.395,1.985,1.985,0,0,1-.106.618.363.363,0,0,1-.346.252h-5.5l-.005,0H21.88l0,0H16.409a.363.363,0,0,1-.345-.25,1.978,1.978,0,0,1-.107-.62,2.667,2.667,0,0,1,2.869-2.395,3.427,3.427,0,0,1,.351.029,13.284,13.284,0,0,1-.544-1.439,4.618,4.618,0,0,1-3.167-4.648,4.769,4.769,0,0,1,2.582-4.433c.007-.044.012-.088.02-.131-3.173-1.195-5.322-3.456-5.322-6.047a4.617,4.617,0,0,1,.083-.833,2.584,2.584,0,1,1,3.059-4.124,13.479,13.479,0,0,1,7.124-1.986l1.615-5.1a.364.364,0,0,1,.429-.244l4.222.995a2.111,2.111,0,1,1-.148.768c0-.02.005-.038.006-.057L25.216,8.1l-1.447,4.575a13.317,13.317,0,0,1,6.808,2.01,2.568,2.568,0,0,1,1.787-.736,2.586,2.586,0,0,1,1.221,4.869Z" fill="#ee572a"/>
    <path id="Path_19" data-name="Path 19" d="M40.889,46.926a.363.363,0,0,0,0,.513,5.069,5.069,0,0,0,3.73,1.156l.013,0,.012,0a5.07,5.07,0,0,0,3.73-1.156.363.363,0,1,0-.513-.513,4.422,4.422,0,0,1-3.217.943l-.012,0-.013,0a4.42,4.42,0,0,1-3.217-.943A.363.363,0,0,0,40.889,46.926Z" transform="translate(-21.382 -24.547)" fill="#ee572a"/>
    <path id="Path_20" data-name="Path 20" d="M54.655,35.265A1.542,1.542,0,1,0,56.2,36.808,1.544,1.544,0,0,0,54.655,35.265Z" transform="translate(-27.846 -18.489)" fill="#ee572a"/>
    <path id="Path_21" data-name="Path 21" d="M39.707,38.35a1.542,1.542,0,1,0-1.542-1.542A1.543,1.543,0,0,0,39.707,38.35Z" transform="translate(-20.009 -18.489)" fill="#ee572a"/>
    <path id="Path_22" data-name="Path 22" d="M66.714,30.843a1.858,1.858,0,0,0-1.2.441,6.471,6.471,0,0,1,2.231,2.973,1.863,1.863,0,0,0-1.034-3.414Z" transform="translate(-34.35 -16.171)" fill="#ee572a"/>
  </g>
</svg>
