<svg id="youtube-symbol" xmlns="http://www.w3.org/2000/svg" width="46.501" height="46.501" viewBox="0 0 46.501 46.501">
  <g id="Group_3" data-name="Group 3">
    <path id="Path_23" data-name="Path 23" d="M39.969,47.621l10.438-5.412L39.969,36.764Z" transform="translate(-20.955 -19.275)" fill="#ee572a"/>
    <path id="Path_24" data-name="Path 24" d="M23.25,0A23.25,23.25,0,1,0,46.5,23.25,23.251,23.251,0,0,0,23.25,0ZM39.092,31.011a4.148,4.148,0,0,1-3.549,3.225,110.1,110.1,0,0,1-12.293.455,110.145,110.145,0,0,1-12.3-.455,4.145,4.145,0,0,1-3.547-3.225,35.147,35.147,0,0,1-.572-7.761,35.146,35.146,0,0,1,.579-7.761,4.146,4.146,0,0,1,3.547-3.226,110.259,110.259,0,0,1,12.3-.455,110.212,110.212,0,0,1,12.293.455A4.147,4.147,0,0,1,39.1,15.49a35.143,35.143,0,0,1,.568,7.761A35.146,35.146,0,0,1,39.092,31.011Z" fill="#ee572a"/>
  </g>
</svg>
